RobotoAvar2-opsz14-wdth100-wght100.ufo
<glyph name="quotedbl" format="2">
  <advance width="785.0"/>
  <unicode hex="0022"/>
  <outline>
    <contour>
      <point x="152.53191489361703" y="966.0" type="line"/>
      <point x="145.35106382978722" y="1320.0" type="line"/>
      <point x="145.35106382978722" y="1456.0" type="line"/>
      <point x="235.17021276595744" y="1456.0" type="line"/>
      <point x="235.17021276595744" y="1320.0" type="line"/>
      <point x="227.98936170212767" y="966.0" type="line"/>
    </contour>
    <contour>
      <point x="557.0106382978723" y="966.0" type="line"/>
      <point x="549.8297872340426" y="1320.0" type="line"/>
      <point x="549.8297872340426" y="1456.0" type="line"/>
      <point x="639.6489361702128" y="1456.0" type="line"/>
      <point x="639.6489361702128" y="1320.0" type="line"/>
      <point x="632.468085106383" y="966.0" type="line"/>
    </contour>
  </outline>
</glyph>
<glyph name="numbersign" format="2">
  <advance width="1597.5"/>
  <unicode hex="0023"/>
  <outline>
    <contour>
      <point x="248.27272727272725" y="-20.0" type="line"/>
      <point x="685.2727272727273" y="1501.0" type="line"/>
      <point x="767.0" y="1501.0" type="line"/>
      <point x="330.0" y="-20.0" type="line"/>
    </contour>
    <contour>
      <point x="807.7727272727273" y="-20.0" type="line"/>
      <point x="1244.7727272727273" y="1501.0" type="line"/>
      <point x="1326.5" y="1501.0" type="line"/>
      <point x="889.5" y="-20.0" type="line"/>
    </contour>
    <contour>
      <point x="64.0" y="438.4042553191489" type="line"/>
      <point x="64.0" y="508.11702127659566" type="line"/>
      <point x="1458.5" y="508.11702127659566" type="line"/>
      <point x="1458.5" y="438.4042553191489" type="line"/>
    </contour>
    <contour>
      <point x="115.0" y="973.4042553191489" type="line"/>
      <point x="115.0" y="1043.1170212765956" type="line"/>
      <point x="1508.5" y="1043.1170212765956" type="line"/>
      <point x="1508.5" y="973.4042553191489" type="line"/>
    </contour>
  </outline>
</glyph>
<glyph name="dollar" format="2">
  <advance width="847.8085106382978"/>
  <unicode hex="0024"/>
  <outline>
    <contour>
      <point x="21.0" y="381.0" type="qcurve" smooth="yes"/>
      <point x="21.0" y="392.0" type="line"/>
      <point x="109.38297872340425" y="392.0" type="line"/>
      <point x="109.38297872340425" y="381.0" type="line" smooth="yes"/>
      <point x="109.38297872340425" y="233.27272727272728"/>
      <point x="275.7466150870406" y="78.45454545454544"/>
      <point x="422.3829787234042" y="78.45454545454544" type="qcurve" smooth="yes"/>
      <point x="568.0193423597678" y="78.45454545454544"/>
      <point x="727.3829787234042" y="235.90909090909093"/>
      <point x="727.3829787234042" y="365.0" type="qcurve" smooth="yes"/>
      <point x="727.3829787234042" y="489.4042553191489"/>
      <point x="573.5212765957447" y="643.9680851063829"/>
      <point x="396.7872340425532" y="705.9680851063829" type="qcurve" smooth="yes"/>
      <point x="216.36170212765956" y="769.5744680851063"/>
      <point x="47.95744680851064" y="948.0851063829787"/>
      <point x="47.95744680851064" y="1099.0" type="qcurve" smooth="yes"/>
      <point x="47.95744680851064" y="1260.776595744681"/>
      <point x="239.47872340425528" y="1458.0"/>
      <point x="412.9042553191489" y="1458.0" type="qcurve" smooth="yes"/>
      <point x="587.8510638297872" y="1458.0"/>
      <point x="787.7659574468084" y="1242.2978723404256"/>
      <point x="787.7659574468084" y="1076.0" type="qcurve" smooth="yes"/>
      <point x="787.7659574468084" y="1064.9999999999998" type="line"/>
      <point x="699.3829787234042" y="1064.9999999999998" type="line"/>
      <point x="699.3829787234042" y="1076.0" type="line" smooth="yes"/>
      <point x="699.3829787234042" y="1210.5454545454545"/>
      <point x="553.110251450677" y="1373.0"/>
      <point x="412.3829787234042" y="1373.0" type="qcurve" smooth="yes"/>
      <point x="273.3771760154739" y="1373.0"/>
      <point x="135.38297872340422" y="1227.769825918762"/>
      <point x="135.38297872340422" y="1099.0" type="qcurve" smooth="yes"/>
      <point x="135.38297872340422" y="983.5957446808511"/>
      <point x="282.20212765957444" y="840.1595744680851"/>
      <point x="459.10638297872345" y="777.595744680851" type="qcurve" smooth="yes"/>
      <point x="633.4468085106382" y="716.5531914893617"/>
      <point x="814.8085106382978" y="525.9574468085106"/>
      <point x="814.8085106382978" y="365.0" type="qcurve" smooth="yes"/>
      <point x="814.8085106382978" y="199.39361702127658"/>
      <point x="604.2872340425531" y="-6.0"/>
      <point x="421.86170212765956" y="-6.0" type="qcurve" smooth="yes"/>
      <point x="238.9574468085106" y="-6.0"/>
      <point x="21.0" y="199.39361702127658"/>
    </contour>
    <contour>
      <point x="389.08510638297867" y="-170.0" type="line"/>
      <point x="389.08510638297867" y="758.0" type="line"/>
      <point x="457.8404255319149" y="758.0" type="line"/>
      <point x="457.8404255319149" y="43.18181818181818" type="line"/>
      <point x="464.54255319148933" y="37.72727272727273" type="line"/>
      <point x="464.54255319148933" y="-170.0" type="line"/>
    </contour>
    <contour>
      <point x="395.78723404255317" y="758.0" type="line"/>
      <point x="395.78723404255317" y="1416.9090909090908" type="line"/>
      <point x="389.08510638297867" y="1422.3636363636365" type="line"/>
      <point x="389.08510638297867" y="1586.0" type="line"/>
      <point x="464.54255319148933" y="1586.0" type="line"/>
      <point x="464.54255319148933" y="758.0" type="line"/>
    </contour>
  </outline>
</glyph>
<glyph name="plus" format="2">
  <advance width="1024.0"/>
  <unicode hex="002B"/>
  <outline>
    <contour>
      <point x="56.99999999999999" y="632.1808510638298" type="line"/>
      <point x="56.99999999999999" y="714.3404255319149" type="line"/>
      <point x="966.9999999999999" y="714.3404255319149" type="line"/>
      <point x="966.9999999999999" y="632.1808510638298" type="line"/>
    </contour>
    <contour>
      <point x="466.8297872340425" y="188.0" type="line"/>
      <point x="466.8297872340425" y="1160.0" type="line"/>
      <point x="556.6489361702127" y="1160.0" type="line"/>
      <point x="556.6489361702127" y="188.0" type="line"/>
    </contour>
  </outline>
</glyph>
<glyph name="comma" format="2">
  <advance width="580.0"/>
  <unicode hex="002C"/>
  <outline>
    <contour>
      <point x="135.02127659574467" y="-235.72340425531914" type="line"/>
      <point x="185.62765957446805" y="-174.32978723404256"/>
      <point x="253.78723404255317" y="-29.904255319148934"/>
      <point x="254.30851063829783" y="70.0" type="qcurve" smooth="yes"/>
      <point x="254.30851063829783" y="220.0" type="line"/>
      <point x="344.1276595744681" y="220.0" type="line"/>
      <point x="344.1276595744681" y="70.0" type="line" smooth="yes"/>
      <point x="344.1276595744681" y="-40.0"/>
      <point x="254.38297872340422" y="-208.88297872340425"/>
      <point x="187.89361702127658" y="-272.75531914893617" type="qcurve"/>
    </contour>
  </outline>
</glyph>
<glyph name="period" format="2">
  <advance width="580.0"/>
  <unicode hex="002E"/>
  <outline>
    <contour>
      <point x="214.73404255319147" y="57.12765957446808" type="qcurve" smooth="yes"/>
      <point x="214.73404255319147" y="87.23404255319147"/>
      <point x="253.06382978723406" y="129.99999999999997"/>
      <point x="290.0" y="129.99999999999997" type="qcurve" smooth="yes"/>
      <point x="326.9361702127659" y="129.99999999999997"/>
      <point x="365.26595744680844" y="87.23404255319147"/>
      <point x="365.26595744680844" y="57.12765957446808" type="qcurve" smooth="yes"/>
      <point x="365.26595744680844" y="27.542553191489354"/>
      <point x="326.9361702127659" y="-15.223404255319146"/>
      <point x="290.0" y="-15.223404255319146" type="qcurve" smooth="yes"/>
      <point x="253.06382978723406" y="-15.223404255319146"/>
      <point x="214.73404255319147" y="27.542553191489354"/>
    </contour>
  </outline>
</glyph>
<glyph name="colon" format="2">
  <advance width="600.0"/>
  <unicode hex="003A"/>
  <outline>
    <contour>
      <point x="227.6063829787234" y="47.478723404255305" type="qcurve" smooth="yes"/>
      <point x="227.6063829787234" y="76.14893617021275"/>
      <point x="265.02127659574467" y="117.4787234042553"/>
      <point x="300.0" y="117.4787234042553" type="qcurve" smooth="yes"/>
      <point x="334.97872340425533" y="117.4787234042553"/>
      <point x="372.39361702127655" y="76.14893617021275"/>
      <point x="372.39361702127655" y="47.478723404255305" type="qcurve" smooth="yes"/>
      <point x="372.39361702127655" y="18.808510638297868"/>
      <point x="334.97872340425533" y="-22.0"/>
      <point x="300.0" y="-22.0" type="qcurve" smooth="yes"/>
      <point x="265.02127659574467" y="-22.0"/>
      <point x="227.6063829787234" y="18.808510638297868"/>
    </contour>
    <contour>
      <point x="227.6063829787234" y="998.5212765957448" type="qcurve" smooth="yes"/>
      <point x="227.6063829787234" y="1027.1914893617022"/>
      <point x="265.02127659574467" y="1068.0"/>
      <point x="300.0" y="1068.0" type="qcurve" smooth="yes"/>
      <point x="334.97872340425533" y="1068.0"/>
      <point x="372.39361702127655" y="1027.1914893617022"/>
      <point x="372.39361702127655" y="998.5212765957448" type="qcurve" smooth="yes"/>
      <point x="372.39361702127655" y="969.8510638297871"/>
      <point x="334.97872340425533" y="928.5212765957447"/>
      <point x="300.0" y="928.5212765957447" type="qcurve" smooth="yes"/>
      <point x="265.02127659574467" y="928.5212765957447"/>
      <point x="227.6063829787234" y="969.8510638297871"/>
    </contour>
  </outline>
</glyph>
<glyph name="greater" format="2">
  <advance width="1024.0"/>
  <unicode hex="003E"/>
  <outline>
    <contour>
      <point x="106.0" y="254.88297872340422" type="line"/>
      <point x="106.0" y="351.4468085106383" type="line"/>
      <point x="814.6808510638298" y="672.7340425531914" type="line"/>
      <point x="106.0" y="990.372340425532" type="line"/>
      <point x="106.0" y="1091.723404255319" type="line"/>
      <point x="924.0" y="712.7234042553191" type="line"/>
      <point x="924.0" y="637.5319148936169" type="line"/>
    </contour>
  </outline>
</glyph>
<glyph name="I" format="2">
  <advance width="445.563829787234"/>
  <unicode hex="0049"/>
  <anchor x="223.04255319148933" y="0.0" name="bottom"/>
  <anchor x="240.3191489361702" y="0.0" name="ogonek"/>
  <anchor x="223.04255319148933" y="1456.0" name="top"/>
  <anchor x="-73.43617021276594" y="1074.0" name="tonos"/>
  <anchor x="223.04255319148933" y="750.0" name="yu_dash"/>
  <outline>
    <contour>
      <point x="175.0" y="0.0" type="line"/>
      <point x="175.0" y="1456.0" type="line"/>
      <point x="270.563829787234" y="1456.0" type="line"/>
      <point x="270.563829787234" y="0.0" type="line"/>
    </contour>
  </outline>
</glyph>
<glyph name="J" format="2">
  <advance width="1010.627659574468"/>
  <unicode hex="004A"/>
  <anchor x="419.6808510638298" y="0.0" name="bottom"/>
  <anchor x="706.4787234042553" y="1456.0" name="top"/>
  <outline>
    <contour>
      <point x="25.0" y="400.0" type="qcurve" smooth="yes"/>
      <point x="25.0" y="410.0" type="line"/>
      <point x="120.56382978723403" y="410.0" type="line"/>
      <point x="120.56382978723403" y="400.0" type="line" smooth="yes"/>
      <point x="120.56382978723403" y="240.45454545454544"/>
      <point x="287.8820116054158" y="62.63636363636364"/>
      <point x="440.063829787234" y="62.63636363636364" type="qcurve" smooth="yes"/>
      <point x="593.2001934235976" y="62.63636363636364"/>
      <point x="760.063829787234" y="255.45454545454544"/>
      <point x="760.063829787234" y="425.0" type="qcurve" smooth="yes"/>
      <point x="760.063829787234" y="1456.0" type="line"/>
      <point x="855.627659574468" y="1456.0" type="line"/>
      <point x="855.627659574468" y="425.0" type="line" smooth="yes"/>
      <point x="855.627659574468" y="215.0"/>
      <point x="632.0744680851063" y="-30.0"/>
      <point x="440.563829787234" y="-30.0" type="qcurve" smooth="yes"/>
      <point x="248.5531914893617" y="-30.0"/>
      <point x="25.0" y="200.52127659574467"/>
    </contour>
  </outline>
</glyph>
<glyph name="Q" format="2">
  <advance width="1427.0425531914893"/>
  <unicode hex="0051"/>
  <anchor x="632.5212765957447" y="0.0" name="bottom"/>
  <anchor x="632.5212765957447" y="1456.0" name="top"/>
  <outline>
    <contour>
      <point x="115.0" y="701.0" type="qcurve" smooth="yes"/>
      <point x="115.0" y="755.0" type="line" smooth="yes"/>
      <point x="115.0" y="1100.0"/>
      <point x="449.20212765957444" y="1486.0"/>
      <point x="713.5212765957447" y="1486.0" type="qcurve" smooth="yes"/>
      <point x="977.8404255319149" y="1486.0"/>
      <point x="1312.0425531914893" y="1100.0"/>
      <point x="1312.0425531914893" y="755.0" type="qcurve" smooth="yes"/>
      <point x="1312.0425531914893" y="701.0" type="line" smooth="yes"/>
      <point x="1312.0425531914893" y="356.0"/>
      <point x="977.8404255319149" y="-30.0"/>
      <point x="713.5212765957447" y="-30.0" type="qcurve" smooth="yes"/>
      <point x="449.20212765957444" y="-30.0"/>
      <point x="115.0" y="356.0"/>
    </contour>
    <contour>
      <point x="211.52127659574467" y="696.0" type="line" smooth="yes"/>
      <point x="211.52127659574467" y="399.59671179883946"/>
      <point x="487.54255319148933" y="62.63636363636364"/>
      <point x="713.5212765957447" y="62.63636363636364" type="qcurve" smooth="yes"/>
      <point x="939.5" y="62.63636363636364"/>
      <point x="1215.5212765957444" y="399.59671179883946"/>
      <point x="1215.5212765957444" y="696.0" type="qcurve" smooth="yes"/>
      <point x="1215.5212765957444" y="760.0" type="line" smooth="yes"/>
      <point x="1215.5212765957444" y="1057.44584139265"/>
      <point x="939.5" y="1393.3636363636363"/>
      <point x="713.5212765957447" y="1393.3636363636363" type="qcurve" smooth="yes"/>
      <point x="487.54255319148933" y="1393.3636363636363"/>
      <point x="211.52127659574467" y="1057.44584139265"/>
      <point x="211.52127659574467" y="760.0" type="qcurve" smooth="yes"/>
    </contour>
    <contour>
      <point x="1196.882978723404" y="-214.031914893617" type="line"/>
      <point x="908.063829787234" y="13.048355899419729" type="line"/>
      <point x="969.9893617021276" y="75.49516441005802" type="line"/>
      <point x="1261.2021276595742" y="-149.1914893617021" type="line"/>
    </contour>
  </outline>
</glyph>
<glyph name="T" format="2">
  <advance width="1256.9574468085107"/>
  <unicode hex="0054"/>
  <anchor x="537.9574468085107" y="0.0" name="bottom"/>
  <anchor x="537.9574468085107" y="728.0" name="center"/>
  <anchor x="537.9574468085107" y="1456.0" name="top"/>
  <anchor x="537.9574468085107" y="0.0" name="cy_descender"/>
  <outline>
    <contour>
      <point x="580.4361702127659" y="0.0" type="line"/>
      <point x="580.4361702127659" y="1412.5454545454545" type="line"/>
      <point x="675.4787234042553" y="1412.5454545454545" type="line"/>
      <point x="675.4787234042553" y="0.0" type="line"/>
    </contour>
    <contour>
      <point x="24.0" y="1366.6363636363635" type="line"/>
      <point x="24.0" y="1456.0" type="line"/>
      <point x="1232.9574468085107" y="1456.0" type="line"/>
      <point x="1232.9574468085107" y="1366.6363636363635" type="line"/>
    </contour>
  </outline>
</glyph>
<glyph name="U" format="2">
  <advance width="1300.127659574468"/>
  <unicode hex="0055"/>
  <anchor x="585.563829787234" y="0.0" name="bottom"/>
  <anchor x="747.1170212765957" y="0.0" name="ogonek"/>
  <anchor x="585.563829787234" y="1456.0" name="top"/>
  <anchor x="970.0" y="1456.0" name="topright"/>
  <outline>
    <contour>
      <point x="155.0" y="470.0" type="qcurve" smooth="yes"/>
      <point x="155.0" y="1456.0" type="line"/>
      <point x="250.56382978723403" y="1456.0" type="line"/>
      <point x="250.56382978723403" y="470.0" type="line" smooth="yes"/>
      <point x="250.56382978723403" y="266.6847195357833"/>
      <point x="470.1547388781431" y="62.63636363636364"/>
      <point x="650.063829787234" y="62.63636363636364" type="qcurve" smooth="yes"/>
      <point x="829.063829787234" y="62.63636363636364"/>
      <point x="1049.563829787234" y="264.8665377176015"/>
      <point x="1049.563829787234" y="470.0" type="qcurve" smooth="yes"/>
      <point x="1049.563829787234" y="1456.0" type="line"/>
      <point x="1145.127659574468" y="1456.0" type="line"/>
      <point x="1145.127659574468" y="470.0" type="line" smooth="yes"/>
      <point x="1145.127659574468" y="220.0"/>
      <point x="861.6170212765958" y="-30.0"/>
      <point x="650.063829787234" y="-30.0" type="qcurve" smooth="yes"/>
      <point x="438.51063829787233" y="-30.0"/>
      <point x="155.0" y="220.0"/>
    </contour>
  </outline>
</glyph>
<glyph name="V" format="2">
  <advance width="1316.3191489361702"/>
  <unicode hex="0056"/>
  <anchor x="660.1595744680851" y="0.0" name="bottom"/>
  <anchor x="660.1595744680851" y="1456.0" name="top"/>
  <outline>
    <contour>
      <point x="0.0" y="1456.0" type="line"/>
      <point x="101.30851063829785" y="1456.0" type="line"/>
      <point x="610.4042553191489" y="211.23404255319147" type="line" smooth="yes"/>
      <point x="623.9042553191489" y="179.23404255319147"/>
      <point x="648.2446808510638" y="106.94680851063828"/>
      <point x="653.1382978723404" y="77.94680851063828" type="qcurve"/>
      <point x="661.6170212765957" y="77.94680851063828" type="line"/>
      <point x="664.9893617021277" y="106.94680851063828"/>
      <point x="690.2872340425531" y="177.14893617021275"/>
      <point x="704.3085106382978" y="211.23404255319147" type="qcurve" smooth="yes"/>
      <point x="1218.8404255319147" y="1456.0" type="line"/>
      <point x="1316.3191489361702" y="1456.0" type="line"/>
      <point x="700.3510638297871" y="-10.0" type="line"/>
      <point x="616.9680851063829" y="-10.0" type="line"/>
    </contour>
  </outline>
</glyph>
<glyph name="Z" format="2">
  <advance width="1200.4893617021276"/>
  <unicode hex="005A"/>
  <anchor x="536.6170212765958" y="0.0" name="bottom"/>
  <anchor x="536.6170212765958" y="1456.0" name="top"/>
  <outline>
    <contour>
      <point x="21.818181818181817" y="0.0" type="line"/>
      <point x="21.818181818181817" y="78.50290135396519" type="line"/>
      <point x="1019.05415860735" y="1366.6363636363635" type="line"/>
      <point x="125.18181818181817" y="1366.6363636363635" type="line"/>
      <point x="125.18181818181817" y="1456.0" type="line"/>
      <point x="1144.3075435203095" y="1456.0" type="line"/>
      <point x="1144.3075435203095" y="1376.4545454545455" type="line"/>
      <point x="147.91392649903287" y="89.36363636363636" type="line"/>
      <point x="1134.4893617021276" y="89.36363636363636" type="line"/>
      <point x="1134.4893617021276" y="0.0" type="line"/>
    </contour>
  </outline>
</glyph>
<glyph name="a" format="2">
  <advance width="1016.4468085106382"/>
  <unicode hex="0061"/>
  <anchor x="526.0" y="0.0" name="bottom"/>
  <anchor x="895.0851063829787" y="0.0" name="ogonek"/>
  <anchor x="558.8404255319149" y="1052.0" name="top"/>
  <outline>
    <contour>
      <point x="424.3733075435203" y="-20.0" type="qcurve" smooth="yes"/>
      <point x="277.39361702127655" y="-20.0"/>
      <point x="90.0" y="150.0"/>
      <point x="90.0" y="310.0" type="qcurve" smooth="yes"/>
      <point x="90.0" y="470.0"/>
      <point x="306.54255319148933" y="648.0"/>
      <point x="508.69148936170205" y="648.0" type="qcurve" smooth="yes"/>
      <point x="824.8404255319149" y="648.0" type="line"/>
      <point x="824.8404255319149" y="572.8181818181818" type="line"/>
      <point x="511.60058027079305" y="572.8181818181818" type="line" smooth="yes"/>
      <point x="338.2823984526112" y="572.8181818181818"/>
      <point x="183.1914893617021" y="434.5454545454545"/>
      <point x="183.1914893617021" y="314.78723404255317" type="qcurve" smooth="yes"/>
      <point x="183.1914893617021" y="196.36363636363635"/>
      <point x="307.600580270793" y="63.90909090909091"/>
      <point x="437.6914893617021" y="63.90909090909091" type="qcurve" smooth="yes"/>
      <point x="564.600580270793" y="63.90909090909091"/>
      <point x="780.191489361702" y="206.36363636363635"/>
      <point x="780.191489361702" y="293.1818181818182" type="qcurve"/>
      <point x="780.191489361702" y="720.0" type="line" smooth="yes"/>
      <point x="780.1673114119922" y="864.2911025145067"/>
      <point x="663.691489361702" y="998.090909090909"/>
      <point x="520.6914893617021" y="998.090909090909" type="qcurve" smooth="yes"/>
      <point x="382.7369439071566" y="998.090909090909"/>
      <point x="255.6914893617021" y="883.2727272727273"/>
      <point x="255.6914893617021" y="770.0" type="qcurve" smooth="yes"/>
      <point x="255.6914893617021" y="765.0" type="line"/>
      <point x="163.47872340425533" y="765.0" type="line"/>
      <point x="163.47872340425533" y="770.0" type="line" smooth="yes"/>
      <point x="163.47872340425533" y="918.4574468085107"/>
      <point x="353.70212765957444" y="1082.0"/>
      <point x="524.4400386847195" y="1082.0" type="qcurve" smooth="yes"/>
      <point x="696.095744680851" y="1082.0"/>
      <point x="872.8829787234042" y="917.2021276595744"/>
      <point x="872.8829787234042" y="720.0" type="qcurve" smooth="yes"/>
      <point x="872.8829787234042" y="240.0" type="line" smooth="yes"/>
      <point x="872.8829787234042" y="163.01063829787233"/>
      <point x="891.3191489361701" y="61.04255319148936"/>
      <point x="910.8829787234042" y="13.393617021276594" type="qcurve"/>
      <point x="910.8829787234042" y="0.0" type="line"/>
      <point x="824.1914893617021" y="0.0" type="line"/>
      <point x="810.191489361702" y="25.0"/>
      <point x="787.1914893617021" y="105.0"/>
      <point x="782.7823984526112" y="155.90909090909088" type="qcurve"/>
      <point x="751.8375241779497" y="88.7823984526112"/>
      <point x="557.7736943907156" y="-20.0"/>
    </contour>
  </outline>
</glyph>
<glyph name="b" format="2">
  <advance width="1089.2978723404253"/>
  <unicode hex="0062"/>
  <anchor x="475.53191489361694" y="0.0" name="bottom"/>
  <anchor x="463.5425531914893" y="1536.0" name="top"/>
  <outline>
    <contour>
      <point x="148.0" y="0.0" type="line"/>
      <point x="148.0" y="1536.0" type="line"/>
      <point x="240.6914893617021" y="1536.0" type="line"/>
      <point x="240.6914893617021" y="139.27272727272725" type="line"/>
      <point x="235.90425531914894" y="139.27272727272725" type="line"/>
      <point x="232.07446808510633" y="0.0" type="line"/>
    </contour>
    <contour>
      <point x="577.3858800773694" y="66.0909090909091" type="qcurve" smooth="yes"/>
      <point x="738.2969052224371" y="66.0909090909091"/>
      <point x="909.691489361702" y="316.3636363636363"/>
      <point x="909.691489361702" y="508.18181818181813" type="qcurve" smooth="yes"/>
      <point x="909.691489361702" y="545.6363636363636" type="line" smooth="yes"/>
      <point x="909.691489361702" y="745.2485493230174"/>
      <point x="742.7717601547388" y="985.9090909090908"/>
      <point x="577.5193423597678" y="985.9090909090908" type="qcurve" smooth="yes"/>
      <point x="409.6353965183752" y="985.9090909090908"/>
      <point x="220.1063829787234" y="722.8916827852997"/>
      <point x="220.1063829787234" y="553.5454545454545" type="qcurve" smooth="yes"/>
      <point x="220.1063829787234" y="521.0" type="line" smooth="yes"/>
      <point x="220.1063829787234" y="320.9023210831721"/>
      <point x="414.3259187620889" y="66.0909090909091"/>
    </contour>
    <contour>
      <point x="593.1402321083172" y="-20.0" type="qcurve" smooth="yes"/>
      <point x="400.54448742746615" y="-20.0"/>
      <point x="184.38297872340422" y="274.0909090909091"/>
      <point x="184.38297872340422" y="520.0" type="qcurve" smooth="yes"/>
      <point x="184.38297872340422" y="554.0" type="line" smooth="yes"/>
      <point x="184.38297872340422" y="763.0531914893617"/>
      <point x="389.52127659574467" y="1072.0"/>
      <point x="593.5947775628626" y="1072.0" type="qcurve" smooth="yes"/>
      <point x="778.6063829787233" y="1072.0"/>
      <point x="1004.2978723404254" y="786.0744680851062"/>
      <point x="1004.2978723404254" y="542.0" type="qcurve" smooth="yes"/>
      <point x="1004.2978723404254" y="509.99999999999994" type="line" smooth="yes"/>
      <point x="1004.2978723404254" y="276.3510638297872"/>
      <point x="776.4671179883945" y="-20.0"/>
    </contour>
  </outline>
</glyph>
<glyph name="e" format="2">
  <advance width="1011.6170212765957"/>
  <unicode hex="0065"/>
  <anchor x="489.39361702127655" y="0.0" name="bottom"/>
  <anchor x="642.7659574468084" y="0.0" name="ogonek"/>
  <anchor x="467.2127659574468" y="1052.0" name="top"/>
  <outline>
    <contour>
      <point x="84.4787234042553" y="509.99999999999994" type="qcurve" smooth="yes"/>
      <point x="84.4787234042553" y="542.0" type="line" smooth="yes"/>
      <point x="84.4787234042553" y="780.0"/>
      <point x="316.07446808510633" y="1082.0"/>
      <point x="519.0851063829787" y="1082.0" type="qcurve" smooth="yes"/>
      <point x="714.2978723404254" y="1082.0"/>
      <point x="921.191489361702" y="828.1489361702128"/>
      <point x="922.7553191489361" y="610.0425531914893" type="qcurve" smooth="yes"/>
      <point x="922.7553191489361" y="515.3636363636364" type="line"/>
      <point x="141.13829787234042" y="515.3636363636364" type="line"/>
      <point x="141.13829787234042" y="599.2727272727273" type="line"/>
      <point x="829.5851063829787" y="599.2727272727273" type="line"/>
      <point x="829.5851063829787" y="656.0" type="line" smooth="yes"/>
      <point x="829.5851063829787" y="800.9090909090908"/>
      <point x="675.4941972920697" y="995.9090909090909"/>
      <point x="525.448742746615" y="995.9090909090909" type="qcurve" smooth="yes"/>
      <point x="351.72147001934235" y="995.9090909090909"/>
      <point x="179.08510638297872" y="736.3636363636363"/>
      <point x="179.08510638297872" y="542.0" type="qcurve" smooth="yes"/>
      <point x="179.08510638297872" y="509.99999999999994" type="line" smooth="yes"/>
      <point x="179.08510638297872" y="313.3636363636364"/>
      <point x="363.49419729206966" y="56.09090909090908"/>
      <point x="546.4941972920697" y="56.09090909090908" type="qcurve" smooth="yes"/>
      <point x="671.8578336557059" y="56.09090909090908"/>
      <point x="831.2640232108317" y="180.0"/>
      <point x="876.127659574468" y="270.0" type="qcurve"/>
      <point x="925.2234042553191" y="223.47872340425533" type="line"/>
      <point x="881.191489361702" y="119.28723404255318"/>
      <point x="692.2495164410058" y="-30.0"/>
      <point x="542.9941972920697" y="-30.0" type="qcurve" smooth="yes"/>
      <point x="322.8510638297872" y="-30.0"/>
      <point x="84.4787234042553" y="268.3510638297872"/>
    </contour>
  </outline>
</glyph>
<glyph name="f" format="2">
  <advance width="580.627659574468"/>
  <unicode hex="0066"/>
  <anchor x="246.8297872340425" y="0.0" name="bottom"/>
  <anchor x="252.04255319148933" y="1536.0" name="top"/>
  <outline>
    <contour>
      <point x="251.5" y="0.0" type="line"/>
      <point x="251.5" y="1214.0744680851062" type="line" smooth="yes"/>
      <point x="251.5" y="1394.851063829787"/>
      <point x="406.67021276595744" y="1556.0"/>
      <point x="523.9042553191489" y="1556.0" type="qcurve" smooth="yes"/>
      <point x="565.7553191489362" y="1556.0"/>
      <point x="631.2340425531916" y="1547.478723404255"/>
      <point x="658.627659574468" y="1540.0" type="qcurve"/>
      <point x="652.718568665377" y="1455.5880077369438" type="line"/>
      <point x="627.9912959381044" y="1460.9516441005803"/>
      <point x="574.3549323017407" y="1467.8607350096709"/>
      <point x="535.0822050290135" y="1467.8607350096709" type="qcurve" smooth="yes"/>
      <point x="453.4342359767892" y="1467.8607350096709"/>
      <point x="341.6914893617021" y="1353.044487427466"/>
      <point x="344.1914893617021" y="1214.0744680851062" type="qcurve" smooth="yes"/>
      <point x="344.1914893617021" y="1018.8181818181818" type="line"/>
      <point x="344.1914893617021" y="1005.9090909090908" type="line"/>
      <point x="344.1914893617021" y="0.0" type="line"/>
    </contour>
    <contour>
      <point x="25.0" y="971.3636363636363" type="line"/>
      <point x="25.0" y="1052.0" type="line"/>
      <point x="305.531914893617" y="1052.0" type="line"/>
      <point x="328.59574468085106" y="1052.0" type="line"/>
      <point x="620.627659574468" y="1052.0" type="line"/>
      <point x="620.627659574468" y="971.3636363636363" type="line"/>
    </contour>
  </outline>
</glyph>
<glyph name="g" format="2">
  <advance width="1089.81914893617"/>
  <unicode hex="0067"/>
  <anchor x="481.26595744680844" y="-416.0" name="bottom"/>
  <anchor x="472.4042553191489" y="1052.0" name="top"/>
  <outline>
    <contour>
      <point x="515.651837524178" y="-436.0" type="qcurve" smooth="yes"/>
      <point x="384.60638297872333" y="-436.0"/>
      <point x="182.93617021276594" y="-329.1489361702128"/>
      <point x="116.18085106382978" y="-212.063829787234" type="qcurve"/>
      <point x="175.31914893617022" y="-144.0" type="line"/>
      <point x="225.2630560928433" y="-249.00773694390716"/>
      <point x="397.21083172146996" y="-344.45454545454544"/>
      <point x="516.4245647969053" y="-344.45454545454544" type="qcurve" smooth="yes"/>
      <point x="673.1972920696325" y="-344.45454545454544"/>
      <point x="848.6063829787233" y="-165.45454545454544"/>
      <point x="848.6063829787233" y="20.0" type="qcurve" smooth="yes"/>
      <point x="848.6063829787233" y="915.0" type="line"/>
      <point x="850.3936170212766" y="915.0" type="line"/>
      <point x="854.2234042553191" y="1052.0" type="line"/>
      <point x="941.2978723404254" y="1052.0" type="line"/>
      <point x="941.2978723404254" y="20.0" type="line" smooth="yes"/>
      <point x="941.2978723404254" y="-217.20212765957444"/>
      <point x="709.8297872340424" y="-436.0"/>
    </contour>
    <contour>
      <point x="517.8085106382978" y="66.0909090909091" type="qcurve" smooth="yes"/>
      <point x="684.3945841392649" y="66.0909090909091"/>
      <point x="868.8510638297871" y="322.6905222437137"/>
      <point x="868.8510638297871" y="512.3829787234042" type="qcurve" smooth="yes"/>
      <point x="868.8510638297871" y="540.3829787234042" type="line" smooth="yes"/>
      <point x="868.8510638297871" y="736.8945841392649"/>
      <point x="673.0029013539652" y="985.9090909090908"/>
      <point x="516.7659574468084" y="985.9090909090908" type="qcurve" smooth="yes"/>
      <point x="350.0096711798839" y="985.9090909090908"/>
      <point x="179.6063829787234" y="750.5328820116054"/>
      <point x="179.6063829787234" y="542.0" type="qcurve" smooth="yes"/>
      <point x="179.6063829787234" y="509.99999999999994" type="line" smooth="yes"/>
      <point x="179.6063829787234" y="318.6905222437137"/>
      <point x="348.1914893617021" y="66.0909090909091"/>
    </contour>
    <contour>
      <point x="499.6237911025145" y="-20.0" type="qcurve" smooth="yes"/>
      <point x="309.54255319148933" y="-20.0"/>
      <point x="85.0" y="276.3510638297872"/>
      <point x="85.0" y="509.99999999999994" type="qcurve" smooth="yes"/>
      <point x="85.0" y="542.0" type="line" smooth="yes"/>
      <point x="85.0" y="786.0744680851062"/>
      <point x="310.5851063829787" y="1072.0"/>
      <point x="498.7147001934236" y="1072.0" type="qcurve" smooth="yes"/>
      <point x="694.0154738878143" y="1072.0"/>
      <point x="904.5744680851063" y="766.9148936170213"/>
      <point x="904.5744680851063" y="542.9893617021277" type="qcurve" smooth="yes"/>
      <point x="904.5744680851063" y="512.8191489361701" type="line" smooth="yes"/>
      <point x="904.5744680851063" y="285.6489361702128"/>
      <point x="700.9680851063829" y="-20.0"/>
    </contour>
  </outline>
</glyph>
<glyph name="n" format="2">
  <advance width="1043.8829787234042"/>
  <unicode hex="006E"/>
  <anchor x="486.1170212765957" y="0.0" name="bottom"/>
  <anchor x="486.1170212765957" y="1052.0" name="top"/>
  <anchor x="767.2978723404254" y="0.0" name="engtail"/>
  <outline>
    <contour>
      <point x="148.0" y="0.0" type="line"/>
      <point x="148.0" y="1052.0" type="line"/>
      <point x="232.07446808510633" y="1052.0" type="line"/>
      <point x="240.6914893617021" y="818.8665377176014" type="line"/>
      <point x="240.6914893617021" y="0.0" type="line"/>
    </contour>
    <contour>
      <point x="194.6063829787234" y="732.4477756286267" type="qcurve"/>
      <point x="194.6063829787234" y="834.6170212765957" type="line"/>
      <point x="260.2659574468085" y="948.2127659574468"/>
      <point x="464.9893617021276" y="1072.0"/>
      <point x="601.3936170212766" y="1072.0" type="qcurve" smooth="yes"/>
      <point x="743.9255319148936" y="1072.0"/>
      <point x="905.8829787234042" y="910.8085106382978"/>
      <point x="905.8829787234042" y="693.0744680851064" type="qcurve" smooth="yes"/>
      <point x="905.8829787234042" y="0.0" type="line"/>
      <point x="813.191489361702" y="0.0" type="line"/>
      <point x="813.191489361702" y="694.5531914893618" type="line" smooth="yes"/>
      <point x="813.191489361702" y="859.3268858800773"/>
      <point x="694.0764023210832" y="983.7272727272726"/>
      <point x="579.3733075435202" y="983.7272727272726" type="qcurve" smooth="yes"/>
      <point x="459.98549323017403" y="983.7272727272726"/>
      <point x="269.4023210831721" y="858.1557059961315"/>
    </contour>
  </outline>
</glyph>
<glyph name="p" format="2">
  <advance width="1089.2978723404253"/>
  <unicode hex="0070"/>
  <anchor x="495.52127659574467" y="0.0" name="bottom"/>
  <anchor x="495.52127659574467" y="1052.0" name="top"/>
  <outline>
    <contour>
      <point x="148.0" y="-416.0" type="line"/>
      <point x="148.0" y="1052.0" type="line"/>
      <point x="232.07446808510633" y="1052.0" type="line"/>
      <point x="235.90425531914894" y="915.0" type="line"/>
      <point x="240.6914893617021" y="915.0" type="line"/>
      <point x="240.6914893617021" y="-416.0" type="line"/>
    </contour>
    <contour>
      <point x="575.8858800773694" y="66.0909090909091" type="qcurve" smooth="yes"/>
      <point x="736.2969052224371" y="66.0909090909091"/>
      <point x="909.691489361702" y="316.3636363636363"/>
      <point x="909.691489361702" y="508.18181818181813" type="qcurve" smooth="yes"/>
      <point x="909.691489361702" y="545.6363636363636" type="line" smooth="yes"/>
      <point x="909.691489361702" y="745.2485493230174"/>
      <point x="740.7717601547388" y="985.9090909090908"/>
      <point x="576.0193423597678" y="985.9090909090908" type="qcurve" smooth="yes"/>
      <point x="409.1353965183752" y="985.9090909090908"/>
      <point x="220.1063829787234" y="722.8916827852997"/>
      <point x="220.1063829787234" y="551.2727272727273" type="qcurve" smooth="yes"/>
      <point x="220.1063829787234" y="521.0" type="line" smooth="yes"/>
      <point x="220.1063829787234" y="320.9023210831721"/>
      <point x="413.8259187620889" y="66.0909090909091"/>
    </contour>
    <contour>
      <point x="593.1402321083172" y="-20.0" type="qcurve" smooth="yes"/>
      <point x="400.54448742746615" y="-20.0"/>
      <point x="184.38297872340422" y="274.0909090909091"/>
      <point x="184.38297872340422" y="520.0" type="qcurve" smooth="yes"/>
      <point x="184.38297872340422" y="554.0" type="line" smooth="yes"/>
      <point x="184.38297872340422" y="758.7446808510638"/>
      <point x="392.4148936170212" y="1072.0"/>
      <point x="593.5947775628626" y="1072.0" type="qcurve" smooth="yes"/>
      <point x="778.1063829787233" y="1072.0"/>
      <point x="1004.2978723404254" y="786.0744680851062"/>
      <point x="1004.2978723404254" y="542.0" type="qcurve" smooth="yes"/>
      <point x="1004.2978723404254" y="509.99999999999994" type="line" smooth="yes"/>
      <point x="1004.2978723404254" y="276.3510638297872"/>
      <point x="775.9671179883945" y="-20.0"/>
    </contour>
  </outline>
</glyph>
<glyph name="q" format="2">
  <advance width="1087.7340425531913"/>
  <unicode hex="0071"/>
  <anchor x="475.53191489361694" y="0.0" name="bottom"/>
  <anchor x="475.53191489361694" y="1052.0" name="top"/>
  <outline>
    <contour>
      <point x="848.6063829787233" y="-416.0" type="line"/>
      <point x="848.6063829787233" y="765.3936170212766" type="line"/>
      <point x="853.3936170212766" y="765.3936170212766" type="line"/>
      <point x="857.2234042553191" y="1052.0" type="line"/>
      <point x="941.2978723404254" y="1052.0" type="line"/>
      <point x="941.2978723404254" y="-416.0" type="line"/>
    </contour>
    <contour>
      <point x="513.8665377176015" y="66.0909090909091" type="qcurve" smooth="yes"/>
      <point x="675.095744680851" y="66.0909090909091"/>
      <point x="868.7369439071566" y="315.3133462282398"/>
      <point x="868.7369439071566" y="503.9090909090909" type="qcurve" smooth="yes"/>
      <point x="868.7369439071566" y="531.4545454545455" type="line" smooth="yes"/>
      <point x="868.7369439071566" y="723.5580270793037"/>
      <point x="677.544487427466" y="985.9090909090908"/>
      <point x="512.8239845261122" y="985.9090909090908" type="qcurve" smooth="yes"/>
      <point x="348.07156673114116" y="985.9090909090908"/>
      <point x="179.15183752417795" y="745.2485493230174"/>
      <point x="179.15183752417795" y="545.6363636363636" type="qcurve" smooth="yes"/>
      <point x="179.15183752417795" y="508.18181818181813" type="line" smooth="yes"/>
      <point x="179.15183752417795" y="316.3636363636363"/>
      <point x="352.5464216634429" y="66.0909090909091"/>
    </contour>
    <contour>
      <point x="496.2030947775628" y="-20.0" type="qcurve" smooth="yes"/>
      <point x="312.37620889748547" y="-20.0"/>
      <point x="84.54545454545453" y="276.3510638297872"/>
      <point x="84.54545454545453" y="509.99999999999994" type="qcurve" smooth="yes"/>
      <point x="84.54545454545453" y="542.0" type="line" smooth="yes"/>
      <point x="84.54545454545453" y="786.0744680851062"/>
      <point x="310.2369439071567" y="1072.0"/>
      <point x="495.74854932301736" y="1072.0" type="qcurve" smooth="yes"/>
      <point x="695.8558994197292" y="1072.0"/>
      <point x="904.4603481624757" y="758.8413926499032"/>
      <point x="904.4603481624757" y="531.4545454545455" type="qcurve" smooth="yes"/>
      <point x="904.4603481624757" y="503.95744680851055" type="line" smooth="yes"/>
      <point x="904.4603481624757" y="274.50193423597676"/>
      <point x="689.4680851063829" y="-20.0"/>
    </contour>
  </outline>
</glyph>
<glyph name="r" format="2">
  <advance width="670.1489361702127"/>
  <unicode hex="0072"/>
  <anchor x="291.6170212765957" y="0.0" name="bottom"/>
  <anchor x="358.6170212765957" y="1052.0" name="top"/>
  <outline>
    <contour>
      <point x="148.0" y="0.0" type="line"/>
      <point x="148.0" y="1052.0" type="line"/>
      <point x="232.07446808510633" y="1052.0" type="line"/>
      <point x="240.6914893617021" y="913.7504835589941" type="line"/>
      <point x="240.6914893617021" y="0.0" type="line"/>
    </contour>
    <contour>
      <point x="194.08510638297872" y="720.3036750483559" type="qcurve"/>
      <point x="194.08510638297872" y="827.6489361702128" type="line"/>
      <point x="270.7127659574468" y="978.4574468085107"/>
      <point x="446.92553191489355" y="1082.0"/>
      <point x="548.6489361702127" y="1082.0" type="qcurve" smooth="yes"/>
      <point x="574.1489361702127" y="1082.0"/>
      <point x="625.4671179883946" y="1073.3636363636365"/>
      <point x="640.1489361702127" y="1068.0" type="qcurve"/>
      <point x="640.1489361702127" y="971.0" type="line"/>
      <point x="618.5125725338492" y="976.3636363636363"/>
      <point x="569.3762088974854" y="981.7272727272727"/>
      <point x="541.1943907156673" y="981.7272727272727" type="qcurve" smooth="yes"/>
      <point x="434.67988394584137" y="981.7272727272727"/>
      <point x="273.03288201160535" y="877.068665377176"/>
    </contour>
  </outline>
</glyph>
<glyph name="s" format="2">
  <advance width="918.4468085106382"/>
  <unicode hex="0073"/>
  <anchor x="425.2446808510638" y="0.0" name="bottom"/>
  <anchor x="421.07446808510633" y="1052.0" name="top"/>
  <outline>
    <contour>
      <point x="80.0" y="310.0" type="line"/>
      <point x="172.6914893617021" y="310.0" type="line"/>
      <point x="172.6914893617021" y="305.0" type="line" smooth="yes"/>
      <point x="172.6914893617021" y="177.63636363636363"/>
      <point x="332.6914893617021" y="56.09090909090908"/>
      <point x="464.1914893617021" y="56.09090909090908" type="qcurve" smooth="yes"/>
      <point x="595.1914893617021" y="56.09090909090908"/>
      <point x="747.1914893617021" y="173.63636363636363"/>
      <point x="747.1914893617021" y="280.0" type="qcurve" smooth="yes"/>
      <point x="747.1914893617021" y="360.9468085106383"/>
      <point x="636.1382978723404" y="470.3936170212766"/>
      <point x="449.8191489361702" y="508.82978723404256" type="qcurve" smooth="yes"/>
      <point x="253.59574468085103" y="547.7872340425531"/>
      <point x="103.95744680851064" y="682.8404255319149"/>
      <point x="103.95744680851064" y="785.2127659574468" type="qcurve" smooth="yes"/>
      <point x="103.95744680851064" y="916.7765957446808"/>
      <point x="282.6382978723404" y="1081.5"/>
      <point x="444.1914893617021" y="1082.0" type="qcurve" smooth="yes"/>
      <point x="627.8085106382978" y="1082.5"/>
      <point x="794.9042553191489" y="916.563829787234"/>
      <point x="794.9042553191489" y="767.5851063829787" type="qcurve" smooth="yes"/>
      <point x="794.9042553191489" y="760.5" type="line"/>
      <point x="702.6914893617021" y="760.5" type="line"/>
      <point x="702.6914893617021" y="769.5" type="line" smooth="yes"/>
      <point x="702.6914893617021" y="874.9545454545454"/>
      <point x="579.7340425531914" y="996.4090909090909"/>
      <point x="443.1914893617021" y="995.9090909090909" type="qcurve" smooth="yes"/>
      <point x="313.75822050290134" y="995.4090909090909"/>
      <point x="199.19148936170208" y="881.3181818181818"/>
      <point x="199.19148936170208" y="789.5" type="qcurve" smooth="yes"/>
      <point x="199.19148936170208" y="721.6808510638298"/>
      <point x="315.531914893617" y="627.1382978723404"/>
      <point x="501.2127659574468" y="588.1808510638298" type="qcurve" smooth="yes"/>
      <point x="680.095744680851" y="549.2234042553191"/>
      <point x="838.4468085106382" y="400.30851063829783"/>
      <point x="838.4468085106382" y="284.28723404255317" type="qcurve" smooth="yes"/>
      <point x="838.4468085106382" y="138.031914893617"/>
      <point x="642.627659574468" y="-30.5"/>
      <point x="470.1914893617021" y="-30.5" type="qcurve" smooth="yes"/>
      <point x="298.2765957446808" y="-30.5"/>
      <point x="80.0" y="141.01063829787233"/>
      <point x="80.0" y="305.0" type="qcurve" smooth="yes"/>
    </contour>
  </outline>
</glyph>
<glyph name="u" format="2">
  <advance width="1043.8829787234042"/>
  <unicode hex="0075"/>
  <anchor x="469.9574468085106" y="0.0" name="bottom"/>
  <anchor x="797.0319148936169" y="0.0" name="ogonek"/>
  <anchor x="469.9574468085106" y="1052.0" name="top"/>
  <anchor x="759.6489361702127" y="1052.0" name="topright"/>
  <anchor x="757.2127659574467" y="0.0" name="cy_descender"/>
  <outline>
    <contour>
      <point x="425.48936170212767" y="-20.0" type="qcurve" smooth="yes"/>
      <point x="276.9574468085106" y="-20.0"/>
      <point x="138.0" y="141.1914893617021"/>
      <point x="138.0" y="358.92553191489355" type="qcurve" smooth="yes"/>
      <point x="138.0" y="1052.0" type="line"/>
      <point x="230.6914893617021" y="1052.0" type="line"/>
      <point x="230.6914893617021" y="357.4468085106383" type="line" smooth="yes"/>
      <point x="230.6914893617021" y="192.6731141199226"/>
      <point x="350.30657640232107" y="68.27272727272727"/>
      <point x="464.5096711798839" y="68.27272727272727" type="qcurve" smooth="yes"/>
      <point x="574.3974854932301" y="68.27272727272727"/>
      <point x="748.480657640232" y="167.84429400386844"/>
      <point x="849.2765957446808" y="293.5522243713733" type="qcurve"/>
      <point x="849.2765957446808" y="194.38297872340422" type="line"/>
      <point x="750.1170212765958" y="71.7872340425532"/>
      <point x="536.3936170212766" y="-20.0"/>
    </contour>
    <contour>
      <point x="811.8085106382978" y="0.0" type="line"/>
      <point x="803.191489361702" y="278.715667311412" type="line"/>
      <point x="803.191489361702" y="1052.0" type="line"/>
      <point x="895.8829787234042" y="1052.0" type="line"/>
      <point x="895.8829787234042" y="0.0" type="line"/>
    </contour>
  </outline>
</glyph>
<glyph name="guillemotleft" format="2">
  <advance width="992.9574468085107"/>
  <unicode hex="00AB"/>
  <guideline y="901.0" identifier="ZftBQarVKw"/>
  <guideline y="555.0" identifier="MVJpdoVRVd"/>
  <outline>
    <contour>
      <point x="108.0" y="532.4255319148936" type="line"/>
      <point x="108.0" y="570.5744680851063" type="line"/>
      <point x="303.9574468085106" y="949.0" type="line"/>
      <point x="465.9574468085106" y="949.0" type="line"/>
      <point x="207.9574468085106" y="551.0" type="line"/>
      <point x="465.9574468085106" y="153.0" type="line"/>
      <point x="303.9574468085106" y="153.0" type="line"/>
    </contour>
    <contour>
      <point x="548.0" y="532.4255319148936" type="line"/>
      <point x="548.0" y="570.5744680851063" type="line"/>
      <point x="743.9574468085107" y="949.0" type="line"/>
      <point x="905.9574468085107" y="949.0" type="line"/>
      <point x="647.9574468085107" y="551.0" type="line"/>
      <point x="905.9574468085107" y="153.0" type="line"/>
      <point x="743.9574468085107" y="153.0" type="line"/>
    </contour>
  </outline>
</glyph>
<glyph name="logicalnot" format="2">
  <advance width="933.2978723404254"/>
  <unicode hex="00AC"/>
  <outline>
    <contour>
      <point x="837.2978723404256" y="801.0" type="line"/>
      <point x="837.2978723404256" y="376.0" type="line"/>
      <point x="748.4361702127659" y="376.0" type="line"/>
      <point x="748.4361702127659" y="637.0" type="line"/>
      <point x="58.0" y="637.0" type="line"/>
      <point x="58.0" y="801.0" type="line"/>
    </contour>
  </outline>
</glyph>
<glyph name="threesuperior" format="2">
  <advance width="588.8829787234042"/>
  <unicode hex="00B3"/>
  <outline>
    <contour>
      <point x="63.0" y="920.0" type="qcurve" smooth="yes"/>
      <point x="63.0" y="922.9999999999999" type="line"/>
      <point x="141.80851063829786" y="922.9999999999999" type="line"/>
      <point x="141.80851063829786" y="920.0" type="line" smooth="yes"/>
      <point x="141.80851063829786" y="845.9090909090909"/>
      <point x="219.99032882011602" y="764.4545454545455"/>
      <point x="287.80851063829783" y="764.4545454545455" type="qcurve" smooth="yes"/>
      <point x="354.5357833655706" y="764.4545454545455"/>
      <point x="420.8085106382979" y="847.3636363636363"/>
      <point x="420.8085106382979" y="922.9148936170212" type="qcurve" smooth="yes"/>
      <point x="420.8085106382979" y="990.2727272727273"/>
      <point x="344.3539651837524" y="1057.090909090909"/>
      <point x="271.80851063829783" y="1057.6363636363635" type="qcurve" smooth="yes"/>
      <point x="187.80851063829786" y="1057.6363636363635" type="line"/>
      <point x="187.80851063829786" y="1127.3636363636363" type="line"/>
      <point x="271.80851063829783" y="1127.3636363636363" type="line" smooth="yes"/>
      <point x="341.08123791102514" y="1127.3636363636363"/>
      <point x="407.8085106382979" y="1194.7272727272725"/>
      <point x="407.8085106382979" y="1256.5638297872338" type="qcurve" smooth="yes"/>
      <point x="407.8085106382979" y="1328.090909090909"/>
      <point x="349.26305609284327" y="1408.5454545454545"/>
      <point x="284.8085106382979" y="1408.5454545454545" type="qcurve" smooth="yes"/>
      <point x="224.62669245647967" y="1408.5454545454545"/>
      <point x="152.80851063829786" y="1328.5454545454545"/>
      <point x="152.80851063829786" y="1256.0" type="qcurve" smooth="yes"/>
      <point x="152.80851063829786" y="1252.0" type="line"/>
      <point x="74.0" y="1252.0" type="line"/>
      <point x="74.0" y="1256.0" type="line" smooth="yes"/>
      <point x="74.0" y="1357.0"/>
      <point x="195.64893617021278" y="1487.0"/>
      <point x="280.2446808510638" y="1487.0" type="qcurve" smooth="yes"/>
      <point x="373.23404255319144" y="1487.0"/>
      <point x="492.8404255319149" y="1372.0"/>
      <point x="492.8404255319149" y="1260.3936170212764" type="qcurve" smooth="yes"/>
      <point x="492.8404255319149" y="1212.0"/>
      <point x="441.3085106382979" y="1119.4787234042553"/>
      <point x="393.81914893617017" y="1097.9999999999998" type="qcurve"/>
      <point x="393.81914893617017" y="1097.0" type="line"/>
      <point x="450.9148936170212" y="1073.0"/>
      <point x="504.8829787234042" y="980.9999999999999"/>
      <point x="504.8829787234042" y="919.0851063829787" type="qcurve" smooth="yes"/>
      <point x="504.8829787234042" y="807.0"/>
      <point x="375.7978723404255" y="686.0"/>
      <point x="281.24468085106383" y="686.0" type="qcurve" smooth="yes"/>
      <point x="184.21276595744678" y="686.0"/>
      <point x="63.0" y="802.0"/>
    </contour>
  </outline>
</glyph>
<glyph name="micro" format="2">
  <advance width="1011.3829787234042"/>
  <unicode hex="00B5"/>
  <outline>
    <contour>
      <point x="242.0" y="1052.0" type="line"/>
      <point x="334.6914893617021" y="1052.0" type="line"/>
      <point x="202.6914893617021" y="371.0" type="line" smooth="yes"/>
      <point x="177.6914893617021" y="245.0"/>
      <point x="232.41876208897483" y="68.27272727272727"/>
      <point x="336.41876208897486" y="68.27272727272727" type="qcurve" smooth="yes"/>
      <point x="429.96421663442936" y="68.27272727272727"/>
      <point x="604.509671179884" y="163.8181818181818"/>
      <point x="657.509671179884" y="242.0909090909091" type="qcurve"/>
      <point x="814.691489361702" y="1052.0" type="line"/>
      <point x="907.3829787234041" y="1052.0" type="line"/>
      <point x="703.9042553191489" y="0.0" type="line"/>
      <point x="619.8297872340426" y="0.0" type="line"/>
      <point x="642.0" y="135.0" type="line"/>
      <point x="639.127659574468" y="135.0" type="line"/>
      <point x="569.1702127659574" y="62.47872340425532"/>
      <point x="388.6914893617021" y="-20.0"/>
      <point x="288.6914893617021" y="-20.0" type="qcurve" smooth="yes"/>
      <point x="242.6914893617021" y="-20.0"/>
      <point x="167.6914893617021" y="15.0"/>
      <point x="138.6914893617021" y="42.0" type="qcurve"/>
      <point x="50.69148936170211" y="-416.0" type="line"/>
      <point x="-42.0" y="-416.0" type="line"/>
    </contour>
  </outline>
</glyph>
<glyph name="paragraph" format="2">
  <advance width="1104.6170212765956"/>
  <unicode hex="00B6"/>
  <guideline y="901.0" identifier="27539Lsr1A"/>
  <guideline y="555.0" identifier="e34wUdCmXR"/>
  <outline>
    <contour>
      <point x="576.6170212765958" y="-146.0" type="line"/>
      <point x="390.61702127659566" y="-146.0" type="line"/>
      <point x="390.61702127659566" y="937.8723404255319" type="line"/>
      <point x="331.2446808510638" y="937.8723404255319" type="line" smooth="yes"/>
      <point x="198.27659574468083" y="937.8723404255319"/>
      <point x="56.0" y="1085.063829787234"/>
      <point x="56.0" y="1196.9361702127658" type="qcurve" smooth="yes"/>
      <point x="56.0" y="1307.3297872340424"/>
      <point x="198.27659574468083" y="1456.0"/>
      <point x="331.2446808510638" y="1456.0" type="qcurve" smooth="yes"/>
      <point x="576.6170212765958" y="1456.0" type="line"/>
    </contour>
    <contour>
      <point x="718.6170212765957" y="1459.0" type="line"/>
      <point x="904.6170212765957" y="1459.0" type="line"/>
      <point x="904.6170212765957" y="-146.0" type="line"/>
      <point x="718.6170212765957" y="-146.0" type="line"/>
    </contour>
  </outline>
</glyph>
<glyph name="onesuperior" format="2">
  <advance width="668.6382978723404"/>
  <unicode hex="00B9"/>
  <outline>
    <contour>
      <point x="123.0" y="1308.3733075435202" type="line"/>
      <point x="123.0" y="1399.191489361702" type="line"/>
      <point x="374.6382978723404" y="1486.0" type="line"/>
      <point x="418.63829787234044" y="1486.0" type="line"/>
      <point x="418.63829787234044" y="697.0" type="line"/>
      <point x="337.43617021276594" y="697.0" type="line"/>
      <point x="337.43617021276594" y="1385.3733075435202" type="line"/>
    </contour>
  </outline>
</glyph>
<glyph name="guillemotright" format="2">
  <advance width="992.9574468085107"/>
  <unicode hex="00BB"/>
  <guideline y="98.0" identifier="MTEldNnfdj"/>
  <guideline y="443.0" identifier="G9bQni2n1K"/>
  <outline>
    <contour>
      <point x="87.0" y="153.0" type="line"/>
      <point x="345.0" y="551.0" type="line"/>
      <point x="87.0" y="949.0" type="line"/>
      <point x="249.0" y="949.0" type="line"/>
      <point x="444.95744680851055" y="570.5744680851063" type="line"/>
      <point x="444.95744680851055" y="532.4255319148936" type="line"/>
      <point x="249.0" y="153.0" type="line"/>
    </contour>
    <contour>
      <point x="527.0" y="153.0" type="line"/>
      <point x="785.0" y="551.0" type="line"/>
      <point x="527.0" y="949.0" type="line"/>
      <point x="689.0" y="949.0" type="line"/>
      <point x="884.9574468085106" y="570.5744680851063" type="line"/>
      <point x="884.9574468085106" y="532.4255319148936" type="line"/>
      <point x="689.0" y="153.0" type="line"/>
    </contour>
  </outline>
</glyph>
<glyph name="questiondown" format="2">
  <advance width="780.8617021276596"/>
  <unicode hex="00BF"/>
  <guideline y="-181.0" identifier="apukwP5ffL"/>
  <guideline y="921.0" identifier="5ZPZZL8Rim"/>
  <outline>
    <contour>
      <point x="503.6063829787234" y="1046.8297872340424" type="qcurve" smooth="yes"/>
      <point x="503.6063829787234" y="1018.1595744680851"/>
      <point x="466.1914893617021" y="977.3510638297872"/>
      <point x="431.2127659574468" y="977.3510638297872" type="qcurve" smooth="yes"/>
      <point x="396.23404255319144" y="977.3510638297872"/>
      <point x="358.8191489361702" y="1018.1595744680851"/>
      <point x="358.8191489361702" y="1046.8297872340424" type="qcurve" smooth="yes"/>
      <point x="358.8191489361702" y="1075.5"/>
      <point x="396.23404255319144" y="1116.3085106382978"/>
      <point x="431.2127659574468" y="1116.3085106382978" type="qcurve" smooth="yes"/>
      <point x="466.1914893617021" y="1116.3085106382978"/>
      <point x="503.6063829787234" y="1075.5"/>
    </contour>
    <contour>
      <point x="720.8617021276594" y="53.0" type="line"/>
      <point x="720.8617021276594" y="33.0" type="line" smooth="yes"/>
      <point x="720.8617021276594" y="-132.0"/>
      <point x="550.9042553191489" y="-328.0"/>
      <point x="404.6914893617021" y="-328.0" type="qcurve" smooth="yes"/>
      <point x="259.0" y="-328.0"/>
      <point x="94.0" y="-121.99999999999999"/>
      <point x="94.0" y="48.0" type="qcurve" smooth="yes"/>
      <point x="94.0" y="180.9574468085106"/>
      <point x="198.2127659574468" y="349.3404255319149"/>
      <point x="274.9042553191489" y="422.20212765957444" type="qcurve" smooth="yes"/>
      <point x="351.563829787234" y="495.031914893617"/>
      <point x="392.563829787234" y="613.6914893617021"/>
      <point x="392.563829787234" y="696.7234042553191" type="qcurve" smooth="yes"/>
      <point x="392.563829787234" y="738.0" type="line"/>
      <point x="485.25531914893617" y="738.0" type="line"/>
      <point x="485.25531914893617" y="696.7234042553191" type="line" smooth="yes"/>
      <point x="485.25531914893617" y="587.3617021276596"/>
      <point x="434.8085106382979" y="461.60638297872333"/>
      <point x="351.3191489361702" y="377.51063829787233" type="qcurve" smooth="yes"/>
      <point x="268.7978723404255" y="295.468085106383"/>
      <point x="186.6914893617021" y="164.1595744680851"/>
      <point x="186.6914893617021" y="48.0" type="qcurve" smooth="yes"/>
      <point x="186.6914893617021" y="-87.45454545454545"/>
      <point x="295.92166344294003" y="-236.45454545454544"/>
      <point x="403.6489361702127" y="-236.45454545454544" type="qcurve" smooth="yes"/>
      <point x="512.7398452611218" y="-236.45454545454544"/>
      <point x="628.6489361702127" y="-96.54545454545453"/>
      <point x="628.6489361702127" y="33.0" type="qcurve" smooth="yes"/>
      <point x="628.6489361702127" y="53.0" type="line"/>
    </contour>
  </outline>
</glyph>
<glyph name="Thorn" format="2">
  <advance width="984.4255319148934"/>
  <unicode hex="00DE"/>
  <guideline y="901.0" identifier="i9jYwjBDP4"/>
  <guideline y="555.0" identifier="T8KKW8oxop"/>
  <outline>
    <contour>
      <point x="170.0" y="0.0" type="line"/>
      <point x="170.0" y="1456.0" type="line"/>
      <point x="262.2127659574468" y="1456.0" type="line"/>
      <point x="262.2127659574468" y="0.0" type="line"/>
    </contour>
    <contour>
      <point x="222.8723404255319" y="314.52127659574467" type="line"/>
      <point x="222.8723404255319" y="399.5454545454545" type="line"/>
      <point x="540.2127659574468" y="399.5454545454545" type="line" smooth="yes"/>
      <point x="693.8491295938104" y="399.5454545454545"/>
      <point x="842.2127659574468" y="573.090909090909"/>
      <point x="842.2127659574468" y="737.0425531914893" type="qcurve" smooth="yes"/>
      <point x="842.2127659574468" y="899.8181818181818"/>
      <point x="693.8491295938104" y="1077.4545454545453"/>
      <point x="540.2127659574468" y="1077.4545454545453" type="qcurve" smooth="yes"/>
      <point x="222.8723404255319" y="1077.4545454545453" type="line"/>
      <point x="222.8723404255319" y="1163.0" type="line"/>
      <point x="523.0106382978722" y="1163.0" type="line" smooth="yes"/>
      <point x="721.0" y="1163.0"/>
      <point x="934.4255319148936" y="935.5212765957447"/>
      <point x="934.4255319148936" y="738.0" type="qcurve" smooth="yes"/>
      <point x="934.4255319148936" y="541.5212765957447"/>
      <point x="721.0" y="314.52127659574467"/>
      <point x="523.0106382978722" y="314.52127659574467" type="qcurve" smooth="yes"/>
    </contour>
  </outline>
</glyph>
<glyph name="divide" format="2">
  <advance width="1024.0"/>
  <unicode hex="00F7"/>
  <outline>
    <contour>
      <point x="438.6489361702127" y="1014.9574468085104" type="qcurve" smooth="yes"/>
      <point x="438.6489361702127" y="1046.063829787234"/>
      <point x="475.0638297872341" y="1086.872340425532"/>
      <point x="511.52127659574467" y="1086.872340425532" type="qcurve" smooth="yes"/>
      <point x="546.9787234042553" y="1086.872340425532"/>
      <point x="584.8723404255319" y="1046.063829787234"/>
      <point x="584.8723404255319" y="1014.9574468085104" type="qcurve" smooth="yes"/>
      <point x="584.8723404255319" y="985.3297872340424"/>
      <point x="546.9787234042553" y="945.0"/>
      <point x="511.52127659574467" y="945.0" type="qcurve" smooth="yes"/>
      <point x="475.0638297872341" y="945.0"/>
      <point x="438.6489361702127" y="985.3297872340424"/>
    </contour>
    <contour>
      <point x="438.6489361702127" y="339.0851063829787" type="qcurve" smooth="yes"/>
      <point x="438.6489361702127" y="369.7127659574468"/>
      <point x="475.0638297872341" y="411.0"/>
      <point x="511.52127659574467" y="411.0" type="qcurve" smooth="yes"/>
      <point x="546.9787234042553" y="411.0"/>
      <point x="584.8723404255319" y="369.7127659574468"/>
      <point x="584.8723404255319" y="339.0851063829787" type="qcurve" smooth="yes"/>
      <point x="584.8723404255319" y="309.4574468085106"/>
      <point x="546.9787234042553" y="268.6489361702128"/>
      <point x="511.52127659574467" y="268.6489361702128" type="qcurve" smooth="yes"/>
      <point x="475.0638297872341" y="268.6489361702128"/>
      <point x="438.6489361702127" y="309.4574468085106"/>
    </contour>
    <contour>
      <point x="56.99999999999999" y="588.0" type="line"/>
      <point x="56.99999999999999" y="760.0" type="line"/>
      <point x="966.9999999999999" y="760.0" type="line"/>
      <point x="966.9999999999999" y="588.0" type="line"/>
    </contour>
  </outline>
</glyph>
<glyph name="OE" format="2">
  <advance width="1682.478723404255"/>
  <unicode hex="0152"/>
  <outline>
    <contour>
      <point x="607.8829787234042" y="-21.0" type="qcurve" smooth="yes"/>
      <point x="419.42553191489355" y="-21.0"/>
      <point x="115.0" y="353.55319148936167"/>
      <point x="115.0" y="708.063829787234" type="qcurve" smooth="yes"/>
      <point x="115.0" y="756.8829787234042" type="line" smooth="yes"/>
      <point x="115.0" y="1097.1808510638298"/>
      <point x="416.9468085106382" y="1477.0"/>
      <point x="644.1914893617021" y="1477.0" type="qcurve" smooth="yes"/>
      <point x="673.5425531914893" y="1477.0"/>
      <point x="806.8191489361701" y="1464.0"/>
      <point x="866.0" y="1456.0" type="qcurve"/>
      <point x="1604.478723404255" y="1456.0" type="line"/>
      <point x="1604.478723404255" y="1366.6363636363635" type="line"/>
      <point x="884.0425531914893" y="1366.6363636363635" type="line"/>
      <point x="884.0425531914893" y="88.81818181818183" type="line"/>
      <point x="1614.478723404255" y="88.81818181818183" type="line"/>
      <point x="1614.478723404255" y="0.0" type="line"/>
      <point x="866.0" y="0.0" type="line"/>
      <point x="806.8191489361701" y="-7.0"/>
      <point x="675.0212765957447" y="-21.0"/>
    </contour>
    <contour>
      <point x="617.0" y="64.36363636363636" type="qcurve" smooth="yes"/>
      <point x="670.0" y="64.36363636363636"/>
      <point x="750.4545454545454" y="73.36363636363636"/>
      <point x="788.4545454545455" y="79.36363636363635" type="qcurve"/>
      <point x="788.4545454545455" y="1375.909090909091" type="line"/>
      <point x="736.4545454545455" y="1382.9090909090908"/>
      <point x="641.0" y="1390.909090909091"/>
      <point x="618.9999999999999" y="1390.909090909091" type="qcurve" smooth="yes"/>
      <point x="441.99999999999994" y="1390.909090909091"/>
      <point x="212.0" y="1023.7446808510638"/>
      <point x="212.0" y="762.5319148936169" type="qcurve" smooth="yes"/>
      <point x="212.0" y="699.2021276595744" type="line" smooth="yes"/>
      <point x="212.0" y="426.86170212765956"/>
      <point x="445.0" y="64.36363636363636"/>
    </contour>
    <contour>
      <point x="838.8723404255318" y="708.0" type="line"/>
      <point x="838.8723404255318" y="796.8181818181818" type="line"/>
      <point x="1512.478723404255" y="796.8181818181818" type="line"/>
      <point x="1512.478723404255" y="708.0" type="line"/>
    </contour>
  </outline>
</glyph>
<glyph name="florin" format="2">
  <advance width="929.6489361702127"/>
  <unicode hex="0192"/>
  <outline>
    <contour>
      <point x="773.6489361702127" y="882.0" type="line"/>
      <point x="773.6489361702127" y="740.0" type="line"/>
      <point x="129.0" y="740.0" type="line"/>
      <point x="129.0" y="882.0" type="line"/>
    </contour>
    <contour>
      <point x="462.2127659574468" y="111.0" type="line" smooth="yes"/>
      <point x="462.2127659574468" y="-193.85106382978722"/>
      <point x="302.0851063829787" y="-437.0"/>
      <point x="103.0" y="-437.0" type="qcurve" smooth="yes"/>
      <point x="72.0" y="-437.0"/>
      <point x="19.0" y="-430.0"/>
      <point x="-9.0" y="-420.0" type="qcurve"/>
      <point x="-0.9090909090909092" y="-336.0" type="line"/>
      <point x="20.0" y="-343.3636363636364"/>
      <point x="79.9090909090909" y="-350.3636363636363"/>
      <point x="103.0" y="-350.3636363636363" type="qcurve" smooth="yes"/>
      <point x="227.63636363636363" y="-350.3636363636363"/>
      <point x="370.0" y="-134.7272727272727"/>
      <point x="370.0" y="111.0" type="qcurve" smooth="yes"/>
      <point x="370.0" y="1126.0" type="line" smooth="yes"/>
      <point x="370.0" y="1321.851063829787"/>
      <point x="498.35106382978717" y="1487.0"/>
      <point x="618.8617021276596" y="1487.0" type="qcurve" smooth="yes"/>
      <point x="704.8617021276596" y="1487.0"/>
      <point x="828.6489361702127" y="1433.9999999999998"/>
      <point x="868.6489361702127" y="1404.0" type="qcurve"/>
      <point x="787.6489361702127" y="1259.0" type="line"/>
      <point x="743.1943907156672" y="1324.090909090909"/>
      <point x="657.3762088974854" y="1392.7272727272727"/>
      <point x="617.6489361702127" y="1392.7272727272727" type="qcurve" smooth="yes"/>
      <point x="544.9216634429399" y="1392.7272727272727"/>
      <point x="462.2127659574468" y="1257.181818181818"/>
      <point x="462.2127659574468" y="1126.0" type="qcurve" smooth="yes"/>
    </contour>
  </outline>
</glyph>
<glyph name="primemod" format="2">
  <advance width="600.0"/>
  <unicode hex="02B9"/>
  <outline>
    <contour>
      <point x="272.47872340425533" y="1502.0" type="line"/>
      <point x="365.04255319148933" y="1502.0" type="line"/>
      <point x="294.0" y="991.0" type="line"/>
      <point x="172.0" y="996.0" type="line"/>
    </contour>
  </outline>
</glyph>
<glyph name="doubleprimemod" format="2">
  <advance width="788.0"/>
  <unicode hex="02BA"/>
  <outline>
    <contour>
      <point x="271.95744680851067" y="1502.0" type="line"/>
      <point x="364.52127659574467" y="1502.0" type="line"/>
      <point x="295.0" y="1003.9999999999999" type="line"/>
      <point x="173.0" y="1008.9999999999999" type="line"/>
    </contour>
    <contour>
      <point x="571.9574468085107" y="1502.0" type="line"/>
      <point x="664.5212765957447" y="1502.0" type="line"/>
      <point x="595.0" y="1003.9999999999999" type="line"/>
      <point x="473.0" y="1008.9999999999999" type="line"/>
    </contour>
  </outline>
</glyph>
<glyph name="acutecomb" format="2">
  <unicode hex="0301"/>
  <anchor x="0.0" y="1052.0" name="_top"/>
  <anchor x="0.0" y="1600.0" name="top"/>
  <outline>
    <contour>
      <point x="-129.63636363636363" y="1263.272727272727" type="line"/>
      <point x="133.36170212765956" y="1578.6808510638298" type="line"/>
      <point x="198.59574468085106" y="1515.840425531915" type="line"/>
      <point x="-76.0" y="1215.0" type="line"/>
    </contour>
  </outline>
</glyph>
<glyph name="circumflexcomb" format="2">
  <unicode hex="0302"/>
  <anchor x="0.0" y="1052.0" name="_top"/>
  <anchor x="0.0" y="1533.0" name="top"/>
  <outline>
    <contour>
      <point x="27.85106382978723" y="1533.0" type="line"/>
      <point x="303.0" y="1220.0" type="line"/>
      <point x="150.0" y="1220.0" type="line"/>
      <point x="0.0" y="1457.7127659574467" type="line"/>
      <point x="-150.0" y="1220.0" type="line"/>
      <point x="-303.0" y="1220.0" type="line"/>
      <point x="-27.85106382978723" y="1533.0" type="line"/>
    </contour>
  </outline>
</glyph>
<glyph name="dieresiscomb" format="2">
  <unicode hex="0308"/>
  <anchor x="0.0" y="1052.0" name="_GRK_top"/>
  <anchor x="0.0" y="1052.0" name="_top"/>
  <anchor x="0.0" y="1431.0" name="top"/>
  <outline>
    <contour>
      <point x="-281.2127659574468" y="1277.8191489361702" type="qcurve" smooth="yes"/>
      <point x="-281.2127659574468" y="1304.5744680851062"/>
      <point x="-247.62765957446805" y="1342.0744680851062"/>
      <point x="-216.0" y="1342.0744680851062" type="qcurve" smooth="yes"/>
      <point x="-183.37234042553192" y="1342.0744680851062"/>
      <point x="-149.7872340425532" y="1304.5744680851062"/>
      <point x="-149.7872340425532" y="1277.8191489361702" type="qcurve" smooth="yes"/>
      <point x="-149.7872340425532" y="1252.0212765957444"/>
      <point x="-183.37234042553192" y="1215.5212765957447"/>
      <point x="-216.0" y="1215.5212765957447" type="qcurve" smooth="yes"/>
      <point x="-247.62765957446805" y="1215.5212765957447"/>
      <point x="-281.2127659574468" y="1252.0212765957444"/>
    </contour>
    <contour>
      <point x="150.30851063829786" y="1277.8191489361702" type="qcurve" smooth="yes"/>
      <point x="150.30851063829786" y="1304.5744680851062"/>
      <point x="182.89361702127658" y="1341.5531914893618"/>
      <point x="215.52127659574467" y="1341.5531914893618" type="qcurve" smooth="yes"/>
      <point x="247.14893617021275" y="1341.5531914893618"/>
      <point x="281.2127659574468" y="1304.5744680851062"/>
      <point x="281.2127659574468" y="1277.8191489361702" type="qcurve" smooth="yes"/>
      <point x="281.2127659574468" y="1252.0212765957444"/>
      <point x="247.14893617021275" y="1215.5212765957447"/>
      <point x="215.52127659574467" y="1215.5212765957447" type="qcurve" smooth="yes"/>
      <point x="182.89361702127658" y="1215.5212765957447"/>
      <point x="150.30851063829786" y="1252.0212765957444"/>
    </contour>
  </outline>
</glyph>
<glyph name="hookabovecomb" format="2">
  <unicode hex="0309"/>
  <anchor x="0.0" y="1052.0" name="_top"/>
  <anchor x="0.0" y="1692.0" name="top"/>
  <outline>
    <contour>
      <point x="-70.0" y="1220.0" type="line"/>
      <point x="-70.0" y="1259.0" type="line" smooth="yes"/>
      <point x="-70.0" y="1311.0"/>
      <point x="-11.0" y="1381.0"/>
      <point x="47.0" y="1392.0" type="qcurve" smooth="yes"/>
      <point x="112.90425531914894" y="1404.0425531914893"/>
      <point x="183.13829787234042" y="1445.5531914893618"/>
      <point x="183.13829787234042" y="1493.851063829787" type="qcurve" smooth="yes"/>
      <point x="183.13829787234042" y="1548.4893617021276"/>
      <point x="83.98936170212765" y="1619.9361702127658"/>
      <point x="13.308510638297872" y="1619.9361702127658" type="qcurve" smooth="yes"/>
      <point x="-53.81914893617021" y="1619.9361702127658"/>
      <point x="-159.59574468085106" y="1584.3723404255318"/>
      <point x="-194.58510638297872" y="1564.6808510638298" type="qcurve"/>
      <point x="-222.0" y="1632.0" type="line"/>
      <point x="-171.0" y="1657.0"/>
      <point x="-57.25531914893617" y="1692.5212765957447"/>
      <point x="28.148936170212764" y="1692.5212765957447" type="qcurve" smooth="yes"/>
      <point x="131.98936170212764" y="1692.5212765957447"/>
      <point x="264.8191489361702" y="1581.127659574468"/>
      <point x="264.8191489361702" y="1498.159574468085" type="qcurve" smooth="yes"/>
      <point x="264.8191489361702" y="1381.0"/>
      <point x="155.85106382978722" y="1255.787234042553"/>
      <point x="70.0" y="1251.0" type="qcurve"/>
      <point x="70.0" y="1220.0" type="line"/>
    </contour>
  </outline>
</glyph>
<glyph name="ringcomb" format="2">
  <unicode hex="030A"/>
  <anchor x="0.0" y="1052.0" name="_top"/>
  <anchor x="0.0" y="1647.0" name="top"/>
  <outline>
    <contour>
      <point x="-226.0" y="1429.0" type="qcurve"/>
      <point x="-226.0" y="1518.9999999999998"/>
      <point x="-96.0" y="1647.0"/>
      <point x="0.0" y="1647.0" type="qcurve" smooth="yes"/>
      <point x="95.56382978723404" y="1647.0"/>
      <point x="226.0" y="1518.9999999999998"/>
      <point x="226.0" y="1429.0" type="qcurve" smooth="yes"/>
      <point x="226.0" y="1338.0"/>
      <point x="95.56382978723404" y="1215.0"/>
      <point x="0.0" y="1215.0" type="qcurve" smooth="yes"/>
      <point x="-96.52127659574468" y="1215.0"/>
      <point x="-226.0" y="1338.0"/>
    </contour>
    <contour>
      <point x="-169.6914893617021" y="1429.0" type="qcurve"/>
      <point x="-169.6914893617021" y="1362.063829787234"/>
      <point x="-74.45744680851064" y="1266.0425531914893"/>
      <point x="0.0" y="1266.0425531914893" type="qcurve" smooth="yes"/>
      <point x="73.41489361702128" y="1266.0425531914893"/>
      <point x="169.6914893617021" y="1361.1063829787233"/>
      <point x="169.6914893617021" y="1429.0" type="qcurve" smooth="yes"/>
      <point x="169.6914893617021" y="1494.8085106382978"/>
      <point x="73.93617021276594" y="1595.478723404255"/>
      <point x="0.0" y="1595.478723404255" type="qcurve" smooth="yes"/>
      <point x="-74.45744680851064" y="1595.478723404255"/>
      <point x="-169.6914893617021" y="1494.8085106382978"/>
    </contour>
  </outline>
</glyph>
<glyph name="hungarumlautcomb" format="2">
  <unicode hex="030B"/>
  <anchor x="0.0" y="1052.0" name="_top"/>
  <anchor x="0.0" y="1581.0" name="top"/>
  <outline>
    <contour>
      <point x="-213.27272727272725" y="1261.3636363636365" type="line"/>
      <point x="19.4468085106383" y="1553.3723404255318" type="line"/>
      <point x="86.07446808510637" y="1501.1489361702127" type="line"/>
      <point x="-158.0" y="1218.0" type="line"/>
    </contour>
    <contour>
      <point x="96.72727272727272" y="1261.3636363636365" type="line"/>
      <point x="329.4468085106383" y="1553.3723404255318" type="line"/>
      <point x="396.07446808510633" y="1501.1489361702127" type="line"/>
      <point x="152.0" y="1218.0" type="line"/>
    </contour>
  </outline>
</glyph>
<glyph name="commaaccentturnedcomb" format="2">
  <unicode hex="0312"/>
  <anchor x="0.0" y="1052.0" name="_top"/>
  <outline>
    <contour>
      <point x="163.0" y="1652.0" type="line"/>
      <point x="28.999999999999993" y="1296.7340425531916" type="line"/>
      <point x="-65.4787234042553" y="1308.7446808510638" type="line"/>
      <point x="6.0" y="1675.9999999999998" type="line"/>
    </contour>
  </outline>
</glyph>
<glyph name="horncomb" format="2">
  <unicode hex="031B"/>
  <anchor x="0.0" y="1052.0" name="_topright"/>
  <anchor x="0.0" y="1293.0" name="topright"/>
  <outline>
    <contour>
      <point x="0.0" y="1052.0" type="line"/>
      <point x="84.0" y="1052.0" type="line" smooth="yes"/>
      <point x="132.0" y="1052.0"/>
      <point x="204.0" y="1086.0"/>
      <point x="204.0" y="1131.7446808510638" type="qcurve" smooth="yes"/>
      <point x="204.0" y="1179.8297872340424"/>
      <point x="191.0" y="1257.0"/>
      <point x="181.0" y="1293.0" type="qcurve"/>
      <point x="254.54255319148933" y="1293.0" type="line"/>
      <point x="269.32978723404256" y="1258.9574468085107"/>
      <point x="291.9042553191489" y="1166.382978723404"/>
      <point x="291.9042553191489" y="1119.2930367504835" type="qcurve" smooth="yes"/>
      <point x="291.9042553191489" y="1026.818181818182"/>
      <point x="198.247582205029" y="967.2727272727273"/>
      <point x="110.11702127659574" y="967.2727272727273" type="qcurve" smooth="yes"/>
      <point x="77.79110251450676" y="967.2727272727273"/>
      <point x="21.108317214700193" y="978.8181818181818"/>
      <point x="0.0" y="988.2727272727273" type="qcurve"/>
    </contour>
  </outline>
</glyph>
<glyph name="cedillacomb" format="2">
  <unicode hex="0327"/>
  <anchor x="0.0" y="0.0" name="_bottom"/>
  <anchor x="0.0" y="-457.0" name="bottom"/>
  <outline>
    <contour>
      <point x="-72.0" y="20.0" type="line"/>
      <point x="56.99999999999999" y="20.0" type="line"/>
      <point x="29.0" y="-75.0" type="line"/>
      <point x="67.23404255319149" y="-87.08510638297872"/>
      <point x="156.22340425531914" y="-161.0"/>
      <point x="156.22340425531914" y="-247.99999999999997" type="qcurve" smooth="yes"/>
      <point x="156.22340425531914" y="-341.0"/>
      <point x="24.968085106382976" y="-456.4787234042553"/>
      <point x="-164.0" y="-457.0" type="qcurve"/>
      <point x="-171.0" y="-350.0" type="line"/>
      <point x="-40.138297872340424" y="-351.563829787234"/>
      <point x="65.96808510638299" y="-303.0"/>
      <point x="65.96808510638299" y="-250.0" type="qcurve" smooth="yes"/>
      <point x="65.96808510638299" y="-201.0"/>
      <point x="-8.670212765957446" y="-163.47872340425533"/>
      <point x="-113.0" y="-157.0" type="qcurve"/>
    </contour>
  </outline>
</glyph>
<glyph name="ogonekcomb" format="2">
  <unicode hex="0328"/>
  <anchor x="88.0" y="0.0" name="_ogonek"/>
  <anchor x="21.0" y="-434.0" name="bottom"/>
  <outline>
    <contour>
      <point x="4.0" y="56.99999999999999" type="qcurve"/>
      <point x="88.0" y="0.0" type="line"/>
      <point x="26.0" y="-42.0"/>
      <point x="-49.0" y="-140.35106382978722"/>
      <point x="-49.0" y="-203.0" type="qcurve" smooth="yes"/>
      <point x="-49.0" y="-252.0"/>
      <point x="8.0" y="-296.0"/>
      <point x="45.0" y="-295.0" type="qcurve" smooth="yes"/>
      <point x="78.0" y="-294.0"/>
      <point x="126.0" y="-276.0"/>
      <point x="140.0" y="-268.0" type="qcurve"/>
      <point x="175.0" y="-390.0" type="line"/>
      <point x="152.0" y="-405.0"/>
      <point x="82.60638297872339" y="-434.0"/>
      <point x="37.159574468085104" y="-434.0" type="qcurve" smooth="yes"/>
      <point x="-38.170212765957444" y="-434.0"/>
      <point x="-128.7659574468085" y="-328.24468085106383"/>
      <point x="-128.7659574468085" y="-215.9255319148936" type="qcurve" smooth="yes"/>
      <point x="-128.7659574468085" y="-129.27659574468083"/>
      <point x="-66.73404255319147" y="0.08510638297872364"/>
    </contour>
  </outline>
</glyph>
<glyph name="numeralsign" format="2">
  <advance width="574.0"/>
  <unicode hex="0374"/>
  <outline>
    <contour>
      <point x="233.0" y="1073.0" type="line"/>
      <point x="110.0" y="1103.0" type="line"/>
      <point x="199.0" y="1556.0" type="line"/>
      <point x="384.0" y="1537.0" type="line"/>
    </contour>
  </outline>
</glyph>
<glyph name="Gamma" format="2">
  <advance width="980.5638297872339"/>
  <unicode hex="0393"/>
  <anchor x="576.7446808510638" y="1456.0" name="top"/>
  <anchor x="244.3723404255319" y="708.0" name="center"/>
  <outline>
    <contour>
      <point x="170.0" y="0.0" type="line"/>
      <point x="170.0" y="1456.0" type="line"/>
      <point x="955.563829787234" y="1456.0" type="line"/>
      <point x="955.563829787234" y="1366.6363636363635" type="line"/>
      <point x="265.563829787234" y="1366.6363636363635" type="line"/>
      <point x="265.563829787234" y="0.0" type="line"/>
    </contour>
  </outline>
</glyph>
<glyph name="Theta" format="2">
  <advance width="1265.0425531914893"/>
  <unicode hex="0398"/>
  <outline>
    <contour>
      <point x="632.5212765957447" y="-30.0" type="qcurve" smooth="yes"/>
      <point x="407.8723404255319" y="-30.0"/>
      <point x="115.0" y="346.0"/>
      <point x="115.0" y="682.0" type="qcurve" smooth="yes"/>
      <point x="115.0" y="774.0" type="line" smooth="yes"/>
      <point x="115.0" y="1110.0"/>
      <point x="407.8723404255319" y="1486.0"/>
      <point x="632.5212765957447" y="1486.0" type="qcurve" smooth="yes"/>
      <point x="857.1702127659573" y="1486.0"/>
      <point x="1150.0425531914893" y="1110.0"/>
      <point x="1150.0425531914893" y="774.0" type="qcurve" smooth="yes"/>
      <point x="1150.0425531914893" y="682.0" type="line" smooth="yes"/>
      <point x="1150.0425531914893" y="346.0"/>
      <point x="857.1702127659573" y="-30.0"/>
    </contour>
    <contour>
      <point x="632.5212765957447" y="62.63636363636364" type="qcurve" smooth="yes"/>
      <point x="822.5212765957447" y="62.63636363636364"/>
      <point x="1053.5212765957444" y="387.81818181818176"/>
      <point x="1053.5212765957444" y="676.090909090909" type="qcurve" smooth="yes"/>
      <point x="1053.5212765957444" y="779.4545454545454" type="line" smooth="yes"/>
      <point x="1053.5212765957444" y="1067.2727272727273"/>
      <point x="822.5212765957447" y="1393.3636363636363"/>
      <point x="632.5212765957447" y="1393.3636363636363" type="qcurve" smooth="yes"/>
      <point x="442.52127659574467" y="1393.3636363636363"/>
      <point x="211.52127659574467" y="1067.2727272727273"/>
      <point x="211.52127659574467" y="779.4545454545454" type="qcurve" smooth="yes"/>
      <point x="211.52127659574467" y="676.090909090909" type="line" smooth="yes"/>
      <point x="211.52127659574467" y="388.7272727272727"/>
      <point x="442.52127659574467" y="62.63636363636364"/>
    </contour>
    <contour>
      <point x="370.52127659574467" y="696.7272727272727" type="line"/>
      <point x="370.52127659574467" y="791.5454545454545" type="line"/>
      <point x="894.5212765957447" y="791.5454545454545" type="line"/>
      <point x="894.5212765957447" y="696.7272727272727" type="line"/>
    </contour>
  </outline>
</glyph>
<glyph name="Xi" format="2">
  <advance width="1140.0"/>
  <unicode hex="039E"/>
  <outline>
    <contour>
      <point x="68.0" y="0.0" type="line"/>
      <point x="68.0" y="100.27272727272727" type="line"/>
      <point x="1072.0" y="100.27272727272727" type="line"/>
      <point x="1072.0" y="0.0" type="line"/>
    </contour>
    <contour>
      <point x="170.0" y="699.7272727272727" type="line"/>
      <point x="170.0" y="800.0" type="line"/>
      <point x="969.9999999999999" y="800.0" type="line"/>
      <point x="969.9999999999999" y="699.7272727272727" type="line"/>
    </contour>
    <contour>
      <point x="68.0" y="1355.7272727272725" type="line"/>
      <point x="68.0" y="1456.0" type="line"/>
      <point x="1072.0" y="1456.0" type="line"/>
      <point x="1072.0" y="1355.7272727272725" type="line"/>
    </contour>
  </outline>
</glyph>
<glyph name="Sigma" format="2">
  <advance width="1096.1702127659573"/>
  <unicode hex="03A3"/>
  <outline>
    <contour>
      <point x="65.0" y="0.0" type="line"/>
      <point x="65.0" y="121.0" type="line"/>
      <point x="561.6595744680851" y="735.4893617021276" type="line"/>
      <point x="561.6595744680851" y="713.4680851063829" type="line"/>
      <point x="77.0" y="1304.0" type="line"/>
      <point x="77.0" y="1456.0" type="line"/>
      <point x="998.1702127659573" y="1456.0" type="line"/>
      <point x="998.1702127659573" y="1367.181818181818" type="line"/>
      <point x="142.44100580270793" y="1367.181818181818" type="line"/>
      <point x="144.72533849129593" y="1368.647001934236" type="line"/>
      <point x="662.8829787234042" y="740.8829787234042" type="line"/>
      <point x="662.8829787234042" y="718.0851063829787" type="line"/>
      <point x="153.43520309477753" y="87.4439071566731" type="line"/>
      <point x="150.6963249516441" y="89.36363636363636" type="line"/>
      <point x="1030.1702127659573" y="89.36363636363636" type="line"/>
      <point x="1030.1702127659573" y="0.0" type="line"/>
    </contour>
  </outline>
</glyph>
<glyph name="Phi" format="2">
  <advance width="1465.0744680851062"/>
  <unicode hex="03A6"/>
  <outline>
    <contour>
      <point x="687.2127659574468" y="-20.0" type="line"/>
      <point x="687.2127659574468" y="242.0" type="line"/>
      <point x="687.2127659574468" y="285.0" type="line"/>
      <point x="687.2127659574468" y="1192.0" type="line"/>
      <point x="687.2127659574468" y="1228.0" type="line"/>
      <point x="687.2127659574468" y="1476.0" type="line"/>
      <point x="779.4255319148936" y="1476.0" type="line"/>
      <point x="779.4255319148936" y="1228.9574468085107" type="line"/>
      <point x="779.4255319148936" y="1192.478723404255" type="line"/>
      <point x="779.4255319148936" y="284.04255319148933" type="line"/>
      <point x="779.4255319148936" y="241.04255319148936" type="line"/>
      <point x="779.4255319148936" y="-20.0" type="line"/>
    </contour>
    <contour>
      <point x="659.2127659574468" y="194.0" type="line" smooth="yes"/>
      <point x="388.0851063829787" y="194.0"/>
      <point x="105.0" y="493.29787234042556"/>
      <point x="105.0" y="740.0425531914893" type="qcurve" smooth="yes"/>
      <point x="105.0" y="991.9999999999999"/>
      <point x="388.0851063829787" y="1283.0"/>
      <point x="659.2127659574468" y="1283.0" type="qcurve" smooth="yes"/>
      <point x="805.8617021276596" y="1283.0" type="line" smooth="yes"/>
      <point x="1076.9893617021276" y="1283.0"/>
      <point x="1360.0744680851062" y="991.0"/>
      <point x="1360.0744680851062" y="738.0" type="qcurve" smooth="yes"/>
      <point x="1360.0744680851062" y="484.99999999999994"/>
      <point x="1076.9893617021276" y="194.0"/>
      <point x="805.8617021276596" y="194.0" type="qcurve" smooth="yes"/>
    </contour>
    <contour>
      <point x="659.2127659574468" y="279.54545454545456" type="qcurve" smooth="yes"/>
      <point x="805.8617021276596" y="279.54545454545456" type="line" smooth="yes"/>
      <point x="1044.1344294003868" y="279.54545454545456"/>
      <point x="1267.8617021276596" y="514.5454545454545"/>
      <point x="1267.8617021276596" y="737.0425531914893" type="qcurve" smooth="yes"/>
      <point x="1267.8617021276596" y="957.2727272727273"/>
      <point x="1044.1344294003868" y="1197.4545454545455"/>
      <point x="805.8617021276596" y="1197.4545454545455" type="qcurve" smooth="yes"/>
      <point x="659.2127659574468" y="1197.4545454545455" type="line" smooth="yes"/>
      <point x="420.9400386847195" y="1197.4545454545455"/>
      <point x="197.21276595744678" y="962.4545454545454"/>
      <point x="197.21276595744678" y="741.0" type="qcurve" smooth="yes"/>
      <point x="197.21276595744678" y="519.7272727272727"/>
      <point x="420.9400386847195" y="279.54545454545456"/>
    </contour>
  </outline>
</glyph>
<glyph name="Psi" format="2">
  <advance width="1399.1489361702127"/>
  <unicode hex="03A8"/>
  <outline>
    <contour>
      <point x="654.515699235695" y="0.0" type="line"/>
      <point x="654.515699235695" y="1456.0" type="line"/>
      <point x="746.7284651931418" y="1456.0" type="line"/>
      <point x="746.7284651931418" y="0.0" type="line"/>
    </contour>
    <contour>
      <point x="664.1327205122907" y="361.0" type="line" smooth="yes"/>
      <point x="408.27101838463125" y="361.0"/>
      <point x="154.48378434207808" y="635.0"/>
      <point x="155.00506093782275" y="928.0" type="qcurve" smooth="yes"/>
      <point x="155.00506093782275" y="1456.0" type="line"/>
      <point x="250.56889072505678" y="1456.0" type="line"/>
      <point x="250.56889072505678" y="926.0" type="line" smooth="yes"/>
      <point x="250.56889072505678" y="686.4545454545455"/>
      <point x="448.2961634523295" y="450.3636363636364"/>
      <point x="664.1327205122907" y="450.3636363636364" type="qcurve" smooth="yes"/>
      <point x="736.983784342078" y="450.3636363636364" type="line" smooth="yes"/>
      <point x="952.4083491389831" y="450.3636363636364"/>
      <point x="1150.67527370378" y="686.4545454545455"/>
      <point x="1148.5901673208014" y="926.0" type="qcurve" smooth="yes"/>
      <point x="1148.5901673208014" y="1456.0" type="line"/>
      <point x="1244.1539971080354" y="1456.0" type="line"/>
      <point x="1244.1539971080354" y="928.0" type="line" smooth="yes"/>
      <point x="1244.1539971080354" y="635.0"/>
      <point x="996.1008056186738" y="361.0"/>
      <point x="735.547614129312" y="361.0" type="qcurve" smooth="yes"/>
    </contour>
  </outline>
</glyph>
<glyph name="beta" format="2">
  <advance width="1001.8191489361701"/>
  <unicode hex="03B2"/>
  <outline>
    <contour>
      <point x="148.0" y="-416.0" type="line"/>
      <point x="148.0" y="1058.0" type="line" smooth="yes"/>
      <point x="148.0" y="1311.0"/>
      <point x="316.7234042553191" y="1556.0"/>
      <point x="501.6914893617021" y="1556.0" type="qcurve" smooth="yes"/>
      <point x="673.4148936170212" y="1556.0"/>
      <point x="833.6382978723403" y="1350.5212765957447"/>
      <point x="833.6382978723403" y="1155.5212765957447" type="qcurve"/>
      <point x="833.6382978723403" y="1026.5212765957444"/>
      <point x="723.3510638297871" y="864.2127659574467"/>
      <point x="619.3510638297871" y="834.0" type="qcurve"/>
      <point x="619.3510638297871" y="850.0" type="line"/>
      <point x="751.4999999999999" y="830.0"/>
      <point x="916.8191489361701" y="630.0"/>
      <point x="916.8191489361701" y="462.4787234042553" type="qcurve" smooth="yes"/>
      <point x="916.8191489361701" y="243.0"/>
      <point x="709.8936170212766" y="-21.0"/>
      <point x="552.6914893617021" y="-21.0" type="qcurve" smooth="yes"/>
      <point x="404.6914893617021" y="-21.0"/>
      <point x="234.01063829787233" y="134.48936170212767"/>
      <point x="193.6914893617021" y="212.2978723404255" type="qcurve"/>
      <point x="193.6914893617021" y="393.0" type="line"/>
      <point x="260.44100580270793" y="243.74081237911022"/>
      <point x="428.2988394584139" y="65.63636363636364"/>
      <point x="539.691489361702" y="65.63636363636364" type="qcurve" smooth="yes"/>
      <point x="675.1460348162476" y="65.63636363636364"/>
      <point x="822.6914893617021" y="278.27272727272725"/>
      <point x="822.6914893617021" y="462.0" type="qcurve" smooth="yes"/>
      <point x="822.6914893617021" y="624.090909090909"/>
      <point x="657.8733075435202" y="795.9090909090909"/>
      <point x="476.69148936170205" y="795.9090909090909" type="qcurve" smooth="yes"/>
      <point x="378.6914893617021" y="795.9090909090909" type="line"/>
      <point x="378.6914893617021" y="876.5454545454545" type="line"/>
      <point x="477.6914893617021" y="876.5454545454545" type="line" smooth="yes"/>
      <point x="613.7823984526112" y="876.5454545454545"/>
      <point x="745.6914893617021" y="1022.0"/>
      <point x="745.6914893617021" y="1156.0" type="qcurve" smooth="yes"/>
      <point x="745.6914893617021" y="1303.5454545454545"/>
      <point x="628.4187620889747" y="1469.909090909091"/>
      <point x="501.6914893617021" y="1469.909090909091" type="qcurve" smooth="yes"/>
      <point x="371.8733075435203" y="1469.909090909091"/>
      <point x="240.6914893617021" y="1264.181818181818"/>
      <point x="240.6914893617021" y="1064.9999999999998" type="qcurve" smooth="yes"/>
      <point x="240.6914893617021" y="-416.0" type="line"/>
    </contour>
  </outline>
</glyph>
<glyph name="gamma" format="2">
  <advance width="845.563829787234"/>
  <unicode hex="03B3"/>
  <outline>
    <contour>
      <point x="372.78723404255317" y="-366.0" type="line"/>
      <point x="372.78723404255317" y="58.0" type="line"/>
      <point x="0.0" y="1052.0" type="line"/>
      <point x="90.34042553191487" y="1052.0" type="line"/>
      <point x="375.095744680851" y="273.3723404255319" type="line" smooth="yes"/>
      <point x="389.6170212765957" y="233.3723404255319"/>
      <point x="411.2234042553191" y="165.9787234042553"/>
      <point x="417.82978723404256" y="143.3723404255319" type="qcurve"/>
      <point x="423.30851063829783" y="143.3723404255319" type="line"/>
      <point x="430.9574468085106" y="167.02127659574467"/>
      <point x="452.563829787234" y="233.89361702127658"/>
      <point x="467.08510638297867" y="273.3723404255319" type="qcurve" smooth="yes"/>
      <point x="757.1382978723404" y="1052.0" type="line"/>
      <point x="845.563829787234" y="1052.0" type="line"/>
      <point x="465.4787234042553" y="58.0" type="line"/>
      <point x="465.4787234042553" y="-366.0" type="line"/>
    </contour>
  </outline>
</glyph>
<glyph name="delta" format="2">
  <advance width="952.2553191489362"/>
  <unicode hex="03B4"/>
  <outline>
    <contour>
      <point x="468.2127659574468" y="-30.0" type="qcurve" smooth="yes"/>
      <point x="288.52127659574467" y="-30.0"/>
      <point x="85.0" y="231.0"/>
      <point x="85.0" y="457.76595744680844" type="qcurve" smooth="yes"/>
      <point x="85.0" y="475.77659574468083" type="line" smooth="yes"/>
      <point x="85.0" y="679.0"/>
      <point x="273.4148936170213" y="941.1489361702127"/>
      <point x="469.127659574468" y="984.0" type="qcurve"/>
      <point x="552.036750483559" y="940.0" type="line"/>
      <point x="370.036750483559" y="931.3636363636363"/>
      <point x="179.12765957446805" y="694.0"/>
      <point x="179.12765957446805" y="487.30851063829783" type="qcurve" smooth="yes"/>
      <point x="179.12765957446805" y="472.52127659574467" type="line" smooth="yes"/>
      <point x="179.12765957446805" y="275.9090909090909"/>
      <point x="324.30947775628624" y="58.09090909090908"/>
      <point x="467.12765957446805" y="56.09090909090908" type="qcurve"/>
      <point x="611.9458413926499" y="55.09090909090909"/>
      <point x="773.127659574468" y="281.6363636363636"/>
      <point x="773.127659574468" y="478.3510638297872" type="qcurve" smooth="yes"/>
      <point x="773.127659574468" y="492.13829787234044" type="line" smooth="yes"/>
      <point x="773.127659574468" y="619.0"/>
      <point x="659.6063829787233" y="822.9148936170212"/>
      <point x="506.32978723404256" y="893.7446808510638" type="qcurve" smooth="yes"/>
      <point x="355.31914893617017" y="963.6595744680851"/>
      <point x="223.0851063829787" y="1138.872340425532"/>
      <point x="223.0851063829787" y="1259.5531914893618" type="qcurve" smooth="yes"/>
      <point x="223.0851063829787" y="1398.5531914893618"/>
      <point x="375.1808510638298" y="1556.0"/>
      <point x="513.4893617021276" y="1556.0" type="qcurve" smooth="yes"/>
      <point x="598.3723404255319" y="1556.0"/>
      <point x="731.9042553191489" y="1518.0"/>
      <point x="786.127659574468" y="1487.0" type="qcurve"/>
      <point x="756.1702127659573" y="1333.0" type="line"/>
      <point x="693.5609284332688" y="1397.4235976789166"/>
      <point x="567.9381044487427" y="1469.909090909091"/>
      <point x="512.9680851063829" y="1469.909090909091" type="qcurve" smooth="yes"/>
      <point x="417.8665377176015" y="1469.909090909091"/>
      <point x="314.81914893617017" y="1361.2437137330753"/>
      <point x="314.81914893617017" y="1261.4255319148936" type="qcurve" smooth="yes"/>
      <point x="314.81914893617017" y="1206.4255319148936"/>
      <point x="427.6914893617021" y="1110.0851063829787"/>
      <point x="562.0531914893617" y="1035.7765957446807" type="qcurve" smooth="yes"/>
      <point x="740.2765957446809" y="938.3191489361702"/>
      <point x="867.2553191489361" y="670.063829787234"/>
      <point x="867.2553191489361" y="487.70212765957444" type="qcurve" smooth="yes"/>
      <point x="867.2553191489361" y="471.21276595744683" type="line" smooth="yes"/>
      <point x="867.2553191489361" y="229.0"/>
      <point x="637.9893617021277" y="-30.0"/>
    </contour>
  </outline>
</glyph>
<glyph name="kappa" format="2">
  <advance width="949.691489361702"/>
  <unicode hex="03BA"/>
  <outline>
    <contour>
      <point x="805.5667311411992" y="0.0" type="line"/>
      <point x="353.2050290135396" y="515.0531914893618" type="line"/>
      <point x="411.8829787234042" y="576.4148936170212" type="line"/>
      <point x="919.8617021276596" y="0.0" type="line"/>
    </contour>
    <contour>
      <point x="192.40038684719536" y="551.3636363636363" type="line"/>
      <point x="323.0551257253385" y="551.3636363636363" type="line"/>
      <point x="762.1460348162475" y="1052.0" type="line"/>
      <point x="885.600580270793" y="1052.0" type="line"/>
      <point x="371.50967117988387" y="469.09090909090907" type="line"/>
      <point x="192.40038684719536" y="469.09090909090907" type="line"/>
    </contour>
    <contour>
      <point x="240.6914893617021" y="1052.0" type="line"/>
      <point x="240.6914893617021" y="0.0" type="line"/>
      <point x="148.45454545454544" y="0.0" type="line"/>
      <point x="148.45454545454544" y="1052.0" type="line"/>
    </contour>
  </outline>
</glyph>
<glyph name="pi" format="2">
  <advance width="993.7340425531914"/>
  <unicode hex="03C0"/>
  <outline>
    <contour>
      <point x="0.0" y="965.9090909090909" type="line"/>
      <point x="0.0" y="1052.0" type="line"/>
      <point x="943.7340425531913" y="1052.0" type="line"/>
      <point x="943.7340425531913" y="965.9090909090909" type="line"/>
    </contour>
    <contour>
      <point x="164.43617021276594" y="0.0" type="line"/>
      <point x="164.43617021276594" y="1005.9999999999999" type="line"/>
      <point x="257.12765957446805" y="1005.9999999999999" type="line"/>
      <point x="257.12765957446805" y="0.0" type="line"/>
    </contour>
    <contour>
      <point x="841.3723404255318" y="-30.0" type="qcurve" smooth="yes"/>
      <point x="762.8617021276596" y="-30.0"/>
      <point x="685.6063829787233" y="62.93617021276595"/>
      <point x="685.6063829787233" y="213.93617021276594" type="qcurve"/>
      <point x="685.6063829787233" y="1005.9999999999999" type="line"/>
      <point x="778.2978723404254" y="1005.9999999999999" type="line"/>
      <point x="778.2978723404254" y="252.93617021276594" type="line"/>
      <point x="778.2978723404254" y="145.02804642166342"/>
      <point x="820.0067698259187" y="64.0909090909091"/>
      <point x="864.8723404255318" y="64.0909090909091" type="qcurve"/>
      <point x="887.7340425531914" y="64.0909090909091"/>
      <point x="929.7340425531914" y="73.09090909090908"/>
      <point x="940.7340425531914" y="78.09090909090908" type="qcurve"/>
      <point x="940.7340425531914" y="-8.0" type="line"/>
      <point x="922.7340425531913" y="-17.0"/>
      <point x="875.7234042553191" y="-30.0"/>
    </contour>
  </outline>
</glyph>
<glyph name="finalsigma" format="2">
  <advance width="865.0319148936169"/>
  <unicode hex="03C2"/>
  <outline>
    <contour>
      <point x="522.7553191489361" y="-348.0" type="line"/>
      <point x="550.9680851063829" y="-295.0"/>
      <point x="592.3936170212766" y="-184.5744680851064"/>
      <point x="592.3936170212766" y="-127.36170212765956" type="qcurve"/>
      <point x="592.3936170212766" y="-63.14893617021276"/>
      <point x="537.6489361702127" y="16.308510638297875"/>
      <point x="457.2978723404255" y="41.56382978723404" type="qcurve" smooth="yes"/>
      <point x="409.81914893617017" y="56.73404255319149" type="line" smooth="yes"/>
      <point x="249.47872340425528" y="104.81914893617022"/>
      <point x="85.0" y="296.9042553191489"/>
      <point x="85.0" y="504.4787234042552" type="qcurve" smooth="yes"/>
      <point x="85.0" y="541.4787234042552" type="line" smooth="yes"/>
      <point x="85.0" y="776.691489361702"/>
      <point x="279.96808510638294" y="1082.0"/>
      <point x="474.659574468085" y="1082.0" type="qcurve" smooth="yes"/>
      <point x="663.5957446808511" y="1082.0"/>
      <point x="813.4255319148936" y="851.5212765957447"/>
      <point x="813.4255319148936" y="715.0" type="qcurve" smooth="yes"/>
      <point x="813.4255319148936" y="710.0" type="line"/>
      <point x="723.6063829787233" y="710.0" type="line"/>
      <point x="723.6063829787233" y="715.0" type="line" smooth="yes"/>
      <point x="723.6063829787233" y="840.0"/>
      <point x="599.6847195357834" y="995.9090909090909"/>
      <point x="481.4361702127659" y="995.9090909090909" type="qcurve"/>
      <point x="348.0135396518375" y="995.9090909090909"/>
      <point x="179.6063829787234" y="758.4477756286267"/>
      <point x="179.6063829787234" y="546.2659574468084" type="qcurve" smooth="yes"/>
      <point x="179.6063829787234" y="507.2659574468085" type="line" smooth="yes"/>
      <point x="179.6063829787234" y="336.3723404255319"/>
      <point x="297.8723404255319" y="181.27659574468083"/>
      <point x="440.67021276595744" y="136.45744680851064" type="qcurve" smooth="yes"/>
      <point x="489.54255319148933" y="120.80851063829785" type="line" smooth="yes"/>
      <point x="647.627659574468" y="69.17021276595743"/>
      <point x="754.7553191489361" y="-28.925531914893618"/>
      <point x="754.7553191489361" y="-114.23404255319147" type="qcurve"/>
      <point x="754.7553191489361" y="-177.2340425531915"/>
      <point x="724.2340425531914" y="-285.8191489361702"/>
      <point x="692.7553191489361" y="-348.0" type="qcurve"/>
    </contour>
  </outline>
</glyph>
<glyph name="sigma" format="2">
  <advance width="1015.8829787234042"/>
  <unicode hex="03C3"/>
  <outline>
    <contour>
      <point x="486.127659574468" y="-30.0" type="qcurve" smooth="yes"/>
      <point x="303.9148936170212" y="-30.0"/>
      <point x="85.0" y="250.0"/>
      <point x="85.0" y="486.2127659574468" type="qcurve" smooth="yes"/>
      <point x="85.0" y="517.7340425531914" type="line" smooth="yes"/>
      <point x="85.0" y="740.0"/>
      <point x="326.70212765957444" y="1052.0"/>
      <point x="573.7553191489361" y="1052.0" type="qcurve"/>
      <point x="965.8829787234042" y="1052.0" type="line"/>
      <point x="965.8829787234042" y="966.3636363636363" type="line"/>
      <point x="605.2756286266924" y="966.3636363636363" type="line"/>
      <point x="606.8394584139264" y="967.5870406189555" type="line"/>
      <point x="737.5164410058026" y="926.5212765957447"/>
      <point x="886.7340425531913" y="704.3036750483559"/>
      <point x="886.7340425531913" y="526.0" type="qcurve" smooth="yes"/>
      <point x="886.7340425531913" y="495.0" type="line" smooth="yes"/>
      <point x="886.7340425531913" y="264.0"/>
      <point x="667.8191489361702" y="-30.0"/>
    </contour>
    <contour>
      <point x="486.127659574468" y="56.09090909090908" type="qcurve" smooth="yes"/>
      <point x="635.8549323017407" y="56.09090909090908"/>
      <point x="792.127659574468" y="295.18181818181813"/>
      <point x="792.127659574468" y="495.0" type="qcurve" smooth="yes"/>
      <point x="792.127659574468" y="526.0" type="line" smooth="yes"/>
      <point x="792.127659574468" y="708.3336557059961"/>
      <point x="686.8065764023211" y="930.0"/>
      <point x="596.127659574468" y="965.3636363636363" type="qcurve"/>
      <point x="381.40038684719536" y="971.9090909090908"/>
      <point x="180.12765957446805" y="720.5454545454545"/>
      <point x="180.12765957446805" y="522.0" type="qcurve" smooth="yes"/>
      <point x="180.12765957446805" y="490.99999999999994" type="line" smooth="yes"/>
      <point x="180.12765957446805" y="292.09090909090907"/>
      <point x="336.4003868471953" y="56.09090909090908"/>
    </contour>
  </outline>
</glyph>
<glyph name="psi" format="2">
  <advance width="1156.5106382978722"/>
  <unicode hex="03C8"/>
  <outline>
    <contour>
      <point x="532.6914893617021" y="-416.0" type="line"/>
      <point x="532.6914893617021" y="1536.0" type="line"/>
      <point x="625.3829787234042" y="1536.0" type="line"/>
      <point x="625.3829787234042" y="-416.0" type="line"/>
    </contour>
    <contour>
      <point x="532.6914893617021" y="-20.0" type="line"/>
      <point x="364.3510638297872" y="-15.212765957446807"/>
      <point x="138.0" y="236.99999999999997"/>
      <point x="138.0" y="480.0" type="qcurve" smooth="yes"/>
      <point x="138.0" y="1052.0" type="line"/>
      <point x="230.6914893617021" y="1052.0" type="line"/>
      <point x="230.6914893617021" y="490.0" type="line" smooth="yes"/>
      <point x="230.6914893617021" y="292.9090909090909"/>
      <point x="391.600580270793" y="73.51450676982591"/>
      <point x="532.6914893617021" y="68.27272727272727" type="qcurve"/>
      <point x="623.8191489361701" y="68.27272727272727" type="line"/>
      <point x="764.9100580270792" y="73.51450676982591"/>
      <point x="925.8191489361702" y="292.9090909090909"/>
      <point x="925.8191489361702" y="490.0" type="qcurve" smooth="yes"/>
      <point x="925.8191489361702" y="1052.0" type="line"/>
      <point x="1018.5106382978722" y="1052.0" type="line"/>
      <point x="1018.5106382978722" y="480.0" type="line" smooth="yes"/>
      <point x="1018.5106382978722" y="236.99999999999997"/>
      <point x="792.1595744680851" y="-15.212765957446807"/>
      <point x="623.2978723404254" y="-20.0" type="qcurve"/>
    </contour>
  </outline>
</glyph>
<glyph name="Zhe" format="2">
  <advance width="1685.7446808510635"/>
  <unicode hex="0416"/>
  <anchor x="842.0" y="1456.0" name="top"/>
  <anchor x="1487.0425531914893" y="0.0" name="cy_descender"/>
  <outline>
    <contour>
      <point x="794.9574468085107" y="0.0" type="line"/>
      <point x="794.9574468085107" y="1456.0" type="line"/>
      <point x="888.6063829787233" y="1456.0" type="line"/>
      <point x="888.6063829787233" y="0.0" type="line"/>
    </contour>
    <contour>
      <point x="1485.0425531914893" y="0.0" type="line"/>
      <point x="919.3152804642166" y="777.7272727272726" type="line"/>
      <point x="1027.723404255319" y="780.7765957446808" type="line"/>
      <point x="1597.8404255319147" y="0.0" type="line"/>
    </contour>
    <contour>
      <point x="841.0" y="830.0" type="line"/>
      <point x="1045.9516441005803" y="830.0" type="line"/>
      <point x="1509.3152804642166" y="1456.0" type="line"/>
      <point x="1630.860735009671" y="1456.0" type="line"/>
      <point x="1092.6789168278528" y="741.1818181818181" type="line"/>
      <point x="841.0" y="741.1818181818181" type="line"/>
    </contour>
    <contour>
      <point x="89.46808510638297" y="0.0" type="line"/>
      <point x="660.1063829787233" y="780.7765957446808" type="line"/>
      <point x="764.2301740812378" y="777.7272727272726" type="line"/>
      <point x="198.95744680851064" y="0.0" type="line"/>
    </contour>
    <contour>
      <point x="841.0" y="830.0" type="line"/>
      <point x="841.0" y="741.1818181818181" type="line"/>
      <point x="592.2301740812379" y="741.1818181818181" type="line"/>
      <point x="54.59381044487427" y="1456.0" type="line"/>
      <point x="177.2301740812379" y="1456.0" type="line"/>
      <point x="640.5938104448743" y="830.0" type="line"/>
    </contour>
  </outline>
</glyph>
<glyph name="Ze" format="2">
  <advance width="1068.1702127659573"/>
  <unicode hex="0417"/>
  <anchor x="551.563829787234" y="0.0" name="bottom"/>
  <outline>
    <contour>
      <point x="542.563829787234" y="62.63636363636364" type="qcurve" smooth="yes"/>
      <point x="709.2001934235975" y="62.63636363636364"/>
      <point x="873.563829787234" y="251.72727272727272"/>
      <point x="873.563829787234" y="420.0" type="qcurve" smooth="yes"/>
      <point x="873.563829787234" y="560.4545454545454"/>
      <point x="729.0183752417795" y="717.2727272727273"/>
      <point x="583.563829787234" y="716.8181818181818" type="qcurve" smooth="yes"/>
      <point x="351.563829787234" y="716.8181818181818" type="line"/>
      <point x="351.563829787234" y="805.090909090909" type="line"/>
      <point x="553.563829787234" y="805.090909090909" type="line" smooth="yes"/>
      <point x="697.2001934235976" y="805.090909090909"/>
      <point x="835.563829787234" y="946.6278910215086"/>
      <point x="835.563829787234" y="1075.0" type="qcurve" smooth="yes"/>
      <point x="835.563829787234" y="1228.5357641767214"/>
      <point x="684.1092843326885" y="1393.3636363636363"/>
      <point x="530.563829787234" y="1393.3636363636363" type="qcurve" smooth="yes"/>
      <point x="371.10928433268856" y="1393.3636363636363"/>
      <point x="198.56382978723403" y="1206.5454545454545"/>
      <point x="198.56382978723403" y="1022.0" type="qcurve" smooth="yes"/>
      <point x="198.56382978723403" y="1009.9999999999998" type="line"/>
      <point x="103.0" y="1009.9999999999998" type="line"/>
      <point x="103.0" y="1019.9999999999999" type="line" smooth="yes"/>
      <point x="103.0" y="1221.5212765957444"/>
      <point x="316.0" y="1486.0"/>
      <point x="528.563829787234" y="1486.0" type="qcurve" smooth="yes"/>
      <point x="716.8617021276596" y="1486.0"/>
      <point x="930.1702127659573" y="1287.1990844926277"/>
      <point x="930.1702127659573" y="1075.0" type="qcurve" smooth="yes"/>
      <point x="930.1702127659573" y="953.0063407073351"/>
      <point x="816.5912835875265" y="797.9435674977713"/>
      <point x="728.595744680851" y="768.0" type="qcurve"/>
      <point x="728.595744680851" y="764.0" type="line"/>
      <point x="832.8617021276596" y="734.6063829787233"/>
      <point x="968.1702127659573" y="560.0"/>
      <point x="968.1702127659573" y="420.0" type="qcurve" smooth="yes"/>
      <point x="968.1702127659573" y="206.0"/>
      <point x="733.7340425531914" y="-30.0"/>
      <point x="539.9574468085107" y="-30.0" type="qcurve" smooth="yes"/>
      <point x="335.30851063829783" y="-30.0"/>
      <point x="84.0" y="204.0"/>
      <point x="84.0" y="455.99999999999994" type="qcurve" smooth="yes"/>
      <point x="84.0" y="466.0" type="line"/>
      <point x="179.56382978723403" y="466.0" type="line"/>
      <point x="179.56382978723403" y="455.99999999999994" type="line" smooth="yes"/>
      <point x="179.56382978723403" y="258.8181818181818"/>
      <point x="363.2001934235976" y="62.63636363636364"/>
    </contour>
  </outline>
</glyph>
<glyph name="El" format="2">
  <advance width="1259.8191489361702"/>
  <unicode hex="041B"/>
  <outline>
    <contour>
      <point x="337.43617021276594" y="1456.0" type="line"/>
      <point x="1089.8191489361702" y="1456.0" type="line"/>
      <point x="1089.8191489361702" y="0.0" type="line"/>
      <point x="994.2553191489362" y="0.0" type="line"/>
      <point x="994.2553191489362" y="1366.6363636363635" type="line"/>
      <point x="421.89168278529974" y="1366.6363636363635" type="line"/>
      <point x="376.77659574468083" y="551.9042553191489" type="line" smooth="yes"/>
      <point x="360.2553191489361" y="258.0"/>
      <point x="260.8723404255319" y="-30.0"/>
      <point x="119.0" y="-30.0" type="qcurve" smooth="yes"/>
      <point x="95.0" y="-30.0"/>
      <point x="39.0" y="-23.0"/>
      <point x="10.0" y="-13.0" type="qcurve"/>
      <point x="10.0" y="79.63636363636363" type="line"/>
      <point x="34.0" y="71.63636363636363"/>
      <point x="74.0" y="66.63636363636363"/>
      <point x="95.0" y="66.63636363636363" type="qcurve" smooth="yes"/>
      <point x="189.72727272727272" y="66.63636363636363"/>
      <point x="273.09671179883946" y="302.3636363636364"/>
      <point x="287.9148936170212" y="568.2234042553191" type="qcurve" smooth="yes"/>
    </contour>
  </outline>
</glyph>
<glyph name="Che" format="2">
  <advance width="1195.127659574468"/>
  <unicode hex="0427"/>
  <guideline x="1123.0" y="741.0" angle="89.99999999999997" identifier="nfCxFSb4p1"/>
  <anchor x="978.0851063829787" y="0.0" name="cy_descender"/>
  <outline>
    <contour>
      <point x="235.56382978723403" y="1032.0" type="line" smooth="yes"/>
      <point x="235.56382978723403" y="837.1818181818182"/>
      <point x="384.9773951735416" y="666.2727272727273"/>
      <point x="572.0683042644507" y="666.2727272727273" type="qcurve" smooth="yes"/>
      <point x="691.0616131574391" y="666.2727272727273"/>
      <point x="877.0237602645091" y="686.7284035820454"/>
      <point x="976.563829787234" y="707.2727272727273" type="qcurve"/>
      <point x="976.563829787234" y="617.0" type="line"/>
      <point x="842.7041968755743" y="595.0230453428403"/>
      <point x="681.933831398089" y="576.0"/>
      <point x="557.0683042644507" y="576.0" type="qcurve" smooth="yes"/>
      <point x="313.30851063829783" y="576.0"/>
      <point x="140.52127659574467" y="807.0"/>
      <point x="140.0" y="1035.0" type="qcurve" smooth="yes"/>
      <point x="140.0" y="1456.0" type="line"/>
      <point x="235.56382978723403" y="1456.0" type="line"/>
    </contour>
    <contour>
      <point x="1025.127659574468" y="1456.0" type="line"/>
      <point x="1025.127659574468" y="0.0" type="line"/>
      <point x="929.563829787234" y="0.0" type="line"/>
      <point x="929.563829787234" y="1456.0" type="line"/>
    </contour>
  </outline>
</glyph>
<glyph name="Ecyr" format="2">
  <advance width="1165.0851063829787"/>
  <unicode hex="042D"/>
  <guideline x="1147.0" y="753.0" angle="89.99999999999997" identifier="Ovo68woMtl"/>
  <anchor x="554.9042553191489" y="1456.0" name="top"/>
  <outline>
    <contour>
      <point x="1001.0425531914893" y="796.3636363636363" type="line"/>
      <point x="1001.0425531914893" y="707.0" type="line"/>
      <point x="317.46808510638294" y="707.0" type="line"/>
      <point x="317.46808510638294" y="796.3636363636363" type="line"/>
    </contour>
    <contour>
      <point x="953.563829787234" y="674.0" type="qcurve" smooth="yes"/>
      <point x="953.563829787234" y="797.0" type="line" smooth="yes"/>
      <point x="953.563829787234" y="1085.8781431334623"/>
      <point x="742.2794970986461" y="1393.3636363636363"/>
      <point x="555.3829787234042" y="1393.3636363636363" type="qcurve" smooth="yes"/>
      <point x="375.3036750483559" y="1393.3636363636363"/>
      <point x="179.56382978723403" y="1181.3452611218568"/>
      <point x="179.56382978723403" y="1001.4361702127659" type="qcurve" smooth="yes"/>
      <point x="179.56382978723403" y="990.0" type="line"/>
      <point x="84.0" y="990.0" type="line"/>
      <point x="84.0" y="1001.4361702127659" type="line" smooth="yes"/>
      <point x="84.0" y="1207.7021276595744"/>
      <point x="342.4255319148936" y="1486.0"/>
      <point x="559.5531914893616" y="1486.0" type="qcurve" smooth="yes"/>
      <point x="780.5106382978722" y="1486.0"/>
      <point x="1050.0851063829787" y="1113.351063829787"/>
      <point x="1050.0851063829787" y="784.0531914893617" type="qcurve" smooth="yes"/>
      <point x="1050.0851063829787" y="693.9680851063829" type="line" smooth="yes"/>
      <point x="1050.0851063829787" y="338.8191489361702"/>
      <point x="774.7659574468084" y="-30.0"/>
      <point x="557.1595744680851" y="-30.0" type="qcurve" smooth="yes"/>
      <point x="341.468085106383" y="-30.0"/>
      <point x="94.94680851063829" y="257.2388189318085"/>
      <point x="84.52127659574467" y="458.39361702127655" type="qcurve" smooth="yes"/>
      <point x="84.0" y="466.0" type="line"/>
      <point x="179.56382978723403" y="466.0" type="line"/>
      <point x="180.08510638297872" y="458.39361702127655" type="line" smooth="yes"/>
      <point x="188.94680851063828" y="274.1808510638298"/>
      <point x="379.35976789168274" y="62.63636363636364"/>
      <point x="552.9893617021276" y="62.63636363636364" type="qcurve" smooth="yes"/>
      <point x="741.8965183752417" y="62.63636363636364"/>
      <point x="953.563829787234" y="386.1208897485493"/>
    </contour>
  </outline>
</glyph>
<glyph name="Ya" format="2">
  <advance width="1057.127659574468"/>
  <unicode hex="042F"/>
  <anchor x="507.6914893617021" y="1456.0" name="top"/>
  <outline>
    <contour>
      <point x="40.0" y="0.0" type="line"/>
      <point x="396.27272727272725" y="658.3636363636363" type="line"/>
      <point x="486.14506769825914" y="637.8423597678916" type="line"/>
      <point x="143.2234042553191" y="0.0" type="line"/>
    </contour>
    <contour>
      <point x="791.563829787234" y="0.0" type="line"/>
      <point x="791.563829787234" y="1367.7272727272725" type="line"/>
      <point x="509.563829787234" y="1367.7272727272725" type="line" smooth="yes"/>
      <point x="354.01837524177944" y="1367.7272727272725"/>
      <point x="213.56382978723403" y="1183.5454545454545"/>
      <point x="213.56382978723403" y="1028.0" type="qcurve" smooth="yes"/>
      <point x="213.56382978723403" y="871.090909090909"/>
      <point x="354.01837524177944" y="682.2727272727273"/>
      <point x="509.563829787234" y="682.2727272727273" type="qcurve" smooth="yes"/>
      <point x="835.691489361702" y="682.2727272727273" type="line"/>
      <point x="835.691489361702" y="594.0" type="line"/>
      <point x="453.69148936170205" y="594.0" type="line"/>
      <point x="429.54255319148933" y="604.0" type="line"/>
      <point x="283.1170212765957" y="627.3936170212767"/>
      <point x="118.0" y="858.0"/>
      <point x="118.0" y="1028.0" type="qcurve" smooth="yes"/>
      <point x="118.0" y="1222.0"/>
      <point x="373.563829787234" y="1456.0"/>
      <point x="607.563829787234" y="1456.0" type="qcurve" smooth="yes"/>
      <point x="887.127659574468" y="1456.0" type="line"/>
      <point x="887.127659574468" y="0.0" type="line"/>
    </contour>
  </outline>
</glyph>
<glyph name="be" format="2">
  <advance width="981.2127659574468"/>
  <unicode hex="0431"/>
  <outline>
    <contour>
      <point x="189.60638297872336" y="528.7765957446808" type="qcurve" smooth="yes"/>
      <point x="189.60638297872336" y="508.76595744680856" type="line" smooth="yes"/>
      <point x="189.60638297872336" y="293.18181818181813"/>
      <point x="345.87911025145064" y="56.09090909090908"/>
      <point x="495.60638297872333" y="56.09090909090908" type="qcurve" smooth="yes"/>
      <point x="645.3336557059961" y="56.09090909090908"/>
      <point x="801.6063829787233" y="293.18181818181813"/>
      <point x="801.6063829787233" y="490.0" type="qcurve" smooth="yes"/>
      <point x="801.6063829787233" y="522.0" type="line" smooth="yes"/>
      <point x="801.6063829787233" y="717.9090909090909"/>
      <point x="645.3336557059961" y="954.090909090909"/>
      <point x="495.60638297872333" y="954.090909090909" type="qcurve" smooth="yes"/>
      <point x="345.87911025145064" y="954.090909090909"/>
      <point x="189.60638297872336" y="717.9090909090909"/>
    </contour>
    <contour>
      <point x="510.32978723404256" y="1042.0" type="qcurve" smooth="yes"/>
      <point x="688.0531914893617" y="1042.0"/>
      <point x="896.2127659574467" y="745.0"/>
      <point x="896.2127659574467" y="522.0" type="qcurve" smooth="yes"/>
      <point x="896.2127659574467" y="490.0" type="line" smooth="yes"/>
      <point x="896.2127659574467" y="261.0"/>
      <point x="677.2978723404256" y="-30.0"/>
      <point x="495.08510638297867" y="-30.0" type="qcurve" smooth="yes"/>
      <point x="306.43617021276594" y="-30.0"/>
      <point x="95.0" y="263.0"/>
      <point x="95.0" y="563.2978723404256" type="qcurve" smooth="yes"/>
      <point x="95.0" y="631.0" type="line" smooth="yes"/>
      <point x="95.0" y="984.0"/>
      <point x="301.27272727272725" y="1313.86750483559"/>
      <point x="537.2021276595744" y="1358.4003868471955" type="qcurve" smooth="yes"/>
      <point x="622.968394585012" y="1374.6475081140884"/>
      <point x="694.1277949523138" y="1467.23471944242"/>
      <point x="704.6489361702127" y="1536.0" type="qcurve"/>
      <point x="868.6489361702127" y="1536.0" type="line"/>
      <point x="859.5338491295937" y="1445.5454545454545"/>
      <point x="703.522243713733" y="1377.095744680851"/>
      <point x="547.2553191489361" y="1348.8713733075433" type="qcurve" smooth="yes"/>
      <point x="354.2004171732108" y="1312.385909794115"/>
      <point x="179.57748494622336" y="1032.2455506716924"/>
      <point x="166.62765957446805" y="741.5744680851063" type="qcurve"/>
      <point x="173.9787234042553" y="741.0531914893617" type="line"/>
      <point x="220.24468085106378" y="909.3510638297872"/>
      <point x="392.61702127659566" y="1042.0"/>
    </contour>
  </outline>
</glyph>
<glyph name="ka" format="2">
  <advance width="949.691489361702"/>
  <unicode hex="043A"/>
  <guideline x="241.0" y="552.9999999999999" angle="89.99999999999997" identifier="lmgRx0QBdK"/>
  <anchor x="494.6914893617021" y="1052.0" name="top"/>
  <anchor x="797.3829787234042" y="0.0" name="cy_descender"/>
  <outline>
    <contour>
      <point x="792.0135396518375" y="0.0" type="line"/>
      <point x="359.9816247582205" y="491.59574468085106" type="line"/>
      <point x="418.1382978723404" y="552.9574468085107" type="line"/>
      <point x="906.3085106382978" y="0.0" type="line"/>
    </contour>
    <contour>
      <point x="192.40038684719536" y="551.3636363636363" type="line"/>
      <point x="323.0551257253385" y="551.3636363636363" type="line"/>
      <point x="762.1460348162475" y="1052.0" type="line"/>
      <point x="885.600580270793" y="1052.0" type="line"/>
      <point x="371.50967117988387" y="469.09090909090907" type="line"/>
      <point x="192.40038684719536" y="469.09090909090907" type="line"/>
    </contour>
    <contour>
      <point x="240.6914893617021" y="1052.0" type="line"/>
      <point x="240.6914893617021" y="0.0" type="line"/>
      <point x="148.45454545454544" y="0.0" type="line"/>
      <point x="148.45454545454544" y="1052.0" type="line"/>
    </contour>
  </outline>
</glyph>
<glyph name="che" format="2">
  <advance width="908.3829787234042"/>
  <unicode hex="0447"/>
  <guideline x="855.0" y="515.0" angle="89.99999999999997" identifier="GGEFes61Q6"/>
  <anchor x="713.7420009745005" y="0.0" name="cy_descender"/>
  <outline>
    <contour>
      <point x="217.69944778301118" y="773.0" type="line" smooth="yes"/>
      <point x="217.69944778301118" y="621.090909090909"/>
      <point x="323.97217505573843" y="479.72727272727275"/>
      <point x="439.6994477830111" y="479.72727272727275" type="qcurve" smooth="yes"/>
      <point x="528.6994477830111" y="479.72727272727275"/>
      <point x="648.7207243787559" y="500.51450676982586"/>
      <point x="713.2632775702452" y="516.7804642166344" type="qcurve"/>
      <point x="713.2632775702452" y="433.57446808510633" type="line"/>
      <point x="657.4547669319473" y="419.78723404255317"/>
      <point x="548.5505116127983" y="396.0"/>
      <point x="443.3164690596069" y="396.0" type="qcurve" smooth="yes"/>
      <point x="275.98668182556435" y="396.0"/>
      <point x="124.4866818255644" y="583.0"/>
      <point x="125.00795842130907" y="773.0" type="qcurve" smooth="yes"/>
      <point x="125.00795842130907" y="1052.0" type="line"/>
      <point x="217.69944778301118" y="1052.0" type="line"/>
    </contour>
    <contour>
      <point x="760.3909371447132" y="1052.0" type="line"/>
      <point x="760.3909371447132" y="0.0" type="line"/>
      <point x="667.6994477830111" y="0.0" type="line"/>
      <point x="667.6994477830111" y="1052.0" type="line"/>
    </contour>
  </outline>
</glyph>
<glyph name="hard" format="2">
  <advance width="1033.3829787234042"/>
  <unicode hex="044A"/>
  <outline>
    <contour>
      <point x="320.0" y="0.0" type="line"/>
      <point x="320.0" y="969.7272727272727" type="line"/>
      <point x="30.0" y="969.7272727272727" type="line"/>
      <point x="30.0" y="1052.0" type="line"/>
      <point x="412.6914893617021" y="1052.0" type="line"/>
      <point x="412.6914893617021" y="82.27272727272727" type="line"/>
      <point x="654.6914893617021" y="82.27272727272727" type="line" smooth="yes"/>
      <point x="772.4187620889747" y="82.27272727272727"/>
      <point x="880.691489361702" y="225.45454545454544"/>
      <point x="880.691489361702" y="348.0" type="qcurve" smooth="yes"/>
      <point x="880.691489361702" y="469.0909090909091"/>
      <point x="772.4187620889747" y="609.7272727272727"/>
      <point x="654.6914893617021" y="609.7272727272727" type="qcurve" smooth="yes"/>
      <point x="367.0" y="609.7272727272727" type="line"/>
      <point x="367.0" y="692.0" type="line"/>
      <point x="633.8404255319149" y="692.0" type="line" smooth="yes"/>
      <point x="796.3936170212766" y="692.0"/>
      <point x="973.3829787234042" y="505.99999999999994"/>
      <point x="973.3829787234042" y="348.0" type="qcurve" smooth="yes"/>
      <point x="973.3829787234042" y="190.0"/>
      <point x="796.3936170212766" y="0.0"/>
      <point x="633.8404255319149" y="0.0" type="qcurve" smooth="yes"/>
    </contour>
  </outline>
</glyph>
<glyph name="ya" format="2">
  <advance width="964.7872340425531"/>
  <unicode hex="044F"/>
  <anchor x="522.0957446808509" y="1052.0" name="top"/>
  <outline>
    <contour>
      <point x="85.0" y="0.0" type="line"/>
      <point x="385.25338491295935" y="422.0232108317214" type="line"/>
      <point x="477.9206963249517" y="414.27272727272725" type="line"/>
      <point x="186.8297872340425" y="0.0" type="line"/>
    </contour>
    <contour>
      <point x="154.96808510638297" y="716.0" type="qcurve" smooth="yes"/>
      <point x="154.96808510638297" y="869.0"/>
      <point x="330.6063829787234" y="1052.0"/>
      <point x="493.37234042553183" y="1052.0" type="qcurve" smooth="yes"/>
      <point x="816.7872340425531" y="1052.0" type="line"/>
      <point x="816.7872340425531" y="0.0" type="line"/>
      <point x="724.095744680851" y="0.0" type="line"/>
      <point x="724.095744680851" y="969.7272727272727" type="line"/>
      <point x="462.095744680851" y="969.7272727272727" type="line" smooth="yes"/>
      <point x="349.91392649903287" y="969.7272727272727"/>
      <point x="246.09574468085103" y="833.5574774603384"/>
      <point x="246.09574468085103" y="716.0" type="qcurve" smooth="yes"/>
      <point x="246.09574468085103" y="599.3749824405947"/>
      <point x="349.3684719535783" y="466.27272727272725"/>
      <point x="462.095744680851" y="466.27272727272725" type="qcurve" smooth="yes"/>
      <point x="768.7446808510638" y="466.27272727272725" type="line"/>
      <point x="768.7446808510638" y="384.0" type="line"/>
      <point x="448.8191489361702" y="384.0" type="line"/>
      <point x="436.031914893617" y="390.5454545454545" type="line"/>
      <point x="320.1808510638298" y="390.5454545454545"/>
      <point x="154.96808510638297" y="569.0"/>
    </contour>
  </outline>
</glyph>
<glyph name="Gheup" format="2">
  <advance width="980.5638297872339"/>
  <unicode hex="0490"/>
  <outline>
    <contour>
      <point x="170.0" y="0.0" type="line"/>
      <point x="170.0" y="1456.0" type="line"/>
      <point x="783.563829787234" y="1456.0" type="line"/>
      <point x="783.563829787234" y="1746.0" type="line"/>
      <point x="955.563829787234" y="1746.0" type="line"/>
      <point x="955.563829787234" y="1367.090909090909" type="line"/>
      <point x="265.563829787234" y="1367.090909090909" type="line"/>
      <point x="265.563829787234" y="0.0" type="line"/>
    </contour>
  </outline>
</glyph>
<glyph name="Kabashkircyr" format="2">
  <advance width="1495.0"/>
  <unicode hex="04A0"/>
  <outline>
    <contour>
      <point x="1340.9651837524177" y="0.0" type="line"/>
      <point x="681.147001934236" y="777.7272727272726" type="line"/>
      <point x="792.6885880077368" y="780.7765957446808" type="line"/>
      <point x="1458.1141199226306" y="0.0" type="line"/>
    </contour>
    <contour>
      <point x="546.0183752417795" y="830.0" type="line"/>
      <point x="756.9274661508704" y="830.0" type="line"/>
      <point x="1301.9274661508703" y="1456.0" type="line"/>
      <point x="1423.4729206963248" y="1456.0" type="line"/>
      <point x="799.9274661508703" y="740.6363636363635" type="line"/>
      <point x="546.0183752417795" y="740.6363636363635" type="line"/>
    </contour>
    <contour>
      <point x="497.45454545454544" y="0.0" type="line"/>
      <point x="497.45454545454544" y="1366.6363636363635" type="line"/>
      <point x="122.0" y="1366.6363636363635" type="line"/>
      <point x="122.0" y="1456.0" type="line"/>
      <point x="593.0183752417795" y="1456.0" type="line"/>
      <point x="593.0183752417795" y="0.0" type="line"/>
    </contour>
  </outline>
</glyph>
<glyph name="kabashkircyr" format="2">
  <advance width="1120.127659574468"/>
  <unicode hex="04A1"/>
  <outline>
    <contour>
      <point x="967.1411992263056" y="0.0" type="line"/>
      <point x="518.9497098646034" y="511.9255319148936" type="line"/>
      <point x="577.627659574468" y="573.2872340425531" type="line"/>
      <point x="1081.4361702127658" y="0.0" type="line"/>
    </contour>
    <contour>
      <point x="364.44874274661504" y="551.3636363636363" type="line"/>
      <point x="495.0551257253385" y="551.3636363636363" type="line"/>
      <point x="934.1460348162475" y="1052.0" type="line"/>
      <point x="1057.600580270793" y="1052.0" type="line"/>
      <point x="543.5096711798839" y="469.09090909090907" type="line"/>
      <point x="364.44874274661504" y="469.09090909090907" type="line"/>
    </contour>
    <contour>
      <point x="412.6914893617021" y="1052.0" type="line"/>
      <point x="412.6914893617021" y="0.0" type="line"/>
      <point x="320.45454545454544" y="0.0" type="line"/>
      <point x="320.45454545454544" y="969.7272727272727" type="line"/>
      <point x="30.0" y="969.7272727272727" type="line"/>
      <point x="30.0" y="1052.0" type="line"/>
    </contour>
  </outline>
</glyph>
<glyph name="Cheverticalstroke-cy" format="2">
  <advance width="1195.127659574468"/>
  <unicode hex="04B8"/>
  <outline>
    <contour>
      <point x="669.563829787234" y="1105.9999999999998" type="line"/>
      <point x="669.563829787234" y="250.0" type="line"/>
      <point x="499.563829787234" y="250.0" type="line"/>
      <point x="499.563829787234" y="1105.9999999999998" type="line"/>
    </contour>
    <contour>
      <point x="235.56382978723403" y="1032.0" type="line" smooth="yes"/>
      <point x="235.56382978723403" y="837.1818181818182"/>
      <point x="384.97292069632493" y="666.7272727272727"/>
      <point x="572.063829787234" y="666.7272727272727" type="qcurve" smooth="yes"/>
      <point x="691.063829787234" y="666.7272727272727"/>
      <point x="877.0425531914893" y="686.7272727272727"/>
      <point x="977.0425531914893" y="707.7272727272727" type="qcurve"/>
      <point x="977.0425531914893" y="617.0" type="line"/>
      <point x="843.0425531914893" y="595.0"/>
      <point x="682.063829787234" y="576.0"/>
      <point x="557.063829787234" y="576.0" type="qcurve" smooth="yes"/>
      <point x="313.30851063829783" y="576.0"/>
      <point x="140.52127659574467" y="807.0"/>
      <point x="140.0" y="1035.0" type="qcurve" smooth="yes"/>
      <point x="140.0" y="1456.0" type="line"/>
      <point x="235.56382978723403" y="1456.0" type="line"/>
    </contour>
    <contour>
      <point x="1025.127659574468" y="1456.0" type="line"/>
      <point x="1025.127659574468" y="0.0" type="line"/>
      <point x="929.563829787234" y="0.0" type="line"/>
      <point x="929.563829787234" y="1456.0" type="line"/>
    </contour>
  </outline>
</glyph>
<glyph name="Shha" format="2">
  <advance width="1195.127659574468"/>
  <unicode hex="04BA"/>
  <outline>
    <contour>
      <point x="959.563829787234" y="424.0" type="line" smooth="yes"/>
      <point x="959.563829787234" y="618.8181818181818"/>
      <point x="785.654738878143" y="789.2727272727273"/>
      <point x="598.563829787234" y="789.2727272727273" type="qcurve" smooth="yes"/>
      <point x="479.5705208942456" y="789.2727272727273"/>
      <point x="317.0613461184695" y="768.817050963409"/>
      <point x="217.52127659574467" y="748.2727272727273" type="qcurve"/>
      <point x="217.52127659574467" y="839.0" type="line"/>
      <point x="351.3809095074042" y="860.9769546571595"/>
      <point x="488.69830265359576" y="880.0"/>
      <point x="613.563829787234" y="880.0" type="qcurve" smooth="yes"/>
      <point x="869.3085106382978" y="880.0"/>
      <point x="1055.6489361702127" y="669.8510638297871"/>
      <point x="1055.127659574468" y="420.99999999999994" type="qcurve" smooth="yes"/>
      <point x="1055.127659574468" y="0.0" type="line"/>
      <point x="959.563829787234" y="0.0" type="line"/>
    </contour>
    <contour>
      <point x="170.0" y="0.0" type="line"/>
      <point x="170.0" y="1456.0" type="line"/>
      <point x="265.563829787234" y="1456.0" type="line"/>
      <point x="265.563829787234" y="0.0" type="line"/>
    </contour>
  </outline>
</glyph>
<glyph name="Germandbls" format="2">
  <advance width="1250.3936170212764"/>
  <unicode hex="1E9E"/>
  <outline>
    <contour>
      <point x="176.43617021276594" y="1066.0" type="line" smooth="yes"/>
      <point x="176.43617021276594" y="1266.478723404255"/>
      <point x="344.78723404255317" y="1510.5212765957444"/>
      <point x="516.127659574468" y="1510.5212765957444" type="qcurve" smooth="yes"/>
      <point x="708.2446808510638" y="1510.5212765957444"/>
      <point x="865.2234042553191" y="1351.1702127659573"/>
      <point x="865.2234042553191" y="1236.1808510638298" type="qcurve" smooth="yes"/>
      <point x="865.2234042553191" y="1158.159574468085"/>
      <point x="775.2553191489361" y="1038.1489361702127"/>
      <point x="701.7021276595744" y="982.6808510638298" type="qcurve" smooth="yes"/>
      <point x="639.7553191489361" y="936.2978723404254"/>
      <point x="590.4893617021276" y="884.127659574468"/>
      <point x="590.4893617021276" y="855.2659574468084" type="qcurve" smooth="yes"/>
      <point x="590.4893617021276" y="821.191489361702"/>
      <point x="667.4361702127659" y="767.9893617021276"/>
      <point x="819.3829787234042" y="712.0212765957447" type="qcurve" smooth="yes"/>
      <point x="1013.4255319148936" y="639.9361702127659"/>
      <point x="1170.3936170212764" y="473.48936170212767"/>
      <point x="1170.3936170212764" y="333.39361702127655" type="qcurve" smooth="yes"/>
      <point x="1170.3936170212764" y="182.70212765957444"/>
      <point x="975.8723404255318" y="-30.0"/>
      <point x="818.5425531914893" y="-30.0" type="qcurve" smooth="yes"/>
      <point x="623.3723404255318" y="-30.0"/>
      <point x="418.60638297872333" y="144.18085106382978"/>
      <point x="418.60638297872333" y="337.4787234042553" type="qcurve" smooth="yes"/>
      <point x="418.60638297872333" y="350.0" type="line"/>
      <point x="519.4361702127659" y="350.0" type="line"/>
      <point x="519.4361702127659" y="337.4787234042553" type="line" smooth="yes"/>
      <point x="519.4361702127659" y="192.3742746615087"/>
      <point x="668.2688588007736" y="63.18181818181817"/>
      <point x="812.2340425531913" y="63.18181818181817" type="qcurve" smooth="yes"/>
      <point x="928.943907156673" y="63.18181818181817"/>
      <point x="1072.436170212766" y="213.56479690522244"/>
      <point x="1072.436170212766" y="330.0" type="qcurve" smooth="yes"/>
      <point x="1072.436170212766" y="444.20212765957444"/>
      <point x="934.7021276595744" y="567.9148936170212"/>
      <point x="753.2765957446809" y="635.6063829787233" type="qcurve" smooth="yes"/>
      <point x="581.5744680851064" y="699.7978723404256"/>
      <point x="478.6489361702128" y="780.8510638297872"/>
      <point x="478.6489361702128" y="840.9042553191489" type="qcurve" smooth="yes"/>
      <point x="478.6489361702128" y="896.1808510638298"/>
      <point x="537.5319148936169" y="967.1063829787233"/>
      <point x="621.1063829787233" y="1028.3723404255318" type="qcurve" smooth="yes"/>
      <point x="698.9255319148936" y="1085.6702127659573"/>
      <point x="768.2234042553191" y="1173.0425531914893"/>
      <point x="768.2234042553191" y="1229.0" type="qcurve" smooth="yes"/>
      <point x="768.2234042553191" y="1313.2659574468084"/>
      <point x="652.9371373307544" y="1418.9090909090908"/>
      <point x="516.2727272727273" y="1418.9090909090908" type="qcurve" smooth="yes"/>
      <point x="394.21760154738877" y="1418.9090909090908"/>
      <point x="272.0" y="1230.8065764023208"/>
      <point x="272.0" y="1051.6382978723404" type="qcurve" smooth="yes"/>
      <point x="272.0" y="334.1489361702127" type="line" smooth="yes"/>
      <point x="272.0" y="163.14893617021275"/>
      <point x="163.38297872340422" y="-16.0"/>
      <point x="68.0" y="-16.0" type="qcurve" smooth="yes"/>
      <point x="55.0" y="-16.0"/>
      <point x="28.0" y="-14.0"/>
      <point x="15.0" y="-12.0" type="qcurve"/>
      <point x="13.90909090909091" y="91.09090909090908" type="line"/>
      <point x="22.0" y="88.99999999999999"/>
      <point x="41.0" y="86.99999999999999"/>
      <point x="58.18181818181818" y="86.99999999999999" type="qcurve" smooth="yes"/>
      <point x="115.45454545454544" y="86.99999999999999"/>
      <point x="176.43617021276594" y="212.63636363636363"/>
      <point x="176.43617021276594" y="355.0" type="qcurve" smooth="yes"/>
    </contour>
  </outline>
</glyph>
<glyph name="quotedblright" format="2">
  <advance width="830.0"/>
  <unicode hex="201D"/>
  <outline>
    <contour>
      <point x="272.12765957446805" y="1456.0" type="line"/>
      <point x="272.12765957446805" y="1328.0" type="line" smooth="yes"/>
      <point x="272.12765957446805" y="1238.0"/>
      <point x="226.99999999999997" y="1034.0"/>
      <point x="145.0" y="966.0" type="qcurve"/>
      <point x="39.0" y="1039.0" type="line"/>
      <point x="88.60638297872339" y="1102.3936170212764"/>
      <point x="180.91489361702128" y="1244.0"/>
      <point x="180.39361702127658" y="1325.0" type="qcurve" smooth="yes"/>
      <point x="180.39361702127658" y="1456.0" type="line"/>
    </contour>
    <contour>
      <point x="692.127659574468" y="1456.0" type="line"/>
      <point x="692.127659574468" y="1328.0" type="line" smooth="yes"/>
      <point x="692.127659574468" y="1238.0"/>
      <point x="647.0" y="1034.0"/>
      <point x="565.0" y="966.0" type="qcurve"/>
      <point x="459.0" y="1039.0" type="line"/>
      <point x="508.6063829787234" y="1102.3936170212764"/>
      <point x="600.9148936170213" y="1244.0"/>
      <point x="600.3936170212767" y="1325.0" type="qcurve" smooth="yes"/>
      <point x="600.3936170212767" y="1456.0" type="line"/>
    </contour>
  </outline>
</glyph>
<glyph name="dagger" format="2">
  <advance width="928.2446808510638"/>
  <unicode hex="2020"/>
  <outline>
    <contour>
      <point x="75.0" y="890.1818181818181" type="line"/>
      <point x="75.0" y="987.7272727272726" type="line"/>
      <point x="853.2446808510638" y="987.7272727272726" type="line"/>
      <point x="853.2446808510638" y="890.1818181818181" type="line"/>
    </contour>
    <contour>
      <point x="413.3829787234042" y="8.0" type="line"/>
      <point x="423.43617021276594" y="748.0" type="line"/>
      <point x="423.43617021276594" y="905.0" type="line"/>
      <point x="415.2978723404255" y="1508.0" type="line"/>
      <point x="510.3829787234042" y="1508.0" type="line"/>
      <point x="502.24468085106383" y="905.0" type="line"/>
      <point x="502.24468085106383" y="748.0" type="line"/>
      <point x="513.8617021276596" y="8.0" type="line"/>
      <point x="511.9468085106382" y="-274.0" type="line"/>
      <point x="474.39361702127655" y="-415.0"/>
      <point x="453.32978723404256" y="-416.0"/>
      <point x="415.2978723404255" y="-274.0" type="qcurve"/>
    </contour>
  </outline>
</glyph>
<glyph name="bullet" format="2">
  <advance width="557.7659574468084"/>
  <unicode hex="2022"/>
  <outline>
    <contour>
      <point x="104.0" y="773.5212765957447" type="qcurve" smooth="yes"/>
      <point x="104.0" y="843.6489361702127"/>
      <point x="202.40425531914892" y="948.4042553191489"/>
      <point x="278.8829787234042" y="948.4042553191489" type="qcurve" smooth="yes"/>
      <point x="355.36170212765956" y="948.4042553191489"/>
      <point x="453.76595744680844" y="843.6489361702127"/>
      <point x="453.76595744680844" y="773.5212765957447" type="qcurve" smooth="yes"/>
      <point x="453.76595744680844" y="704.3510638297872"/>
      <point x="355.36170212765956" y="599.595744680851"/>
      <point x="278.8829787234042" y="599.595744680851" type="qcurve" smooth="yes"/>
      <point x="202.40425531914892" y="599.595744680851"/>
      <point x="104.0" y="704.3510638297872"/>
    </contour>
  </outline>
</glyph>
<glyph name="second" format="2">
  <advance width="1054.0"/>
  <unicode hex="2033"/>
  <outline>
    <contour>
      <point x="100.0" y="964.0" type="line"/>
      <point x="441.9148936170212" y="1532.9361702127658" type="line"/>
      <point x="535.8723404255319" y="1480.6702127659573" type="line"/>
      <point x="231.0" y="884.0" type="line"/>
    </contour>
    <contour>
      <point x="501.0" y="964.0" type="line"/>
      <point x="842.9148936170213" y="1532.9361702127658" type="line"/>
      <point x="936.8723404255318" y="1480.6702127659573" type="line"/>
      <point x="632.0" y="884.0" type="line"/>
    </contour>
  </outline>
</glyph>
<glyph name="fraction" format="2">
  <advance width="342.0"/>
  <unicode hex="2044"/>
  <guideline y="901.0" identifier="tcCoNUQTdD"/>
  <guideline y="555.0" identifier="0lx51aIE0d"/>
  <outline>
    <contour>
      <point x="675.691489361702" y="1456.0" type="line"/>
      <point x="-242.3085106382979" y="0.0" type="line"/>
      <point x="-334.2127659574468" y="-1.5638297872340425" type="line"/>
      <point x="583.7872340425531" y="1454.4361702127658" type="line"/>
    </contour>
  </outline>
</glyph>
<glyph name="commercialMinusSign" format="2">
  <advance width="795.691489361702"/>
  <unicode hex="2052"/>
  <outline>
    <contour>
      <point x="60.99999999999999" y="-2.0" type="line"/>
      <point x="646.0" y="1501.0" type="line"/>
      <point x="730.595744680851" y="1479.8936170212764" type="line"/>
      <point x="145.07446808510636" y="-23.1063829787234" type="line"/>
    </contour>
    <contour>
      <point x="410.6489361702127" y="148.0" type="qcurve" smooth="yes"/>
      <point x="410.6489361702127" y="213.0"/>
      <point x="501.6489361702127" y="310.0"/>
      <point x="572.6489361702127" y="310.0" type="qcurve" smooth="yes"/>
      <point x="643.6489361702127" y="310.0"/>
      <point x="734.6489361702127" y="213.0"/>
      <point x="734.6489361702127" y="148.0" type="qcurve" smooth="yes"/>
      <point x="734.6489361702127" y="84.0"/>
      <point x="643.6489361702127" y="-13.0"/>
      <point x="572.6489361702127" y="-13.0" type="qcurve" smooth="yes"/>
      <point x="501.6489361702127" y="-13.0"/>
      <point x="410.6489361702127" y="84.0"/>
    </contour>
    <contour>
      <point x="60.0" y="1304.0" type="qcurve" smooth="yes"/>
      <point x="60.0" y="1369.0"/>
      <point x="151.0" y="1466.0"/>
      <point x="222.0" y="1466.0" type="qcurve" smooth="yes"/>
      <point x="293.0" y="1466.0"/>
      <point x="384.0" y="1369.0"/>
      <point x="384.0" y="1304.0" type="qcurve" smooth="yes"/>
      <point x="384.0" y="1240.0"/>
      <point x="293.0" y="1143.0"/>
      <point x="222.0" y="1143.0" type="qcurve" smooth="yes"/>
      <point x="151.0" y="1143.0"/>
      <point x="60.0" y="1240.0"/>
    </contour>
  </outline>
</glyph>
<glyph name="foursuperior" format="2">
  <advance width="671.2446808510638"/>
  <unicode hex="2074"/>
  <outline>
    <contour>
      <point x="435.0" y="697.0" type="line"/>
      <point x="435.0" y="928.0" type="line"/>
      <point x="435.0" y="952.0" type="line"/>
      <point x="435.0" y="1397.9090909090908" type="line"/>
      <point x="435.0" y="1397.9090909090908" type="line"/>
      <point x="152.9090909090909" y="1009.9999999999998" type="line"/>
      <point x="470.46808510638294" y="1009.9999999999998" type="line"/>
      <point x="483.0" y="1009.9999999999998" type="line"/>
      <point x="620.2446808510638" y="1009.9999999999998" type="line"/>
      <point x="620.2446808510638" y="880.0" type="line"/>
      <point x="54.0" y="880.0" type="line"/>
      <point x="54.0" y="981.9999999999999" type="line"/>
      <point x="432.45454545454544" y="1496.0" type="line"/>
      <point x="513.8085106382978" y="1496.0" type="line"/>
      <point x="513.8085106382978" y="697.0" type="line"/>
    </contour>
  </outline>
</glyph>
<glyph name="peseta" format="2">
  <advance width="1397.4255319148936"/>
  <unicode hex="20A7"/>
  <outline>
    <contour>
      <point x="450.6489361702128" y="565.0" type="qcurve"/>
      <point x="238.58510638297872" y="565.0" type="line"/>
      <point x="238.58510638297872" y="651.090909090909" type="line"/>
      <point x="450.6489361702128" y="651.090909090909" type="line"/>
      <point x="605.4703657726836" y="651.090909090909"/>
      <point x="726.0851063829787" y="853.0800831432784"/>
      <point x="726.0851063829787" y="1008.9999999999999" type="qcurve"/>
      <point x="726.0851063829787" y="1166.4531019948622"/>
      <point x="605.4703657726836" y="1369.909090909091"/>
      <point x="450.6489361702128" y="1369.909090909091" type="qcurve"/>
      <point x="259.2127659574468" y="1369.909090909091" type="line"/>
      <point x="259.2127659574468" y="0.0" type="line"/>
      <point x="167.0" y="0.0" type="line"/>
      <point x="167.0" y="1456.0" type="line"/>
      <point x="450.6489361702128" y="1456.0" type="line"/>
      <point x="633.1818037472127" y="1456.0"/>
      <point x="818.7765957446808" y="1202.0214353763085"/>
      <point x="818.7765957446808" y="1009.9574468085106" type="qcurve"/>
      <point x="818.7765957446808" y="819.1000317561223"/>
      <point x="633.1818037472127" y="565.0"/>
    </contour>
    <contour>
      <point x="1270.4255319148936" y="1026.0" type="line"/>
      <point x="1270.4255319148936" y="945.3636363636363" type="line"/>
      <point x="788.2127659574467" y="945.3636363636363" type="line"/>
      <point x="788.2127659574467" y="1026.0" type="line"/>
    </contour>
    <contour>
      <point x="957.7765957446809" y="1345.0" type="line"/>
      <point x="1049.9893617021276" y="1345.0" type="line"/>
      <point x="1049.9893617021276" y="268.0" type="line"/>
      <point x="1049.9893617021276" y="162.27669678685925"/>
      <point x="1116.4190363463151" y="72.18181818181817"/>
      <point x="1167.4255319148933" y="72.18181818181817" type="qcurve" smooth="yes"/>
      <point x="1210.3997661595308" y="72.18181818181817"/>
      <point x="1281.426499032882" y="81.33365570599611"/>
      <point x="1319.4255319148933" y="96.18181818181817" type="qcurve"/>
      <point x="1319.4255319148933" y="12.0" type="line"/>
      <point x="1274.595744680851" y="-8.085106382978724"/>
      <point x="1204.9344236265638" y="-20.0"/>
      <point x="1161.3829787234042" y="-20.0" type="qcurve" smooth="yes"/>
      <point x="1074.906954588782" y="-20.0"/>
      <point x="957.7765957446809" y="107.02858050172871"/>
      <point x="957.7765957446809" y="269.0" type="qcurve"/>
    </contour>
  </outline>
</glyph>
<glyph name="uni20AD" format="2">
  <advance width="940.3936170212766"/>
  <unicode hex="20AD"/>
  <outline>
    <contour>
      <point x="128.43617021276594" y="0.0" type="line"/>
      <point x="128.43617021276594" y="1456.0" type="line"/>
      <point x="221.6063829787234" y="1456.0" type="line"/>
      <point x="221.6063829787234" y="0.0" type="line"/>
    </contour>
    <contour>
      <point x="852.8191489361702" y="0.0" type="line"/>
      <point x="456.6034816247582" y="741.0377176015473" type="line"/>
      <point x="514.3539651837524" y="813.8346228239845" type="line"/>
      <point x="960.3936170212764" y="0.0" type="line"/>
    </contour>
    <contour>
      <point x="172.0" y="489.6682785299806" type="line"/>
      <point x="172.0" y="639.8984526112185" type="line"/>
      <point x="785.9700193423597" y="1456.0" type="line"/>
      <point x="899.7882011605416" y="1456.0" type="line"/>
    </contour>
    <contour>
      <point x="-9.0" y="694.6363636363635" type="line"/>
      <point x="-9.0" y="778.5454545454545" type="line"/>
      <point x="177.0" y="778.5454545454545" type="line"/>
      <point x="177.0" y="758.3636363636363" type="line"/>
      <point x="430.4148936170212" y="758.3636363636363" type="line"/>
      <point x="430.4148936170212" y="778.5454545454545" type="line"/>
      <point x="879.691489361702" y="778.5454545454545" type="line"/>
      <point x="879.691489361702" y="694.6363636363635" type="line"/>
      <point x="531.0212765957447" y="694.6363636363635" type="line"/>
      <point x="520.595744680851" y="714.8181818181818" type="line"/>
      <point x="177.0" y="714.8181818181818" type="line"/>
      <point x="177.0" y="694.6363636363635" type="line"/>
    </contour>
  </outline>
</glyph>
<glyph name="hryvnia" format="2">
  <advance width="846.7659574468084"/>
  <unicode hex="20B4"/>
  <outline>
    <contour>
      <point x="76.43617021276596" y="338.17021276595744" type="qcurve" smooth="yes"/>
      <point x="76.43617021276596" y="458.0"/>
      <point x="182.38297872340422" y="685.2340425531913"/>
      <point x="303.80851063829783" y="758.2553191489361" type="qcurve" smooth="yes"/>
      <point x="462.0" y="853.2659574468084" type="line" smooth="yes"/>
      <point x="585.3829787234042" y="928.0"/>
      <point x="687.3829787234042" y="1054.0"/>
      <point x="687.3829787234042" y="1146.0" type="qcurve" smooth="yes"/>
      <point x="687.3829787234042" y="1259.090909090909"/>
      <point x="563.3829787234042" y="1396.6363636363635"/>
      <point x="447.3829787234042" y="1396.6363636363635" type="qcurve" smooth="yes"/>
      <point x="325.6557059961315" y="1396.6363636363635"/>
      <point x="202.23791102514505" y="1270.9090909090908"/>
      <point x="193.94680851063828" y="1172.0" type="qcurve" smooth="yes"/>
      <point x="191.94680851063828" y="1146.0" type="line"/>
      <point x="107.0" y="1146.0" type="line"/>
      <point x="108.0" y="1172.0" type="line" smooth="yes"/>
      <point x="113.99999999999999" y="1325.0"/>
      <point x="294.52127659574467" y="1486.0"/>
      <point x="450.3829787234042" y="1486.0" type="qcurve" smooth="yes"/>
      <point x="607.2021276595744" y="1486.0"/>
      <point x="773.8510638297872" y="1305.0"/>
      <point x="773.8510638297872" y="1140.691489361702" type="qcurve" smooth="yes"/>
      <point x="773.8510638297872" y="1042.9999999999998"/>
      <point x="669.5957446808511" y="844.4148936170212"/>
      <point x="539.0" y="766.2659574468084" type="qcurve" smooth="yes"/>
      <point x="363.3297872340425" y="660.7765957446809" type="line" smooth="yes"/>
      <point x="252.38297872340422" y="594.0"/>
      <point x="163.38297872340422" y="449.0"/>
      <point x="163.38297872340422" y="344.8723404255319" type="qcurve" smooth="yes"/>
      <point x="163.38297872340422" y="210.45454545454544"/>
      <point x="303.3829787234042" y="59.36363636363636"/>
      <point x="434.3829787234042" y="59.36363636363636" type="qcurve" smooth="yes"/>
      <point x="562.9284332688587" y="59.36363636363636"/>
      <point x="711.8375241779497" y="198.7272727272727"/>
      <point x="723.3829787234042" y="307.0" type="qcurve" smooth="yes"/>
      <point x="724.3829787234042" y="326.0" type="line"/>
      <point x="812.7659574468084" y="326.0" type="line"/>
      <point x="811.7659574468084" y="313.0" type="line" smooth="yes"/>
      <point x="798.7659574468084" y="143.0"/>
      <point x="605.2765957446808" y="-30.0"/>
      <point x="434.3829787234042" y="-30.0" type="qcurve" smooth="yes"/>
      <point x="255.82978723404253" y="-30.0"/>
      <point x="76.43617021276596" y="159.0"/>
    </contour>
    <contour>
      <point x="-10.0" y="861.9090909090909" type="line"/>
      <point x="-10.0" y="944.181818181818" type="line"/>
      <point x="855.7659574468084" y="944.181818181818" type="line"/>
      <point x="855.7659574468084" y="861.9090909090909" type="line"/>
    </contour>
    <contour>
      <point x="-10.0" y="541.909090909091" type="line"/>
      <point x="-10.0" y="624.1818181818182" type="line"/>
      <point x="855.7659574468084" y="624.1818181818182" type="line"/>
      <point x="855.7659574468084" y="541.909090909091" type="line"/>
    </contour>
  </outline>
</glyph>
<glyph name="arrowup" format="2">
  <advance width="1286.0"/>
  <unicode hex="2191"/>
  <guideline x="676.0" y="924.0" angle="0.0" identifier="tThH8atjx1"/>
  <outline>
    <contour>
      <point x="593.3394584139265" y="0.5212765957446809" type="line"/>
      <point x="593.3394584139265" y="1160.8617021276596" type="line"/>
      <point x="641.5425531914893" y="1225.5" type="line"/>
      <point x="690.7940038684719" y="1160.8617021276596" type="line"/>
      <point x="690.7940038684719" y="0.5212765957446809" type="line"/>
    </contour>
    <contour>
      <point x="199.47872340425533" y="749.5212765957447" type="line"/>
      <point x="628.9893617021276" y="1383.5212765957444" type="line"/>
      <point x="656.0531914893617" y="1383.5212765957444" type="line"/>
      <point x="1085.4787234042553" y="749.5212765957447" type="line"/>
      <point x="1060.9361702127658" y="731.6808510638298" type="line"/>
      <point x="642.0425531914893" y="1189.5106382978724" type="line"/>
      <point x="223.06382978723403" y="731.6808510638298" type="line"/>
    </contour>
  </outline>
</glyph>
<glyph name="Yu-dash.case" format="2">
  <advance width="506.4361702127659"/>
  <anchor x="0.0" y="750.0" name="_yu_dash"/>
  <anchor x="506.4361702127659" y="750.0" name="yu_dash"/>
  <outline>
    <contour>
      <point x="0.0" y="706.090909090909" type="line"/>
      <point x="0.0" y="795.4545454545454" type="line"/>
      <point x="506.4361702127659" y="795.4545454545454" type="line"/>
      <point x="506.4361702127659" y="706.090909090909" type="line"/>
    </contour>
  </outline>
</glyph>
<glyph name="acutecomb-stack.case" format="2">
  <anchor x="0.0" y="1456.0" name="_top"/>
  <anchor x="0.0" y="1933.0" name="top"/>
  <anchor x="0.0" y="1456.0" name="_topright"/>
  <outline>
    <contour>
      <point x="-95.99999999999999" y="1660.181818181818" type="line"/>
      <point x="199.62765957446805" y="1894.9468085106382" type="line"/>
      <point x="256.20212765957444" y="1814.351063829787" type="line"/>
      <point x="-49.0" y="1597.0" type="line"/>
    </contour>
  </outline>
</glyph>
<glyph name="acutecomb-stack" format="2">
  <anchor x="0.0" y="1053.0" name="_top"/>
  <anchor x="0.0" y="1561.0" name="top"/>
  <anchor x="0.0" y="1052.0" name="_topright"/>
  <outline>
    <contour>
      <point x="10.0" y="1215.0" type="line"/>
      <point x="-53.81818181818181" y="1257.7272727272727" type="line"/>
      <point x="111.531914893617" y="1537.5425531914893" type="line"/>
      <point x="188.25531914893617" y="1489.5851063829787" type="line"/>
    </contour>
  </outline>
</glyph>
<glyph name="acutecombstack.case" format="2">
  <anchor x="0.0" y="1536.0" name="_top"/>
  <anchor x="0.0" y="1940.9999999999998" name="top"/>
  <outline>
    <contour>
      <point x="-175.45454545454544" y="1668.6363636363635" type="line"/>
      <point x="121.14893617021275" y="1901.3829787234042" type="line"/>
      <point x="177.72340425531914" y="1820.787234042553" type="line"/>
      <point x="-128.0" y="1605.0" type="line"/>
    </contour>
  </outline>
</glyph>
<glyph name="breve.cyrcomb" format="2">
  <anchor x="0.0" y="1052.0" name="_top"/>
  <anchor x="0.0" y="1534.0" name="top"/>
  <outline>
    <contour>
      <point x="0.0" y="1292.5" type="qcurve" smooth="yes"/>
      <point x="64.82978723404256" y="1292.5"/>
      <point x="161.43617021276594" y="1412.2021276595744"/>
      <point x="191.0" y="1530.0" type="qcurve"/>
      <point x="334.0" y="1447.0" type="line"/>
      <point x="288.0" y="1328.0"/>
      <point x="111.0" y="1218.0"/>
      <point x="0.0" y="1218.0" type="qcurve" smooth="yes"/>
      <point x="-112.0" y="1218.0"/>
      <point x="-285.0" y="1325.0"/>
      <point x="-334.0" y="1447.0" type="qcurve"/>
      <point x="-190.0" y="1534.0" type="line"/>
      <point x="-160.4787234042553" y="1410.851063829787"/>
      <point x="-65.35106382978724" y="1292.5"/>
    </contour>
  </outline>
</glyph>
<glyph name="brevebelowcomb.case" format="2">
  <anchor x="0.0" y="0.0" name="_bottom"/>
  <anchor x="0.0" y="-468.0" name="bottom"/>
  <outline>
    <contour>
      <point x="291.0" y="-132.0" type="qcurve"/>
      <point x="384.0" y="-202.0" type="line"/>
      <point x="345.0" y="-301.0"/>
      <point x="144.0" y="-468.0"/>
      <point x="0.0" y="-468.0" type="qcurve" smooth="yes"/>
      <point x="-128.0" y="-468.0"/>
      <point x="-335.0" y="-315.0"/>
      <point x="-383.0" y="-201.0" type="qcurve"/>
      <point x="-283.0" y="-132.0" type="line"/>
      <point x="-240.0" y="-227.31914893617022"/>
      <point x="-95.0" y="-383.4468085106383"/>
      <point x="0.0" y="-383.4468085106383" type="qcurve" smooth="yes"/>
      <point x="102.0" y="-383.4468085106383"/>
      <point x="247.99999999999997" y="-234.92553191489364"/>
    </contour>
  </outline>
</glyph>
<glyph name="brevecombstack.case" format="2">
  <anchor x="0.0" y="1536.0" name="_top"/>
  <anchor x="0.0" y="1910.0" name="top"/>
  <outline>
    <contour>
      <point x="262.0" y="1910.0" type="qcurve"/>
      <point x="365.0" y="1844.0" type="line"/>
      <point x="328.0" y="1757.0"/>
      <point x="137.0" y="1610.0"/>
      <point x="0.0" y="1610.0" type="qcurve" smooth="yes"/>
      <point x="-121.99999999999999" y="1610.0"/>
      <point x="-318.0" y="1745.0"/>
      <point x="-364.0" y="1845.0" type="qcurve"/>
      <point x="-254.0" y="1910.0" type="line"/>
      <point x="-215.0" y="1824.723404255319"/>
      <point x="-85.0" y="1689.7659574468084"/>
      <point x="0.0" y="1689.7659574468084" type="qcurve" smooth="yes"/>
      <point x="92.0" y="1689.7659574468084"/>
      <point x="223.0" y="1818.6382978723404"/>
    </contour>
  </outline>
</glyph>
<glyph name="breveinvertedcomb-stack.case" format="2">
  <anchor x="0.0" y="1456.0" name="_top"/>
  <anchor x="0.0" y="1906.0" name="top"/>
  <outline>
    <contour>
      <point x="-291.0" y="1589.0" type="qcurve"/>
      <point x="-384.0" y="1659.0" type="line"/>
      <point x="-345.0" y="1748.0"/>
      <point x="-143.0" y="1906.0"/>
      <point x="1.0" y="1906.0" type="qcurve" smooth="yes"/>
      <point x="129.0" y="1906.0"/>
      <point x="336.0" y="1762.0"/>
      <point x="384.0" y="1658.0" type="qcurve"/>
      <point x="284.0" y="1589.0" type="line"/>
      <point x="241.0" y="1673.276595744681"/>
      <point x="96.0" y="1821.4468085106382"/>
      <point x="1.0" y="1821.4468085106382" type="qcurve" smooth="yes"/>
      <point x="-101.0" y="1821.4468085106382"/>
      <point x="-247.99999999999997" y="1680.8829787234042"/>
    </contour>
  </outline>
</glyph>
<glyph name="caroncomb.case" format="2">
  <anchor x="0.0" y="1456.0" name="_top"/>
  <anchor x="0.0" y="1939.9999999999998" name="top"/>
  <outline>
    <contour>
      <point x="-33.595744680851055" y="1600.0" type="line"/>
      <point x="-332.99999999999994" y="1939.9999999999998" type="line"/>
      <point x="-166.0" y="1939.9999999999998" type="line"/>
      <point x="0.0" y="1676.6808510638298" type="line"/>
      <point x="160.0" y="1939.9999999999998" type="line"/>
      <point x="332.99999999999994" y="1939.9999999999998" type="line"/>
      <point x="37.42553191489361" y="1600.0" type="line"/>
    </contour>
  </outline>
</glyph>
<glyph name="circumflexcombstack.case" format="2">
  <anchor x="0.0" y="1536.0" name="_top"/>
  <anchor x="0.0" y="1875.0" name="top"/>
  <outline>
    <contour>
      <point x="33.595744680851055" y="1875.0" type="line"/>
      <point x="332.99999999999994" y="1585.0" type="line"/>
      <point x="171.0" y="1583.0" type="line"/>
      <point x="0.0" y="1800.191489361702" type="line"/>
      <point x="-165.0" y="1585.0" type="line"/>
      <point x="-332.99999999999994" y="1585.0" type="line"/>
      <point x="-37.42553191489361" y="1875.0" type="line"/>
    </contour>
  </outline>
</glyph>
<glyph name="coloncurrency.rvrn" format="2">
  <advance width="971.5531914893617"/>
  <guideline y="1570.0" identifier="0DwZ2nfhdf"/>
  <outline>
    <contour>
      <point x="85.0" y="612.0" type="qcurve" smooth="yes"/>
      <point x="85.0" y="844.0" type="line" smooth="yes"/>
      <point x="85.0" y="1154.0"/>
      <point x="333.82978723404256" y="1486.0"/>
      <point x="524.563829787234" y="1486.0" type="qcurve" smooth="yes"/>
      <point x="717.3404255319149" y="1486.0"/>
      <point x="940.5531914893616" y="1233.0"/>
      <point x="938.4680851063829" y="1040.0" type="qcurve" smooth="yes"/>
      <point x="938.4680851063829" y="990.0" type="line"/>
      <point x="847.691489361702" y="990.0" type="line"/>
      <point x="847.691489361702" y="1041.0" type="line" smooth="yes"/>
      <point x="847.691489361702" y="1202.3636363636365"/>
      <point x="686.600580270793" y="1398.8181818181815"/>
      <point x="527.691489361702" y="1398.8181818181815" type="qcurve" smooth="yes"/>
      <point x="362.50967117988387" y="1398.8181818181815"/>
      <point x="177.6914893617021" y="1114.5454545454545"/>
      <point x="177.6914893617021" y="844.0" type="qcurve" smooth="yes"/>
      <point x="177.6914893617021" y="592.0" type="line" smooth="yes"/>
      <point x="177.6914893617021" y="335.81818181818176"/>
      <point x="370.6914893617021" y="51.72727272727272"/>
      <point x="537.6914893617021" y="51.72727272727272" type="qcurve" smooth="yes"/>
      <point x="695.691489361702" y="51.72727272727272"/>
      <point x="852.691489361702" y="250.54545454545453"/>
      <point x="852.691489361702" y="421.90425531914894" type="qcurve" smooth="yes"/>
      <point x="852.691489361702" y="466.0" type="line"/>
      <point x="945.8617021276596" y="466.0" type="line"/>
      <point x="945.8617021276596" y="426.0" type="line" smooth="yes"/>
      <point x="945.8617021276596" y="241.0"/>
      <point x="725.7765957446809" y="-30.0"/>
      <point x="533.0" y="-30.0" type="qcurve" smooth="yes"/>
      <point x="337.78723404255317" y="-30.0"/>
      <point x="85.0" y="308.0"/>
    </contour>
    <contour>
      <point x="372.40038684719536" y="73.39941972920695" type="line"/>
      <point x="366.41876208897486" y="29.090909090909086" type="line"/>
      <point x="373.32785299806574" y="8.909090909090908" type="line"/>
      <point x="354.6914893617021" y="-125.0" type="line"/>
      <point x="195.69148936170208" y="-125.0" type="line"/>
      <point x="227.6914893617021" y="101.0" type="line"/>
      <point x="238.96421663442936" y="121.09090909090908" type="line"/>
      <point x="246.24371373307542" y="169.79303675048357" type="line"/>
    </contour>
    <contour>
      <point x="596.6914893617021" y="1570.0" type="line"/>
      <point x="579.3278529980657" y="1451.0" type="line"/>
      <point x="567.6914893617021" y="1439.5454545454545" type="line"/>
      <point x="563.94584139265" y="1411.8346228239843" type="line"/>
      <point x="427.96421663442936" y="1420.963249516441" type="line"/>
      <point x="430.14603481624755" y="1438.8181818181818" type="line"/>
      <point x="421.7823984526112" y="1451.3636363636365" type="line"/>
      <point x="438.6914893617021" y="1570.0" type="line"/>
    </contour>
    <contour>
      <point x="638.2611218568666" y="34.43036750483559" type="line"/>
      <point x="636.600580270793" y="13.18181818181818" type="line"/>
      <point x="644.4187620889747" y="-0.45454545454545503" type="line"/>
      <point x="626.691489361702" y="-125.0" type="line"/>
      <point x="467.6914893617021" y="-125.0" type="line"/>
      <point x="484.41876208897486" y="-4.818181818181818" type="line"/>
      <point x="496.600580270793" y="9.363636363636363" type="line"/>
      <point x="501.39458413926496" y="43.17117988394584" type="line"/>
    </contour>
    <contour>
      <point x="868.691489361702" y="1570.0" type="line"/>
      <point x="836.691489361702" y="1374.0" type="line"/>
      <point x="823.6914893617021" y="1351.0" type="line"/>
      <point x="817.9332688588007" y="1302.8007736943907" type="line"/>
      <point x="692.9642166344295" y="1382.926499032882" type="line"/>
      <point x="698.9642166344294" y="1427.3636363636365" type="line"/>
      <point x="691.509671179884" y="1443.7272727272725" type="line"/>
      <point x="710.691489361702" y="1570.0" type="line"/>
    </contour>
  </outline>
</glyph>
<glyph name="diagonalbaro" format="2">
  <advance width="512.0"/>
  <outline>
    <contour>
      <point x="-88.0" y="-98.0" type="line"/>
      <point x="-4.0" y="109.0" type="line"/>
      <point x="14.0" y="104.0" type="line"/>
      <point x="215.0" y="604.0" type="line"/>
      <point x="314.0" y="534.0" type="line"/>
      <point x="131.0" y="75.0" type="line"/>
      <point x="151.0" y="71.0" type="line"/>
      <point x="77.0" y="-103.0" type="line"/>
    </contour>
    <contour>
      <point x="418.0" y="1164.0" type="line"/>
      <point x="589.0" y="1161.0" type="line"/>
      <point x="511.0" y="968.0" type="line"/>
      <point x="490.0" y="973.0" type="line"/>
      <point x="314.0" y="534.0" type="line"/>
      <point x="215.0" y="604.0" type="line"/>
      <point x="374.0" y="1001.0" type="line"/>
      <point x="354.0" y="1007.0" type="line"/>
    </contour>
  </outline>
</glyph>
<glyph name="dieresisbelowcomb.case" format="2">
  <anchor x="0.0" y="0.0" name="_bottom"/>
  <anchor x="0.0" y="-298.0" name="bottom"/>
  <outline>
    <contour>
      <point x="-300.6489361702128" y="-140.17021276595744" type="qcurve" smooth="yes"/>
      <point x="-300.6489361702128" y="-107.06382978723403"/>
      <point x="-264.1063829787234" y="-71.0"/>
      <point x="-230.0" y="-71.0" type="qcurve" smooth="yes"/>
      <point x="-197.85106382978722" y="-71.0"/>
      <point x="-159.35106382978722" y="-109.5"/>
      <point x="-159.35106382978722" y="-140.17021276595744" type="qcurve" smooth="yes"/>
      <point x="-159.35106382978722" y="-173.3191489361702"/>
      <point x="-195.41489361702128" y="-209.38297872340422"/>
      <point x="-230.0" y="-209.38297872340422" type="qcurve" smooth="yes"/>
      <point x="-262.1489361702127" y="-209.38297872340422"/>
      <point x="-300.6489361702128" y="-171.36170212765956"/>
    </contour>
    <contour>
      <point x="159.35106382978722" y="-140.17021276595744" type="qcurve" smooth="yes"/>
      <point x="159.35106382978722" y="-107.06382978723403"/>
      <point x="195.8936170212766" y="-71.0"/>
      <point x="230.0" y="-71.0" type="qcurve" smooth="yes"/>
      <point x="262.1489361702127" y="-71.0"/>
      <point x="300.6489361702128" y="-109.5"/>
      <point x="300.6489361702128" y="-140.17021276595744" type="qcurve" smooth="yes"/>
      <point x="300.6489361702128" y="-173.3191489361702"/>
      <point x="264.58510638297867" y="-209.38297872340422"/>
      <point x="230.0" y="-209.38297872340422" type="qcurve" smooth="yes"/>
      <point x="197.85106382978722" y="-209.38297872340422"/>
      <point x="159.35106382978722" y="-171.36170212765956"/>
    </contour>
  </outline>
</glyph>
<glyph name="dieresiscomb.case" format="2">
  <anchor x="0.0" y="1456.0" name="_top"/>
  <anchor x="0.0" y="1808.7340425531913" name="top"/>
  <outline>
    <contour>
      <point x="-299.0851063829787" y="1741.127659574468" type="qcurve" smooth="yes"/>
      <point x="-299.0851063829787" y="1773.7127659574467"/>
      <point x="-263.063829787234" y="1808.7340425531913"/>
      <point x="-230.0" y="1808.7340425531913" type="qcurve" smooth="yes"/>
      <point x="-198.3723404255319" y="1808.7340425531913"/>
      <point x="-160.91489361702128" y="1771.276595744681"/>
      <point x="-160.91489361702128" y="1741.127659574468" type="qcurve" smooth="yes"/>
      <point x="-160.91489361702128" y="1709.0212765957447"/>
      <point x="-195.93617021276594" y="1674.0"/>
      <point x="-230.0" y="1674.0" type="qcurve" smooth="yes"/>
      <point x="-261.62765957446805" y="1674.0"/>
      <point x="-299.0851063829787" y="1710.978723404255"/>
    </contour>
    <contour>
      <point x="160.91489361702128" y="1741.127659574468" type="qcurve" smooth="yes"/>
      <point x="160.91489361702128" y="1773.7127659574467"/>
      <point x="196.93617021276594" y="1808.7340425531913"/>
      <point x="230.0" y="1808.7340425531913" type="qcurve" smooth="yes"/>
      <point x="261.62765957446805" y="1808.7340425531913"/>
      <point x="299.0851063829787" y="1771.276595744681"/>
      <point x="299.0851063829787" y="1741.127659574468" type="qcurve" smooth="yes"/>
      <point x="299.0851063829787" y="1709.0212765957447"/>
      <point x="264.063829787234" y="1674.0"/>
      <point x="230.0" y="1674.0" type="qcurve" smooth="yes"/>
      <point x="198.3723404255319" y="1674.0"/>
      <point x="160.91489361702128" y="1710.978723404255"/>
    </contour>
  </outline>
</glyph>
<glyph name="dieresiscombstack.case" format="2">
  <anchor x="0.0" y="1536.0" name="_top"/>
  <anchor x="0.0" y="1841.0" name="top"/>
  <outline>
    <contour>
      <point x="-298.04255319148933" y="1680.6063829787233" type="qcurve" smooth="yes"/>
      <point x="-298.04255319148933" y="1712.6702127659573"/>
      <point x="-263.063829787234" y="1747.691489361702"/>
      <point x="-230.0" y="1747.691489361702" type="qcurve" smooth="yes"/>
      <point x="-198.89361702127658" y="1747.691489361702"/>
      <point x="-161.95744680851064" y="1710.2340425531913"/>
      <point x="-161.95744680851064" y="1680.6063829787233" type="qcurve" smooth="yes"/>
      <point x="-161.95744680851064" y="1648.5"/>
      <point x="-196.45744680851064" y="1614.0"/>
      <point x="-230.0" y="1614.0" type="qcurve" smooth="yes"/>
      <point x="-261.1063829787234" y="1614.0"/>
      <point x="-298.04255319148933" y="1650.4574468085104"/>
    </contour>
    <contour>
      <point x="161.95744680851064" y="1680.6063829787233" type="qcurve" smooth="yes"/>
      <point x="161.95744680851064" y="1712.6702127659573"/>
      <point x="196.93617021276594" y="1747.691489361702"/>
      <point x="230.0" y="1747.691489361702" type="qcurve" smooth="yes"/>
      <point x="261.1063829787234" y="1747.691489361702"/>
      <point x="298.04255319148933" y="1710.2340425531913"/>
      <point x="298.04255319148933" y="1680.6063829787233" type="qcurve" smooth="yes"/>
      <point x="298.04255319148933" y="1648.5"/>
      <point x="263.54255319148933" y="1614.0"/>
      <point x="230.0" y="1614.0" type="qcurve" smooth="yes"/>
      <point x="198.89361702127658" y="1614.0"/>
      <point x="161.95744680851064" y="1650.4574468085104"/>
    </contour>
  </outline>
</glyph>
<glyph name="el.bgr" format="2">
  <advance width="861.7234042553191"/>
  <outline>
    <contour>
      <point x="861.7234042553191" y="0.0" type="line"/>
      <point x="771.9042553191489" y="0.0" type="line"/>
      <point x="475.1595744680851" y="813.0319148936169" type="line" smooth="yes"/>
      <point x="460.6382978723404" y="853.0319148936169"/>
      <point x="438.51063829787233" y="923.0319148936169"/>
      <point x="432.9468085106383" y="943.0319148936171" type="qcurve"/>
      <point x="426.9468085106383" y="943.0319148936171" type="line"/>
      <point x="421.3829787234042" y="923.0319148936169"/>
      <point x="399.2553191489361" y="853.0319148936169"/>
      <point x="384.73404255319144" y="813.0319148936169" type="qcurve" smooth="yes"/>
      <point x="87.90425531914892" y="0.0" type="line"/>
      <point x="0.0" y="0.0" type="line"/>
      <point x="393.74468085106383" y="1052.0" type="line"/>
      <point x="469.54255319148933" y="1052.0" type="line"/>
    </contour>
  </outline>
</glyph>
<glyph name="ghe.bgr" format="2">
  <advance width="829.6382978723403"/>
  <outline>
    <contour>
      <point x="749.6382978723403" y="310.0" type="line"/>
      <point x="749.6382978723403" y="305.0" type="line" smooth="yes"/>
      <point x="749.6382978723403" y="147.78723404255317"/>
      <point x="582.8085106382978" y="-30.0"/>
      <point x="411.9042553191489" y="-30.0" type="qcurve" smooth="yes"/>
      <point x="240.04255319148933" y="-30.0"/>
      <point x="80.0" y="148.5049332169787"/>
      <point x="80.0" y="282.39361702127655" type="qcurve" smooth="yes"/>
      <point x="80.0" y="401.910334346484"/>
      <point x="217.06799328377124" y="538.9953476061968"/>
      <point x="377.6595744680851" y="582.6382978723404" type="qcurve" smooth="yes"/>
      <point x="530.1666385957931" y="623.4944372074299"/>
      <point x="631.8617021276596" y="731.4226305609284"/>
      <point x="631.8617021276596" y="814.0599613152804" type="qcurve" smooth="yes"/>
      <point x="631.8617021276596" y="901.1576402321082"/>
      <point x="523.5522243713733" y="995.9090909090909"/>
      <point x="417.2127659574468" y="995.9090909090909" type="qcurve" smooth="yes"/>
      <point x="309.9400386847195" y="995.9090909090909"/>
      <point x="202.2127659574468" y="876.7272727272727"/>
      <point x="202.2127659574468" y="769.0" type="qcurve" smooth="yes"/>
      <point x="202.2127659574468" y="760.0" type="line"/>
      <point x="110.0" y="760.0" type="line"/>
      <point x="110.0" y="765.0" type="line" smooth="yes"/>
      <point x="110.0" y="911.0"/>
      <point x="275.78723404255317" y="1082.0"/>
      <point x="417.2127659574468" y="1082.0" type="qcurve" smooth="yes"/>
      <point x="566.7765957446809" y="1082.0"/>
      <point x="723.5957446808511" y="913.3510638297872"/>
      <point x="723.5957446808511" y="787.7872340425531" type="qcurve" smooth="yes"/>
      <point x="723.5957446808511" y="680.5851063829787"/>
      <point x="589.2631460645904" y="553.2627928162074"/>
      <point x="426.05319148936167" y="509.095744680851" type="qcurve" smooth="yes"/>
      <point x="279.7881017944004" y="469.21524570609046"/>
      <point x="171.25531914893617" y="347.69245647969046"/>
      <point x="171.25531914893617" y="248.90909090909088" type="qcurve" smooth="yes"/>
      <point x="171.25531914893617" y="158.2669245647969"/>
      <point x="300.18278529980654" y="56.09090909090908"/>
      <point x="411.9042553191489" y="56.09090909090908" type="qcurve" smooth="yes"/>
      <point x="525.5406189555125" y="56.09090909090908"/>
      <point x="655.9042553191489" y="183.54545454545453"/>
      <point x="655.9042553191489" y="305.0" type="qcurve" smooth="yes"/>
      <point x="655.9042553191489" y="310.0" type="line"/>
    </contour>
  </outline>
</glyph>
<glyph name="gravecomb-stack.case" format="2">
  <anchor x="0.0" y="1456.0" name="_top"/>
  <anchor x="0.0" y="1933.0" name="top"/>
  <anchor x="0.0" y="1456.0" name="_topright"/>
  <outline>
    <contour>
      <point x="53.0" y="1597.0" type="line"/>
      <point x="-259.32978723404256" y="1814.3085106382978" type="line"/>
      <point x="-207.06382978723403" y="1893.904255319149" type="line"/>
      <point x="97.8181818181818" y="1663.4545454545455" type="line"/>
    </contour>
  </outline>
</glyph>
<glyph name="gravecomb.case" format="2">
  <anchor x="0.0" y="1455.0" name="_top"/>
  <anchor x="0.0" y="1973.9999999999998" name="top"/>
  <outline>
    <contour>
      <point x="-44.0" y="1600.0" type="line"/>
      <point x="-239.81914893617022" y="1901.5425531914893" type="line"/>
      <point x="-163.61702127659572" y="1949.5" type="line"/>
      <point x="20.727272727272723" y="1642.7272727272725" type="line"/>
    </contour>
  </outline>
</glyph>
<glyph name="hookabovecomb.case" format="2">
  <anchor x="0.0" y="1456.0" name="_top"/>
  <anchor x="0.0" y="2072.0" name="top"/>
  <outline>
    <contour>
      <point x="-138.0" y="1600.0" type="line"/>
      <point x="-138.0" y="1639.0" type="line" smooth="yes"/>
      <point x="-138.0" y="1691.0"/>
      <point x="-79.52127659574467" y="1762.0425531914893"/>
      <point x="-3.0" y="1772.5212765957444" type="qcurve" smooth="yes"/>
      <point x="84.27659574468085" y="1784.1702127659573"/>
      <point x="174.3191489361702" y="1814.0851063829787"/>
      <point x="174.3191489361702" y="1857.691489361702" type="qcurve" smooth="yes"/>
      <point x="174.3191489361702" y="1923.7978723404253"/>
      <point x="83.52127659574468" y="1998.8936170212764"/>
      <point x="-13.223404255319146" y="1998.8936170212764" type="qcurve" smooth="yes"/>
      <point x="-85.56382978723403" y="1998.8936170212764"/>
      <point x="-211.11702127659572" y="1962.7659574468084"/>
      <point x="-232.58510638297872" y="1948.5106382978722" type="qcurve"/>
      <point x="-260.0" y="2012.0" type="line"/>
      <point x="-225.0" y="2031.0"/>
      <point x="-79.86170212765957" y="2071.478723404255"/>
      <point x="1.617021276595743" y="2071.478723404255" type="qcurve" smooth="yes"/>
      <point x="131.52127659574467" y="2071.478723404255"/>
      <point x="256.0" y="1958.0"/>
      <point x="256.0" y="1862.0" type="qcurve" smooth="yes"/>
      <point x="256.0" y="1760.9999999999998"/>
      <point x="128.0" y="1642.0"/>
      <point x="-15.0" y="1631.0" type="qcurve"/>
      <point x="-15.0" y="1600.0" type="line"/>
    </contour>
  </outline>
</glyph>
<glyph name="hookcomb-stack.case" format="2">
  <anchor x="0.0" y="1456.0" name="_top"/>
  <anchor x="0.0" y="2014.0" name="top"/>
  <anchor x="0.0" y="1456.0" name="_topright"/>
  <outline>
    <contour>
      <point x="-80.0" y="1600.0" type="line"/>
      <point x="-80.0" y="1647.0" type="line" smooth="yes"/>
      <point x="-80.0" y="1692.0"/>
      <point x="-28.0" y="1740.9574468085107"/>
      <point x="56.202127659574465" y="1756.6489361702127" type="qcurve" smooth="yes"/>
      <point x="140.86170212765958" y="1772.5106382978722"/>
      <point x="191.62765957446808" y="1798.4255319148936"/>
      <point x="191.62765957446808" y="1827.6489361702124" type="qcurve" smooth="yes"/>
      <point x="191.62765957446808" y="1883.2340425531913"/>
      <point x="117.30851063829789" y="1945.7234042553189"/>
      <point x="39.11702127659574" y="1945.7234042553189" type="qcurve" smooth="yes"/>
      <point x="-26.265957446808507" y="1945.7234042553189"/>
      <point x="-144.031914893617" y="1914.1170212765956"/>
      <point x="-163.9787234042553" y="1901.904255319149" type="qcurve"/>
      <point x="-188.0" y="1961.9999999999998" type="line"/>
      <point x="-157.0" y="1979.0"/>
      <point x="-21.0" y="2014.0"/>
      <point x="53.0" y="2014.0" type="qcurve" smooth="yes"/>
      <point x="159.0" y="2014.0"/>
      <point x="269.0" y="1915.0"/>
      <point x="269.0" y="1831.0" type="qcurve" smooth="yes"/>
      <point x="269.0" y="1744.0"/>
      <point x="176.0" y="1653.0"/>
      <point x="69.0" y="1643.0" type="qcurve"/>
      <point x="69.0" y="1600.0" type="line"/>
    </contour>
  </outline>
</glyph>
<glyph name="hryvnia.rvrn" format="2">
  <advance width="846.7659574468084"/>
  <outline>
    <contour>
      <point x="76.43617021276596" y="338.17021276595744" type="qcurve" smooth="yes"/>
      <point x="76.43617021276596" y="458.0"/>
      <point x="182.38297872340422" y="685.2340425531913"/>
      <point x="303.80851063829783" y="758.2553191489361" type="qcurve" smooth="yes"/>
      <point x="462.0" y="853.2659574468084" type="line" smooth="yes"/>
      <point x="585.3829787234042" y="928.0"/>
      <point x="687.3829787234042" y="1054.0"/>
      <point x="687.3829787234042" y="1145.5164410058028" type="qcurve" smooth="yes"/>
      <point x="687.3829787234042" y="1259.090909090909"/>
      <point x="563.3829787234042" y="1396.4912959381045"/>
      <point x="447.3829787234042" y="1396.4912959381045" type="qcurve" smooth="yes"/>
      <point x="326.47775628626687" y="1396.4912959381045"/>
      <point x="202.8181818181818" y="1271.2959381044486"/>
      <point x="193.97098646034812" y="1172.0725338491297" type="qcurve" smooth="yes"/>
      <point x="191.7775628626692" y="1146.0" type="line"/>
      <point x="106.90328820116054" y="1147.4990328820115" type="line"/>
      <point x="108.12088974854932" y="1173.5473887814314" type="line" smooth="yes"/>
      <point x="115.03965183752416" y="1325.7495164410057"/>
      <point x="295.34332688588006" y="1486.0"/>
      <point x="450.3829787234042" y="1486.0" type="qcurve" smooth="yes"/>
      <point x="607.2021276595744" y="1486.0"/>
      <point x="773.8510638297872" y="1305.0"/>
      <point x="773.8510638297872" y="1140.691489361702" type="qcurve" smooth="yes"/>
      <point x="773.8510638297872" y="1042.9999999999998"/>
      <point x="669.5957446808511" y="844.4148936170212"/>
      <point x="539.0" y="766.2659574468084" type="qcurve" smooth="yes"/>
      <point x="363.3297872340425" y="660.7765957446809" type="line" smooth="yes"/>
      <point x="252.38297872340422" y="594.0"/>
      <point x="163.38297872340422" y="449.0"/>
      <point x="163.38297872340422" y="344.8723404255319" type="qcurve" smooth="yes"/>
      <point x="163.38297872340422" y="210.45454545454544"/>
      <point x="303.3829787234042" y="59.50870406189556"/>
      <point x="434.3829787234042" y="59.50870406189556" type="qcurve" smooth="yes"/>
      <point x="562.4448742746615" y="59.50870406189556"/>
      <point x="711.2814313346228" y="197.83268858800773"/>
      <point x="723.1653771760155" y="306.08123791102514" type="qcurve" smooth="yes"/>
      <point x="724.4555125725338" y="325.5889748549323" type="line"/>
      <point x="812.6934235976789" y="324.2350096711799" type="line"/>
      <point x="811.4032882011604" y="310.60638297872345" type="line" smooth="yes"/>
      <point x="797.774661508704" y="141.86363636363637"/>
      <point x="604.7930367504835" y="-30.0"/>
      <point x="434.3829787234042" y="-30.0" type="qcurve" smooth="yes"/>
      <point x="255.82978723404253" y="-30.0"/>
      <point x="76.43617021276596" y="159.0"/>
    </contour>
    <contour>
      <point x="-10.0" y="714.8665377176014" type="line"/>
      <point x="-10.0" y="797.1392649903288" type="line"/>
      <point x="855.7659574468084" y="797.1392649903288" type="line"/>
      <point x="855.7659574468084" y="714.8665377176014" type="line"/>
    </contour>
  </outline>
</glyph>
<glyph name="jdotless" format="2">
  <advance width="406.6914893617021"/>
  <anchor x="250.0" y="-436.0" name="bottom"/>
  <anchor x="202.56382978723403" y="1052.0" name="top"/>
  <outline>
    <contour>
      <point x="-150.5" y="-406.5" type="qcurve"/>
      <point x="-150.5" y="-320.5" type="line"/>
      <point x="-124.18181818181817" y="-329.3636363636364"/>
      <point x="-35.95454545454545" y="-347.72727272727275"/>
      <point x="-2.1363636363636367" y="-347.72727272727275" type="qcurve" smooth="yes"/>
      <point x="82.3394584139265" y="-347.72727272727275"/>
      <point x="157.0" y="-230.15087040618954"/>
      <point x="157.0" y="-96.0" type="qcurve" smooth="yes"/>
      <point x="157.0" y="1052.0" type="line"/>
      <point x="249.6914893617021" y="1052.0" type="line"/>
      <point x="249.6914893617021" y="-45.49999999999999" type="line" smooth="yes"/>
      <point x="249.6914893617021" y="-266.2234042553191"/>
      <point x="134.91489361702125" y="-436.0"/>
      <point x="8.414893617021274" y="-436.0" type="qcurve" smooth="yes"/>
      <point x="-28.22340425531915" y="-436.0"/>
      <point x="-121.99999999999999" y="-416.99999999999994"/>
    </contour>
  </outline>
</glyph>
<glyph name="naira.rvrn" format="2">
  <advance width="871.7872340425531"/>
  <outline>
    <contour>
      <point x="768.3510638297871" y="1456.0" type="line"/>
      <point x="768.3510638297871" y="0.0" type="line"/>
      <point x="668.1489361702127" y="0.0" type="line"/>
      <point x="206.01063829787233" y="1244.1702127659573" type="line"/>
      <point x="175.67021276595744" y="1355.1702127659573" type="line"/>
      <point x="163.67021276595744" y="1355.1702127659573" type="line"/>
      <point x="169.89361702127658" y="1227.1702127659573" type="line"/>
      <point x="169.89361702127658" y="0.0" type="line"/>
      <point x="94.43617021276594" y="0.0" type="line"/>
      <point x="94.43617021276594" y="1456.0" type="line"/>
      <point x="195.98936170212764" y="1456.0" type="line"/>
      <point x="648.9468085106382" y="230.75531914893617" type="line"/>
      <point x="683.6808510638298" y="112.31914893617018" type="line"/>
      <point x="697.6808510638298" y="113.75531914893615" type="line"/>
      <point x="692.8936170212766" y="234.7553191489361" type="line"/>
      <point x="692.8936170212766" y="1456.0" type="line"/>
    </contour>
    <contour>
      <point x="719.3510638297871" y="792.1015473887815" type="line"/>
      <point x="728.4468085106382" y="792.1015473887815" type="line"/>
      <point x="728.4468085106382" y="794.9497098646034" type="line"/>
      <point x="879.7872340425531" y="796.9497098646034" type="line"/>
      <point x="879.7872340425531" y="719.0406189555125" type="line"/>
      <point x="728.4468085106382" y="717.0406189555125" type="line"/>
      <point x="728.4468085106382" y="722.3742746615087" type="line"/>
      <point x="719.3510638297871" y="722.3742746615087" type="line"/>
    </contour>
    <contour>
      <point x="-8.0" y="717.0406189555125" type="line"/>
      <point x="-8.0" y="794.9497098646034" type="line"/>
      <point x="133.86170212765958" y="794.9497098646034" type="line"/>
      <point x="133.86170212765958" y="792.1015473887815" type="line"/>
      <point x="141.04255319148936" y="792.1015473887815" type="line"/>
      <point x="141.04255319148936" y="722.3742746615087" type="line"/>
      <point x="133.86170212765958" y="722.3742746615087" type="line"/>
      <point x="133.86170212765958" y="717.0406189555125" type="line"/>
    </contour>
    <contour>
      <point x="719.3510638297871" y="805.0802707930368" type="line"/>
      <point x="728.4468085106382" y="805.0802707930368" type="line"/>
      <point x="728.4468085106382" y="810.4139264990329" type="line"/>
      <point x="879.7872340425531" y="812.4139264990329" type="line"/>
      <point x="879.7872340425531" y="734.5048355899419" type="line"/>
      <point x="728.4468085106382" y="732.5048355899419" type="line"/>
      <point x="728.4468085106382" y="735.352998065764" type="line"/>
      <point x="719.3510638297871" y="735.352998065764" type="line"/>
    </contour>
    <contour>
      <point x="-8.0" y="732.5048355899419" type="line"/>
      <point x="-8.0" y="810.4139264990329" type="line"/>
      <point x="133.86170212765958" y="810.4139264990329" type="line"/>
      <point x="133.86170212765958" y="805.0802707930368" type="line"/>
      <point x="141.04255319148936" y="805.0802707930368" type="line"/>
      <point x="141.04255319148936" y="735.352998065764" type="line"/>
      <point x="133.86170212765958" y="735.352998065764" type="line"/>
      <point x="133.86170212765958" y="732.5048355899419" type="line"/>
    </contour>
  </outline>
</glyph>
<glyph name="obarcyr-stroke" format="2">
  <advance width="971.2127659574467"/>
  <guideline x="133.52127659574467" y="651.2234042553191" angle="89.99999999999997" identifier="HuPjA4mSCL"/>
  <guideline x="838.6489361702127" y="697.5744680851063" angle="89.99999999999997" identifier="F596JbvFPy"/>
  <outline>
    <contour>
      <point x="132.56382978723403" y="579.090909090909" type="line"/>
      <point x="838.6489361702127" y="579.090909090909" type="line"/>
      <point x="838.6489361702127" y="496.8181818181818" type="line"/>
      <point x="132.56382978723403" y="496.8181818181818" type="line"/>
    </contour>
  </outline>
</glyph>
<glyph name="ringcomb-stack.case" format="2">
  <anchor x="0.0" y="1456.0" name="_top"/>
  <anchor x="0.0" y="1970.0" name="top"/>
  <outline>
    <contour>
      <point x="-177.47872340425528" y="1787.0" type="qcurve" smooth="yes"/>
      <point x="-177.47872340425528" y="1862.7127659574467"/>
      <point x="-77.62765957446808" y="1959.6914893617022"/>
      <point x="0.0" y="1959.6914893617022" type="qcurve" smooth="yes"/>
      <point x="77.62765957446808" y="1959.6914893617022"/>
      <point x="177.47872340425528" y="1862.7127659574467"/>
      <point x="177.47872340425528" y="1787.0" type="qcurve" smooth="yes"/>
      <point x="177.47872340425528" y="1711.287234042553"/>
      <point x="77.62765957446808" y="1614.3085106382978"/>
      <point x="0.0" y="1614.3085106382978" type="qcurve"/>
      <point x="-77.62765957446808" y="1614.3085106382978"/>
      <point x="-177.47872340425528" y="1711.287234042553"/>
    </contour>
    <contour>
      <point x="-114.9468085106383" y="1787.0" type="qcurve" smooth="yes"/>
      <point x="-114.9468085106383" y="1735.8297872340427"/>
      <point x="-51.648936170212764" y="1672.0531914893618"/>
      <point x="0.0" y="1672.0531914893618" type="qcurve" smooth="yes"/>
      <point x="53.08510638297872" y="1672.0531914893618"/>
      <point x="114.9468085106383" y="1734.3936170212764"/>
      <point x="114.9468085106383" y="1787.0" type="qcurve" smooth="yes"/>
      <point x="114.9468085106383" y="1838.1702127659573"/>
      <point x="51.648936170212764" y="1901.9468085106382"/>
      <point x="0.0" y="1901.9468085106382" type="qcurve" smooth="yes"/>
      <point x="-53.08510638297872" y="1901.9468085106382"/>
      <point x="-114.9468085106383" y="1840.0851063829787"/>
    </contour>
  </outline>
</glyph>
<glyph name="ringcomb-stack" format="2">
  <anchor x="0.0" y="1052.0" name="_top"/>
  <anchor x="0.0" y="1604.0" name="top"/>
  <outline>
    <contour>
      <point x="-224.0" y="1437.0" type="qcurve" smooth="yes"/>
      <point x="-224.0" y="1534.0"/>
      <point x="-97.0" y="1658.0"/>
      <point x="0.0" y="1658.0" type="qcurve" smooth="yes"/>
      <point x="97.0" y="1658.0"/>
      <point x="224.0" y="1535.0425531914893"/>
      <point x="224.0" y="1437.0" type="qcurve" smooth="yes"/>
      <point x="224.0" y="1340.0"/>
      <point x="97.0" y="1215.0"/>
      <point x="0.0" y="1215.0" type="qcurve"/>
      <point x="-97.0" y="1215.0"/>
      <point x="-224.0" y="1340.0"/>
    </contour>
    <contour>
      <point x="-163.86170212765958" y="1437.0" type="qcurve" smooth="yes"/>
      <point x="-163.86170212765958" y="1363.0212765957444"/>
      <point x="-72.9787234042553" y="1272.2659574468084"/>
      <point x="0.0" y="1272.2659574468084" type="qcurve" smooth="yes"/>
      <point x="74.41489361702128" y="1272.2659574468084"/>
      <point x="163.86170212765958" y="1361.627659574468"/>
      <point x="163.86170212765958" y="1437.0" type="qcurve" smooth="yes"/>
      <point x="163.86170212765958" y="1511.5425531914893"/>
      <point x="73.5" y="1601.255319148936"/>
      <point x="0.0" y="1601.255319148936" type="qcurve" smooth="yes"/>
      <point x="-74.93617021276596" y="1601.255319148936"/>
      <point x="-163.86170212765958" y="1511.8936170212764"/>
    </contour>
  </outline>
</glyph>
<glyph name="ringcomb.case" format="2">
  <anchor x="0.0" y="1456.0" name="_top"/>
  <anchor x="0.0" y="1941.755319148936" name="top"/>
  <outline>
    <contour>
      <point x="-175.40425531914892" y="1770.6170212765956" type="qcurve" smooth="yes"/>
      <point x="-175.40425531914892" y="1845.0744680851062"/>
      <point x="-76.37234042553192" y="1941.755319148936"/>
      <point x="0.0" y="1941.755319148936" type="qcurve" smooth="yes"/>
      <point x="76.37234042553192" y="1941.755319148936"/>
      <point x="175.40425531914892" y="1845.0744680851062"/>
      <point x="175.40425531914892" y="1770.6170212765956" type="qcurve" smooth="yes"/>
      <point x="175.40425531914892" y="1696.1595744680849"/>
      <point x="76.37234042553192" y="1600.0"/>
      <point x="0.0" y="1600.0" type="qcurve"/>
      <point x="-76.37234042553192" y="1600.0"/>
      <point x="-175.40425531914892" y="1696.1595744680849"/>
    </contour>
    <contour>
      <point x="-111.43617021276594" y="1770.6170212765956" type="qcurve" smooth="yes"/>
      <point x="-111.43617021276594" y="1721.1808510638298"/>
      <point x="-49.91489361702128" y="1659.1808510638298"/>
      <point x="0.0" y="1659.1808510638298" type="qcurve" smooth="yes"/>
      <point x="51.35106382978723" y="1659.1808510638298"/>
      <point x="111.43617021276594" y="1719.2659574468084"/>
      <point x="111.43617021276594" y="1770.6170212765956" type="qcurve" smooth="yes"/>
      <point x="111.43617021276594" y="1820.0531914893616"/>
      <point x="49.91489361702128" y="1882.5744680851062"/>
      <point x="0.0" y="1882.5744680851062" type="qcurve" smooth="yes"/>
      <point x="-51.35106382978723" y="1882.5744680851062"/>
      <point x="-111.43617021276594" y="1821.968085106383"/>
    </contour>
  </outline>
</glyph>
<glyph name="seven.prop" format="2">
  <advance width="917.2127659574468"/>
  <outline>
    <contour>
      <point x="191.1063829787234" y="0.0" type="line"/>
      <point x="807.7765957446809" y="1377.6702127659573" type="line"/>
      <point x="-3.0" y="1377.6702127659573" type="line"/>
      <point x="-3.0" y="1456.0" type="line"/>
      <point x="906.2127659574467" y="1456.0" type="line"/>
      <point x="906.2127659574467" y="1402.5638297872338" type="line"/>
      <point x="289.1063829787234" y="0.0" type="line"/>
    </contour>
  </outline>
</glyph>
<glyph name="tildecombstack.case" format="2">
  <anchor x="0.0" y="1536.0" name="_top"/>
  <anchor x="0.0" y="1922.0" name="top"/>
  <outline>
    <contour>
      <point x="-339.0" y="1776.0" type="line"/>
      <point x="-289.6170212765957" y="1836.5319148936169"/>
      <point x="-175.0" y="1894.3723404255318"/>
      <point x="-108.0" y="1894.3723404255318" type="qcurve" smooth="yes"/>
      <point x="-73.0" y="1894.3723404255318"/>
      <point x="-5.73404255319149" y="1858.2978723404253"/>
      <point x="29.744680851063826" y="1832.2978723404253" type="qcurve" smooth="yes"/>
      <point x="61.30851063829787" y="1808.7340425531913"/>
      <point x="127.82978723404256" y="1766.4361702127658"/>
      <point x="159.82978723404256" y="1766.4361702127658" type="qcurve" smooth="yes"/>
      <point x="199.82978723404256" y="1766.4361702127658"/>
      <point x="253.60638297872342" y="1844.4893617021276"/>
      <point x="272.0" y="1895.9999999999998" type="qcurve"/>
      <point x="366.0" y="1805.0" type="line"/>
      <point x="324.095744680851" y="1739.8617021276596"/>
      <point x="220.0" y="1686.191489361702"/>
      <point x="155.0" y="1686.191489361702" type="qcurve" smooth="yes"/>
      <point x="113.81914893617022" y="1686.191489361702"/>
      <point x="39.638297872340424" y="1729.0106382978724"/>
      <point x="8.074468085106385" y="1751.6170212765956" type="qcurve" smooth="yes"/>
      <point x="-23.968085106382976" y="1774.7021276595744"/>
      <point x="-86.92553191489361" y="1817.9574468085107"/>
      <point x="-116.13829787234042" y="1817.9574468085107" type="qcurve" smooth="yes"/>
      <point x="-152.1382978723404" y="1817.9574468085107"/>
      <point x="-223.04255319148933" y="1720.2127659574467"/>
      <point x="-241.0" y="1685.0" type="qcurve"/>
    </contour>
  </outline>
</glyph>
<glyph name="two.prop" format="2">
  <advance width="897.9361702127659"/>
  <outline>
    <contour>
      <point x="30.624758220502898" y="0.0" type="line"/>
      <point x="30.624758220502898" y="68.58510638297872" type="line"/>
      <point x="547.6460348162475" y="665.595744680851" type="line" smooth="yes"/>
      <point x="654.0502901353965" y="787.4361702127659"/>
      <point x="764.5822050290135" y="964.8829787234042"/>
      <point x="764.5822050290135" y="1081.563829787234" type="qcurve" smooth="yes"/>
      <point x="764.5822050290135" y="1215.3210831721472"/>
      <point x="605.6460348162475" y="1396.6363636363635"/>
      <point x="457.4332688588008" y="1396.6363636363635" type="qcurve" smooth="yes"/>
      <point x="311.8268858800773" y="1396.6363636363635"/>
      <point x="121.06092843326884" y="1194.8955512572534"/>
      <point x="121.06092843326884" y="1030.0" type="qcurve" smooth="yes"/>
      <point x="121.06092843326884" y="1020.5212765957447" type="line"/>
      <point x="26.454545454545453" y="1020.5212765957447" type="line"/>
      <point x="26.454545454545453" y="1030.5212765957447" type="line" smooth="yes"/>
      <point x="26.454545454545453" y="1231.0425531914893"/>
      <point x="272.64119922630556" y="1486.0"/>
      <point x="455.9332688588008" y="1486.0" type="qcurve" smooth="yes"/>
      <point x="642.443907156673" y="1486.0"/>
      <point x="859.6885880077368" y="1257.8191489361702"/>
      <point x="859.6885880077368" y="1086.3510638297873" type="qcurve" smooth="yes"/>
      <point x="859.6885880077368" y="947.9999999999999"/>
      <point x="722.8268858800773" y="737.9361702127659"/>
      <point x="613.1353965183753" y="614.2872340425531" type="qcurve" smooth="yes"/>
      <point x="160.98936170212764" y="78.32978723404254" type="line"/>
      <point x="895.9361702127659" y="78.32978723404254" type="line"/>
      <point x="896.3907156673113" y="0.0" type="line"/>
    </contour>
  </outline>
</glyph>
<glyph name="uni20B5.rvrn" format="2">
  <advance width="833.2127659574467"/>
  <guideline y="-125.0" identifier="1Am3eQoiKr"/>
  <outline>
    <contour>
      <point x="375.52127659574467" y="-190.0" type="line"/>
      <point x="375.52127659574467" y="11.999999999999998" type="line"/>
      <point x="388.52127659574467" y="19.636363636363633" type="line"/>
      <point x="388.52127659574467" y="38.18181818181818" type="line"/>
      <point x="533.5212765957447" y="38.18181818181818" type="line"/>
      <point x="533.5212765957447" y="19.090909090909093" type="line"/>
      <point x="545.5212765957447" y="13.636363636363635" type="line"/>
      <point x="545.5212765957447" y="-190.0" type="line"/>
    </contour>
    <contour>
      <point x="388.52127659574467" y="1425.090909090909" type="line"/>
      <point x="388.52127659574467" y="1431.3326885880076" type="line"/>
      <point x="378.52127659574467" y="1436.7872340425529" type="line"/>
      <point x="378.52127659574467" y="1582.0" type="line"/>
      <point x="538.5212765957447" y="1582.0" type="line"/>
      <point x="538.5212765957447" y="1436.7872340425529" type="line"/>
      <point x="533.5212765957447" y="1429.6963249516439" type="line"/>
      <point x="533.5212765957447" y="1425.090909090909" type="line"/>
    </contour>
    <contour>
      <point x="725.0851063829787" y="436.0" type="qcurve" smooth="yes"/>
      <point x="725.0851063829787" y="460.0" type="line"/>
      <point x="819.2127659574467" y="459.04255319148933" type="line"/>
      <point x="819.2127659574467" y="433.0" type="line" smooth="yes"/>
      <point x="819.2127659574467" y="219.36170212765956"/>
      <point x="634.6063829787233" y="-25.0"/>
      <point x="467.0" y="-25.0" type="qcurve" smooth="yes"/>
      <point x="293.9574468085106" y="-25.0"/>
      <point x="102.0" y="221.36170212765956"/>
      <point x="102.0" y="462.0" type="qcurve" smooth="yes"/>
      <point x="102.0" y="1002.0" type="line" smooth="yes"/>
      <point x="102.0" y="1231.6382978723404"/>
      <point x="293.9574468085106" y="1485.0"/>
      <point x="465.52127659574467" y="1485.0" type="qcurve" smooth="yes"/>
      <point x="635.6063829787233" y="1485.0"/>
      <point x="811.8191489361701" y="1251.6382978723404"/>
      <point x="816.127659574468" y="1030.0" type="qcurve" smooth="yes"/>
      <point x="816.6063829787233" y="1006.9574468085107" type="line"/>
      <point x="720.0851063829787" y="1006.0" type="line"/>
      <point x="720.0851063829787" y="1030.0" type="line" smooth="yes"/>
      <point x="720.0851063829787" y="1190.3636363636363"/>
      <point x="600.0667311411992" y="1396.7272727272725"/>
      <point x="465.52127659574467" y="1396.7272727272725" type="qcurve" smooth="yes"/>
      <point x="328.3394584139264" y="1396.7272727272725"/>
      <point x="198.52127659574467" y="1194.3636363636365"/>
      <point x="198.52127659574467" y="1003.9999999999999" type="qcurve" smooth="yes"/>
      <point x="198.52127659574467" y="464.0" type="line" smooth="yes"/>
      <point x="198.52127659574467" y="268.0"/>
      <point x="337.88491295938104" y="58.36363636363635"/>
      <point x="481.52127659574467" y="58.36363636363635" type="qcurve" smooth="yes"/>
      <point x="599.0667311411992" y="58.36363636363635"/>
      <point x="725.0851063829787" y="263.3636363636364"/>
    </contour>
  </outline>
</glyph>
